<?xml version="1.0" encoding="utf-8"?>
<!-- Generator: Adobe Illustrator 22.1.0, SVG Export Plug-In . SVG Version: 6.00 Build 0)  -->
<svg version="1.1" id="Layer_1" xmlns="http://www.w3.org/2000/svg" xmlns:xlink="http://www.w3.org/1999/xlink" x="0px" y="0px"
	 viewBox="0 0 300 300" style="enable-background:new 0 0 300 300;" xml:space="preserve">
<style type="text/css">
	.st0{clip-path:url(#SVGID_2_);}
	.st1{clip-path:url(#SVGID_4_);fill:#378911;}
	.st2{clip-path:url(#SVGID_4_);fill:#FFFFFF;}
	.st3{clip-path:url(#SVGID_4_);fill:#D9002E;}
	.st4{clip-path:url(#SVGID_4_);}
	.st5{clip-path:url(#SVGID_6_);fill:#FFFFFF;}
	.st6{clip-path:url(#SVGID_6_);}
	.st7{fill:#D9002E;}
	.st8{clip-path:url(#SVGID_2_);fill:#BC0030;}
	.st9{clip-path:url(#SVGID_8_);fill:#EA0020;}
	.st10{clip-path:url(#SVGID_8_);fill:#F09624;}
	.st11{clip-path:url(#SVGID_8_);fill:#1D00A6;}
	.st12{clip-path:url(#SVGID_10_);fill:#5784D9;}
	.st13{clip-path:url(#SVGID_10_);fill:#F1D62F;}
	.st14{clip-path:url(#SVGID_10_);fill:#FFFFFF;}
	.st15{clip-path:url(#SVGID_10_);fill:#C0003B;}
	.st16{clip-path:url(#SVGID_12_);fill:#180087;}
	.st17{clip-path:url(#SVGID_12_);fill:#FFFFFF;}
	.st18{clip-path:url(#SVGID_12_);fill:#EA0020;}
	.st19{clip-path:url(#SVGID_14_);fill:#C6001E;}
	.st20{clip-path:url(#SVGID_14_);fill:#FFFFFF;}
</style>
<g>
	<defs>
		<rect id="SVGID_1_" width="300" height="300"/>
	</defs>
	<clipPath id="SVGID_2_">
		<use xlink:href="#SVGID_1_"  style="overflow:visible;"/>
	</clipPath>
	<g class="st0">
		<g>
			<defs>
				<rect id="SVGID_3_" x="-20" width="515.7" height="300.8"/>
			</defs>
			<clipPath id="SVGID_4_">
				<use xlink:href="#SVGID_3_"  style="overflow:visible;"/>
			</clipPath>
			<rect x="-20" class="st1" width="515.7" height="300.8"/>
			<rect x="-20" y="43" class="st2" width="515.7" height="43"/>
			<rect x="-20" y="128.9" class="st2" width="515.7" height="43"/>
			<rect x="-20" y="214.8" class="st2" width="515.7" height="43"/>
			<rect x="-20" class="st3" width="228.6" height="128.9"/>
			<polygon class="st2" points="98.9,21 101.9,29.8 94.4,24.2 86.8,29.8 89.9,21 82.2,15.5 91.6,15.7 94.4,6.8 97.1,15.7 
				106.6,15.5 			"/>
			<polygon class="st2" points="167.5,83.5 170.5,92.4 163,86.8 155.4,92.4 158.5,83.5 150.8,78.1 160.2,78.3 163,69.3 165.7,78.3 
				175.2,78.1 			"/>
			<polygon class="st2" points="30.2,83.5 33.3,92.4 25.7,86.8 18.2,92.4 21.3,83.5 13.5,78.1 22.9,78.3 25.7,69.3 28.5,78.3 
				38,78.1 			"/>
			<polygon class="st2" points="65.1,30.6 68.2,39.4 60.6,33.8 53,39.4 56.1,30.5 48.4,25.2 57.8,25.3 60.6,16.4 63.3,25.4 
				72.9,25.2 			"/>
			<polygon class="st2" points="132.6,30.6 135.6,39.4 128,33.8 120.5,39.4 123.6,30.5 115.8,25.2 125.3,25.3 128,16.4 130.9,25.4 
				140.3,25.2 			"/>
			<polygon class="st2" points="156.9,55.4 159.9,64.3 152.3,58.7 144.7,64.3 147.8,55.4 140.1,50 149.5,50.2 152.3,41.2 155,50.2 
				164.6,50 			"/>
			<polygon class="st2" points="41.2,55.4 44.3,64.3 36.7,58.7 29.2,64.3 32.3,55.4 24.5,50 34,50.2 36.7,41.2 39.5,50.2 49,50 			
				"/>
			<g class="st4">
				<defs>
					<rect id="SVGID_5_" x="-20" width="515.7" height="300.8"/>
				</defs>
				<clipPath id="SVGID_6_">
					<use xlink:href="#SVGID_5_"  style="overflow:visible;"/>
				</clipPath>
				<path class="st5" d="M80.9,77.7c0,0-2,0.8-0.6,16.6c1.1,12.9,5.7,17.2,5.7,17.2l2,8l19.1,0.1c0,0,0.4-5,1.1-6.5
					c1.8-3.9,9-8.3,12.1-14.9c3.3-4.1,1.7-12.3,8.3-20.3c3.3-4-3.9-2.3-3.9-2.3c-3.9,2.6-5.9,5.7-6.9,7.8c-0.7,4.1-3.8,7.6-4.1,4.6
					c0,0-1.1-5.2-4.5-15.3c-0.3-3-1.8-13.3-2.1-21.2c-0.2-5.1-4.7-5.4-5.1-0.2l-0.5,20.6L100.6,48c-0.5-6.7-5.6-5.7-5.8-0.2
					l-0.2,24.8l-0.9-24.1c-1.4-4.6-5-1.9-5.1,3.1l-0.6,23.4c0,0-0.8-12.8-1-18.2c-0.2-3.3-4-3-4.3,1.6
					C82.1,65.3,81.3,70.8,80.9,77.7L80.9,77.7z"/>
				<g class="st6">
					<path class="st7" d="M107.4,119.8L88,119.7l-2.3-8.2c-0.1,0-4.6-4.3-5.7-17.2c-1.3-15.5,0.6-16.7,0.8-16.8
						c0.1-3.9,0.4-7.5,0.8-11.1c0.3-2.5,0.5-5.1,0.8-7.9c0.4-4.9,4.6-5.5,4.8-1.6c0.2,5.4,1,18.2,1,18.2l0.1-23.4
						c0-3.4,1.7-5.7,3.2-5.7c0.6,0,1.7,0.3,2.3,2.5l0.9,24.1l-0.3-24.8c0.1-3.2,1.7-4.8,3.2-4.8c1.3,0,2.8,1.3,3.1,4.9l1.1,23.9
						l0-20.6c0.4-5.7,5.4-5.5,5.6,0.2c0.3,6.3,1.2,14.3,1.8,18.5l0.3,2.6c3.3,9.9,4.5,15.2,4.5,15.2c0,0.4,0.1,0.9,0.5,0.9
						c0.8,0,2.6-2.5,3.1-5.5c1.5-3.3,3.8-5.9,7-8c0.1-0.1,1.6-0.4,3-0.4c1.2,0,1.8,0.3,2.1,0.8c0.3,0.5,0,1.3-0.8,2.3
						c-3.9,4.6-4.9,9.5-5.8,13.4c-0.6,2.8-1.1,5.2-2.6,7c-1.7,3.8-4.8,6.8-7.5,9.5c-2,2-3.8,3.7-4.5,5.4c-0.7,1.5-1.1,6.4-1.1,6.5
						L107.4,119.8L107.4,119.8z M85.2,55c-1,0-2.2,1.1-2.3,3.6c-0.2,2.8-0.5,5.3-0.8,7.9c-0.4,3.6-0.7,7.2-1,11.3
						c-0.2,0.3-1.9,1.6-0.6,16.5c1.1,12.7,5.6,17,5.6,17l2.1,8.1l18.6-0.1c0.1-1,0.4-5,1.1-6.4c0.8-1.7,2.6-3.5,4.6-5.5
						c2.7-2.7,5.7-5.7,7.5-9.4c1.4-1.7,1.9-4.1,2.5-6.8c0.9-3.9,1.9-8.8,5.9-13.6c0.6-0.8,0.9-1.4,0.8-1.7c-0.4-0.8-4.4-0.2-4.4-0.1
						c-3,2-5.2,4.6-6.7,7.7c-0.5,2.9-2.3,5.9-3.6,5.9c-0.3,0-0.9-0.2-1-1.4c0,0-1.2-5.3-4.5-15.2l-0.3-2.7
						c-0.5-4.3-1.5-12.3-1.8-18.6c-0.2-5-4.2-5.2-4.6-0.2l-0.5,20.6L100.3,48c-0.5-7.1-5.1-5.4-5.3-0.2l-0.2,24.8l-1.4-24.1
						c-0.4-1.3-1.1-2.1-1.8-2.1c-1.3,0-2.7,2.1-2.7,5.2l-0.6,23.4l0,0c-0.5,0-1.3-12.8-1.5-18.2C86.7,55.7,86.1,55,85.2,55L85.2,55z
						"/>
				</g>
			</g>
		</g>
	</g>
	<rect class="st8" width="300" height="300"/>
	<g class="st0">
		<g>
			<defs>
				<rect id="SVGID_7_" x="-107.1" y="0" width="514.2" height="300"/>
			</defs>
			<clipPath id="SVGID_8_">
				<use xlink:href="#SVGID_7_"  style="overflow:visible;"/>
			</clipPath>
			<rect x="-107.1" y="0" class="st9" width="514.2" height="100"/>
			<rect x="-107.1" y="200" class="st10" width="514.2" height="100"/>
			<rect x="-107.1" y="100" class="st11" width="514.2" height="100"/>
		</g>
	</g>
	<g class="st0">
		<g>
			<defs>
				<rect id="SVGID_9_" width="515.5" height="300.7"/>
			</defs>
			<clipPath id="SVGID_10_">
				<use xlink:href="#SVGID_9_"  style="overflow:visible;"/>
			</clipPath>
			<rect class="st12" width="515.5" height="300.7"/>
			<rect y="233.9" class="st13" width="515.5" height="16.7"/>
			<rect y="200.5" class="st13" width="515.5" height="16.7"/>
			<polygon class="st14" points="96.9,131 84.1,93.6 46.7,80.9 84.1,68.1 96.8,30.7 109.6,68 147,80.8 109.6,93.6 			"/>
			<polygon class="st15" points="96.9,122.6 86.2,91.5 55.1,80.9 86.2,70.2 96.8,39.1 107.5,70.2 138.6,80.8 107.5,91.5 			"/>
		</g>
	</g>
	<g class="st0">
		<g>
			<defs>
				<rect id="SVGID_11_" x="-54.1" width="519.3" height="303"/>
			</defs>
			<clipPath id="SVGID_12_">
				<use xlink:href="#SVGID_11_"  style="overflow:visible;"/>
			</clipPath>
			<rect x="-54.1" class="st16" width="519.3" height="303"/>
			<polygon class="st17" points="82.5,185.6 90.4,210.2 114.6,201.1 100.3,222.6 122.5,235.7 96.8,238 100.3,263.5 82.5,244.8 
				64.7,263.5 68.3,238 42.6,235.7 64.8,222.6 50.5,201.1 74.6,210.2 			"/>
			<polygon class="st17" points="355.8,229.9 359.5,241.6 371,237.2 364.2,247.4 374.8,253.7 362.6,254.8 364.2,267 355.8,258 
				347.3,267 349,254.8 336.7,253.7 347.3,247.4 340.5,237.2 352,241.6 			"/>
			<polygon class="st17" points="287.5,121.7 291.2,133.4 302.7,129 295.9,139.3 306.5,145.5 294.2,146.6 295.9,158.8 287.5,149.9 
				279,158.8 280.7,146.6 268.4,145.5 279,139.3 272.2,129 283.7,133.4 			"/>
			<polygon class="st17" points="355.8,47.7 359.5,59.4 371,55 364.2,65.3 374.8,71.6 362.6,72.6 364.2,84.8 355.8,75.9 347.3,84.8 
				349,72.6 336.7,71.6 347.3,65.3 340.5,55 352,59.4 			"/>
			<polygon class="st17" points="416.5,103.5 420.3,115.2 431.8,110.8 425,121.1 435.5,127.3 423.3,128.4 425,140.6 416.5,131.7 
				408,140.6 409.7,128.4 397.5,127.3 408,121.1 401.2,110.8 412.7,115.2 			"/>
			<polygon class="st17" points="383.1,158.3 386.1,165.6 393.9,166.2 387.9,171.2 389.8,178.9 383.1,174.7 376.4,178.9 
				378.3,171.2 372.3,166.2 380.1,165.6 			"/>
			<polygon class="st17" points="59.7,0 59.7,45.5 -54.1,45.5 -54.1,91.1 59.7,91.1 59.7,136.6 105.3,136.6 105.3,91.1 219.2,91.1 
				219.2,45.5 105.3,45.5 105.3,0 			"/>
			<polygon class="st17" points="-54.1,0 -54.1,15.3 188.6,136.6 219.1,136.6 219.1,121.4 -23.5,0 			"/>
			<polygon class="st17" points="188.6,0 -54.1,121.4 -54.1,136.6 -23.5,136.6 219.1,15.3 219.1,0 			"/>
			<polygon class="st18" points="68.9,0 68.9,54.7 -54.1,54.7 -54.1,82 68.9,82 68.9,136.6 96.2,136.6 96.2,82 219.1,82 219.1,54.7 
				96.2,54.7 96.2,0 			"/>
			<path class="st18" d="M-54.1,0v10.2l70.7,35.3H37L-54.1,0z M198.8,0l-91.1,45.5h20.4L219.1,0H198.8z"/>
			<path class="st18" d="M37,91.1l-91.1,45.6h20.4l91.1-45.6H37z M128.1,91.1l91.1,45.6v-10.2l-70.7-35.4H128.1z"/>
		</g>
	</g>
	<g class="st0">
		<g>
			<defs>
				<rect id="SVGID_13_" x="-83" y="-1" width="517.8" height="302"/>
			</defs>
			<clipPath id="SVGID_14_">
				<use xlink:href="#SVGID_13_"  style="overflow:visible;"/>
			</clipPath>
			<rect x="-83" y="-1" class="st19" width="517.8" height="100.7"/>
			<rect x="-83" y="200.3" class="st19" width="517.8" height="100.7"/>
			<rect x="-83" y="99.6" class="st20" width="517.8" height="100.7"/>
		</g>
	</g>
</g>
</svg>
