<?xml version="1.0" encoding="utf-8"?>
<!-- Generator: Adobe Illustrator 22.1.0, SVG Export Plug-In . SVG Version: 6.00 Build 0)  -->
<svg version="1.1" id="Layer_1" xmlns="http://www.w3.org/2000/svg" xmlns:xlink="http://www.w3.org/1999/xlink" x="0px" y="0px"
	 viewBox="0 0 300 300" style="enable-background:new 0 0 300 300;" xml:space="preserve">
<style type="text/css">
	.st0{clip-path:url(#SVGID_2_);fill:#1B257D;}
	.st1{clip-path:url(#SVGID_2_);fill:#F4C638;}
	.st2{clip-path:url(#SVGID_2_);}
	.st3{clip-path:url(#SVGID_4_);}
</style>
<g>
	<g>
		<defs>
			<rect id="SVGID_1_" y="0" width="300" height="300"/>
		</defs>
		<clipPath id="SVGID_2_">
			<use xlink:href="#SVGID_1_"  style="overflow:visible;"/>
		</clipPath>
		<rect y="0" class="st0" width="300" height="300"/>
		<rect x="100" y="0" class="st1" width="100" height="300"/>
		<g class="st2">
			<defs>
				<rect id="SVGID_3_" y="62.4" width="300" height="175.1"/>
			</defs>
			<clipPath id="SVGID_4_">
				<use xlink:href="#SVGID_3_"  style="overflow:visible;"/>
			</clipPath>
			<path class="st3" d="M150,101.5c-3.3,8.9-6.6,18.1-13.7,25.2c2.2-0.7,6.1-1.4,8.5-1.3v37.3l-10.5,1.6c-0.4,0-0.5-0.6-0.5-1.4
				c-1-11.6-3.8-21.3-6.9-31.4c-0.2-1.4-4.2-6.6-1.1-5.7c0.4,0,4.5,1.7,3.8,0.9c-5.6-5.8-13.8-10-21.7-11.2c-0.7-0.2-1.1,0.2-0.5,1
				c10.5,16.3,19.4,35.4,19.3,58.2c4.1,0,14-2.4,18.1-2.4v26.3h10.3v-26.3c4.1,0,14,2.4,18.1,2.4c-0.1-22.8,8.7-41.9,19.3-58.2
				c0.6-0.8,0.2-1.2-0.5-1c-8,1.2-16.1,5.4-21.7,11.2c-0.7,0.8,3.5-0.9,3.8-0.9c3.1-0.9-0.9,4.3-1.1,5.7
				c-3.1,10.1-5.9,19.8-6.9,31.4c0,0.8-0.1,1.4-0.5,1.4l-10.5-1.6v-37.3c2.5-0.1,6.3,0.6,8.5,1.3C156.6,119.6,153.3,110.4,150,101.5
				"/>
		</g>
	</g>
</g>
</svg>
