<?xml version="1.0" encoding="utf-8"?>
<!-- Generator: Adobe Illustrator 22.1.0, SVG Export Plug-In . SVG Version: 6.00 Build 0)  -->
<svg version="1.1" id="Layer_1" xmlns="http://www.w3.org/2000/svg" xmlns:xlink="http://www.w3.org/1999/xlink" x="0px" y="0px"
	 viewBox="0 0 300 300" style="enable-background:new 0 0 300 300;" xml:space="preserve">
<style type="text/css">
	.st0{clip-path:url(#SVGID_2_);}
	.st1{clip-path:url(#SVGID_4_);fill:#378911;}
	.st2{clip-path:url(#SVGID_4_);fill:#FFFFFF;}
	.st3{clip-path:url(#SVGID_4_);fill:#D9002E;}
	.st4{clip-path:url(#SVGID_4_);}
	.st5{clip-path:url(#SVGID_6_);fill:#FFFFFF;}
	.st6{clip-path:url(#SVGID_6_);}
	.st7{fill:#D9002E;}
	.st8{clip-path:url(#SVGID_2_);fill:#2D6B4F;}
	.st9{clip-path:url(#SVGID_8_);fill:#2D6B4F;}
	.st10{clip-path:url(#SVGID_8_);}
	.st11{clip-path:url(#SVGID_10_);fill:#E01748;}
	.st12{clip-path:url(#SVGID_12_);fill:#1B257D;}
	.st13{clip-path:url(#SVGID_12_);fill:#F4C638;}
	.st14{clip-path:url(#SVGID_12_);}
	.st15{clip-path:url(#SVGID_14_);}
	.st16{clip-path:url(#SVGID_16_);fill:#3E69FC;}
	.st17{clip-path:url(#SVGID_16_);fill:#FFFFFF;}
	.st18{clip-path:url(#SVGID_16_);fill:#2E720D;}
	.st19{clip-path:url(#SVGID_16_);}
	.st20{clip-path:url(#SVGID_18_);}
	.st21{fill:#F6D728;}
	.st22{clip-path:url(#SVGID_18_);fill:#F6D728;}
	.st23{clip-path:url(#SVGID_20_);fill:#BA0019;}
	.st24{clip-path:url(#SVGID_20_);fill:#3E9A13;}
	.st25{clip-path:url(#SVGID_20_);fill:#FFFFFF;}
	.st26{clip-path:url(#SVGID_22_);}
	.st27{clip-path:url(#SVGID_22_);fill:#F7DE29;}
	.st28{clip-path:url(#SVGID_22_);fill:#DA001E;}
</style>
<g>
	<defs>
		<rect id="SVGID_1_" width="300" height="300"/>
	</defs>
	<clipPath id="SVGID_2_">
		<use xlink:href="#SVGID_1_"  style="overflow:visible;"/>
	</clipPath>
	<g class="st0">
		<g>
			<defs>
				<rect id="SVGID_3_" x="-20" width="515.7" height="300.8"/>
			</defs>
			<clipPath id="SVGID_4_">
				<use xlink:href="#SVGID_3_"  style="overflow:visible;"/>
			</clipPath>
			<rect x="-20" class="st1" width="515.7" height="300.8"/>
			<rect x="-20" y="43" class="st2" width="515.7" height="43"/>
			<rect x="-20" y="128.9" class="st2" width="515.7" height="43"/>
			<rect x="-20" y="214.8" class="st2" width="515.7" height="43"/>
			<rect x="-20" class="st3" width="228.6" height="128.9"/>
			<polygon class="st2" points="98.9,21 101.9,29.8 94.4,24.2 86.8,29.8 89.9,21 82.2,15.5 91.6,15.7 94.4,6.8 97.1,15.7 
				106.6,15.5 			"/>
			<polygon class="st2" points="167.5,83.5 170.5,92.4 163,86.8 155.4,92.4 158.5,83.5 150.8,78.1 160.2,78.3 163,69.3 165.7,78.3 
				175.2,78.1 			"/>
			<polygon class="st2" points="30.2,83.5 33.3,92.4 25.7,86.8 18.2,92.4 21.3,83.5 13.5,78.1 22.9,78.3 25.7,69.3 28.5,78.3 
				38,78.1 			"/>
			<polygon class="st2" points="65.1,30.6 68.2,39.4 60.6,33.8 53,39.4 56.1,30.5 48.4,25.2 57.8,25.3 60.6,16.4 63.3,25.4 
				72.9,25.2 			"/>
			<polygon class="st2" points="132.6,30.6 135.6,39.4 128,33.8 120.5,39.4 123.6,30.5 115.8,25.2 125.3,25.3 128,16.4 130.9,25.4 
				140.3,25.2 			"/>
			<polygon class="st2" points="156.9,55.4 159.9,64.3 152.3,58.7 144.7,64.3 147.8,55.4 140.1,50 149.5,50.2 152.3,41.2 155,50.2 
				164.6,50 			"/>
			<polygon class="st2" points="41.2,55.4 44.3,64.3 36.7,58.7 29.2,64.3 32.3,55.4 24.5,50 34,50.2 36.7,41.2 39.5,50.2 49,50 			
				"/>
			<g class="st4">
				<defs>
					<rect id="SVGID_5_" x="-20" width="515.7" height="300.8"/>
				</defs>
				<clipPath id="SVGID_6_">
					<use xlink:href="#SVGID_5_"  style="overflow:visible;"/>
				</clipPath>
				<path class="st5" d="M80.9,77.7c0,0-2,0.8-0.6,16.6c1.1,12.9,5.7,17.2,5.7,17.2l2,8l19.1,0.1c0,0,0.4-5,1.1-6.5
					c1.8-3.9,9-8.3,12.1-14.9c3.3-4.1,1.7-12.3,8.3-20.3c3.3-4-3.9-2.3-3.9-2.3c-3.9,2.6-5.9,5.7-6.9,7.8c-0.7,4.1-3.8,7.6-4.1,4.6
					c0,0-1.1-5.2-4.5-15.3c-0.3-3-1.8-13.3-2.1-21.2c-0.2-5.1-4.7-5.4-5.1-0.2l-0.5,20.6L100.6,48c-0.5-6.7-5.6-5.7-5.8-0.2
					l-0.2,24.8l-0.9-24.1c-1.4-4.6-5-1.9-5.1,3.1l-0.6,23.4c0,0-0.8-12.8-1-18.2c-0.2-3.3-4-3-4.3,1.6
					C82.1,65.3,81.3,70.8,80.9,77.7L80.9,77.7z"/>
				<g class="st6">
					<path class="st7" d="M107.4,119.8L88,119.7l-2.3-8.2c-0.1,0-4.6-4.3-5.7-17.2c-1.3-15.5,0.6-16.7,0.8-16.8
						c0.1-3.9,0.4-7.5,0.8-11.1c0.3-2.5,0.5-5.1,0.8-7.9c0.4-4.9,4.6-5.5,4.8-1.6c0.2,5.4,1,18.2,1,18.2l0.1-23.4
						c0-3.4,1.7-5.7,3.2-5.7c0.6,0,1.7,0.3,2.3,2.5l0.9,24.1l-0.3-24.8c0.1-3.2,1.7-4.8,3.2-4.8c1.3,0,2.8,1.3,3.1,4.9l1.1,23.9
						l0-20.6c0.4-5.7,5.4-5.5,5.6,0.2c0.3,6.3,1.2,14.3,1.8,18.5l0.3,2.6c3.3,9.9,4.5,15.2,4.5,15.2c0,0.4,0.1,0.9,0.5,0.9
						c0.8,0,2.6-2.5,3.1-5.5c1.5-3.3,3.8-5.9,7-8c0.1-0.1,1.6-0.4,3-0.4c1.2,0,1.8,0.3,2.1,0.8c0.3,0.5,0,1.3-0.8,2.3
						c-3.9,4.6-4.9,9.5-5.8,13.4c-0.6,2.8-1.1,5.2-2.6,7c-1.7,3.8-4.8,6.8-7.5,9.5c-2,2-3.8,3.7-4.5,5.4c-0.7,1.5-1.1,6.4-1.1,6.5
						L107.4,119.8L107.4,119.8z M85.2,55c-1,0-2.2,1.1-2.3,3.6c-0.2,2.8-0.5,5.3-0.8,7.9c-0.4,3.6-0.7,7.2-1,11.3
						c-0.2,0.3-1.9,1.6-0.6,16.5c1.1,12.7,5.6,17,5.6,17l2.1,8.1l18.6-0.1c0.1-1,0.4-5,1.1-6.4c0.8-1.7,2.6-3.5,4.6-5.5
						c2.7-2.7,5.7-5.7,7.5-9.4c1.4-1.7,1.9-4.1,2.5-6.8c0.9-3.9,1.9-8.8,5.9-13.6c0.6-0.8,0.9-1.4,0.8-1.7c-0.4-0.8-4.4-0.2-4.4-0.1
						c-3,2-5.2,4.6-6.7,7.7c-0.5,2.9-2.3,5.9-3.6,5.9c-0.3,0-0.9-0.2-1-1.4c0,0-1.2-5.3-4.5-15.2l-0.3-2.7
						c-0.5-4.3-1.5-12.3-1.8-18.6c-0.2-5-4.2-5.2-4.6-0.2l-0.5,20.6L100.3,48c-0.5-7.1-5.1-5.4-5.3-0.2l-0.2,24.8l-1.4-24.1
						c-0.4-1.3-1.1-2.1-1.8-2.1c-1.3,0-2.7,2.1-2.7,5.2l-0.6,23.4l0,0c-0.5,0-1.3-12.8-1.5-18.2C86.7,55.7,86.1,55,85.2,55L85.2,55z
						"/>
				</g>
			</g>
		</g>
	</g>
	<rect class="st8" width="300" height="300"/>
	<g class="st0">
		<g>
			<defs>
				<rect id="SVGID_7_" x="-64" y="31.3" width="406" height="236.8"/>
			</defs>
			<clipPath id="SVGID_8_">
				<use xlink:href="#SVGID_7_"  style="overflow:visible;"/>
			</clipPath>
			<rect x="-64" y="31.3" class="st9" width="406" height="236.8"/>
			<g class="st10">
				<defs>
					<rect id="SVGID_9_" x="-64" y="31.3" width="406" height="236.8"/>
				</defs>
				<clipPath id="SVGID_10_">
					<use xlink:href="#SVGID_9_"  style="overflow:visible;"/>
				</clipPath>
				<path class="st11" d="M118.7,68.5c44.8,0,81.2,36.4,81.2,81.2c0,44.9-36.4,81.2-81.2,81.2c-44.9,0-81.2-36.3-81.2-81.2
					C37.5,104.9,73.9,68.5,118.7,68.5"/>
			</g>
		</g>
	</g>
	<g class="st0">
		<g>
			<defs>
				<rect id="SVGID_11_" x="-52.1" y="32.1" width="404.2" height="235.8"/>
			</defs>
			<clipPath id="SVGID_12_">
				<use xlink:href="#SVGID_11_"  style="display:none;overflow:visible;"/>
			</clipPath>
			<rect x="-52.1" class="st12" width="404.2" height="300"/>
			<rect x="82.6" class="st13" width="134.7" height="300"/>
			<g class="st14">
				<defs>
					<rect id="SVGID_13_" x="-52.1" y="32.1" width="404.2" height="235.8"/>
				</defs>
				<clipPath id="SVGID_14_">
					<use xlink:href="#SVGID_13_"  style="overflow:visible;"/>
				</clipPath>
				<path class="st15" d="M150,84.7c-4.4,11.9-8.8,24.4-18.4,33.9c3-1,8.2-1.9,11.5-1.8v50.2l-14.2,2.1c-0.5-0.1-0.7-0.9-0.7-1.9
					c-1.4-15.6-5.1-28.7-9.3-42.2c-0.3-1.9-5.7-8.9-1.5-7.7c0.5,0.1,6,2.3,5.2,1.2c-7.6-7.8-18.6-13.4-29.3-15.1
					c-0.9-0.2-1.5,0.2-0.6,1.3c14.2,21.9,26.1,47.7,26,78.3c5.5,0,18.9-3.3,24.4-3.3v35.4h13.8v-35.4c5.5,0,18.9,3.3,24.4,3.3
					c-0.1-30.6,11.8-56.5,26-78.3c0.9-1.1,0.3-1.6-0.6-1.3c-10.7,1.7-21.7,7.3-29.3,15.1c-0.9,1.1,4.7-1.2,5.2-1.2
					c4.1-1.2-1.2,5.8-1.5,7.7c-4.2,13.6-7.9,26.7-9.3,42.2c0,1.1-0.2,1.9-0.7,1.9l-14.2-2.1v-50.2c3.3-0.1,8.5,0.8,11.5,1.8
					C158.8,109.1,154.4,96.7,150,84.7"/>
			</g>
		</g>
	</g>
	<g class="st0">
		<g>
			<defs>
				<rect id="SVGID_15_" x="-108.8" y="-1" width="517.6" height="302"/>
			</defs>
			<clipPath id="SVGID_16_">
				<use xlink:href="#SVGID_15_"  style="overflow:visible;"/>
			</clipPath>
			<rect x="-108.8" y="-1" class="st16" width="517.7" height="100.6"/>
			<rect x="-108.8" y="99.7" class="st17" width="517.7" height="100.7"/>
			<rect x="-108.8" y="200.3" class="st18" width="517.7" height="100.7"/>
			<g class="st19">
				<defs>
					<rect id="SVGID_17_" x="-108.8" y="-1" width="517.7" height="302"/>
				</defs>
				<clipPath id="SVGID_18_">
					<use xlink:href="#SVGID_17_"  style="overflow:visible;"/>
				</clipPath>
				<g class="st20">
					<path class="st21" d="M150,190.3c-22.2,0-40.3-18.1-40.3-40.3c0-22.2,18.1-40.3,40.3-40.3c22.2,0,40.3,18.1,40.3,40.3
						C190.3,172.2,172.2,190.3,150,190.3L150,190.3z M150,114.8c-19.4,0-35.2,15.8-35.2,35.2c0,19.4,15.8,35.3,35.2,35.3
						c19.4,0,35.2-15.8,35.2-35.3C185.2,130.6,169.4,114.8,150,114.8L150,114.8z"/>
				</g>
				<path class="st22" d="M150,141.9c4.5,0,8.1,3.6,8.1,8c0,4.5-3.6,8.1-8.1,8.1c-4.5,0-8.1-3.6-8.1-8.1
					C142,145.6,145.6,141.9,150,141.9L150,141.9z"/>
				<g class="st20">
					<polygon class="st21" points="175.2,151 150,151 150,149 175.2,149 175.2,151 					"/>
				</g>
				<path class="st22" d="M175.2,145c2.8,0,5,2.3,5,5c0,2.8-2.2,5-5,5c-2.8,0-5-2.2-5-5C170.1,147.2,172.4,145,175.2,145L175.2,145z
					"/>
				<g class="st20">
					<polygon class="st21" points="150.5,150.9 149.5,149.1 171.3,136.6 172.3,138.3 150.5,150.9 					"/>
				</g>
				<path class="st22" d="M169.3,133.1c2.4-1.4,5.5-0.6,6.9,1.8c1.4,2.4,0.6,5.5-1.8,6.9c-2.4,1.4-5.5,0.6-6.9-1.8
					C166,137.5,166.9,134.5,169.3,133.1L169.3,133.1z"/>
				<g class="st20">
					<polygon class="st21" points="150.9,150.5 149.1,149.5 161.7,127.7 163.5,128.7 150.9,150.5 					"/>
				</g>
				<path class="st22" d="M158.2,125.7c1.4-2.4,4.5-3.2,6.9-1.8c2.4,1.4,3.2,4.5,1.8,6.9c-1.4,2.4-4.5,3.2-6.9,1.8
					C157.7,131.2,156.8,128.1,158.2,125.7L158.2,125.7z"/>
				<g class="st20">
					<polygon class="st21" points="151,150 149,150 149,124.8 151,124.8 151,150 					"/>
				</g>
				<path class="st22" d="M145,124.8c0-2.8,2.2-5,5-5c2.8,0,5,2.2,5,5c0,2.8-2.2,5-5,5C147.2,129.9,145,127.6,145,124.8L145,124.8z"
					/>
				<g class="st20">
					<polygon class="st21" points="149.1,150.5 136.5,128.7 138.3,127.7 150.9,149.5 149.1,150.5 					"/>
				</g>
				<path class="st22" d="M133.1,130.7c-1.4-2.4-0.6-5.5,1.8-6.9c2.4-1.4,5.5-0.6,6.9,1.8c1.4,2.4,0.6,5.5-1.8,6.9
					C137.5,134,134.5,133.1,133.1,130.7L133.1,130.7z"/>
				<g class="st20">
					<polygon class="st21" points="149.5,150.9 127.7,138.3 128.7,136.6 150.5,149.1 149.5,150.9 					"/>
				</g>
				<path class="st22" d="M125.7,141.8c-2.4-1.4-3.2-4.5-1.8-6.9c1.4-2.4,4.5-3.2,6.9-1.8c2.4,1.4,3.2,4.5,1.8,6.9
					C131.2,142.3,128.1,143.2,125.7,141.8L125.7,141.8z"/>
				<g class="st20">
					<polygon class="st21" points="150,151 124.9,151 124.9,149 150,149 150,151 					"/>
				</g>
				<path class="st22" d="M124.9,145c2.8,0,5,2.3,5,5c0,2.8-2.2,5-5,5c-2.8,0-5-2.2-5-5C119.8,147.2,122.1,145,124.9,145L124.9,145z
					"/>
				<g class="st20">
					<polygon class="st21" points="151,175.2 149,175.2 149,150 151,150 151,175.2 					"/>
				</g>
			</g>
		</g>
	</g>
	<g class="st0">
		<g>
			<defs>
				<rect id="SVGID_19_" x="-2" y="-1" width="516" height="301"/>
			</defs>
			<clipPath id="SVGID_20_">
				<use xlink:href="#SVGID_19_"  style="overflow:visible;"/>
			</clipPath>
			<rect x="-2" y="-1" class="st23" width="516.1" height="200.7"/>
			<rect x="-2" y="199.7" class="st24" width="516.1" height="100.3"/>
			<rect x="-2" y="-1" class="st25" width="66.2" height="301"/>
			<path class="st23" d="M6,294.5h3v-8.3H6V294.5z M29.6,294.5h3v-8.3h-3V294.5z M53.2,294.5h3v-8.3h-3V294.5z M17.8,272.3h2.9v-6.9
				h-2.9V272.3z M41.4,272.3h3v-6.9h-3V272.3z M6,254.2h3v-8.3H6V254.2z M29.6,254.2h2.9v-8.3h-2.9V254.2z M53.2,254.2h3v-8.3h-3
				V254.2z M11.9,265.3h2.9v-6.9h3v-6.9h2.9v6.9h3v6.9h2.9v6.9h-2.9v6.9h-3v6.9h-2.9v-6.9h-3v-6.9h-2.9V265.3z M35.5,265.3h3v-6.9
				h2.9v-6.9h3v6.9h2.9v6.9h3v6.9h-3v6.9h-2.9v6.9h-3v-6.9h-2.9v-6.9h-3V265.3z M41.4,237.6v6.9h-3v6.9h-2.9v6.9h-3v6.9h-2.9v-6.9
				h-3v-6.9h-2.9v-6.9h-3v-6.9h-2.9v6.9h-3v6.9h-2.9v6.9h-3v6.9H6v6.9h3v6.9h3v6.9h2.9v6.9h3v6.9h3v-6.9h2.9v-6.9h2.9v-6.9h3v-6.9h3
				v6.9h2.9v6.9h3v6.9h2.9v6.9h3v-6.9h2.9v-6.9h3v-6.9h3v-6.9h2.9v-6.9h-3v-6.9h-2.9v-6.9h-3v-6.9h-2.9v-6.9H41.4z M48.7,230.7h1.5
				v-2.8h1.5v2.8h1.5v2.8h-1.5v2.8h-1.5v-2.8h-1.5V230.7z M48.7,221v4.1h-1.5v4.2h-1.5v5.5h1.5v4.2h1.5v4.1h4.4V239h1.5v-4.2h1.5
				v-5.5h-1.5v-4.2h-1.5V221H48.7z M8.9,230.6h1.5v-2.8h1.5v2.8h1.5v2.8h-1.5v2.8h-1.5v-2.8H8.9V230.6z M8.9,220.9v4.2H7.5v4.1H6
				v5.6h1.5v4.1h1.5v4.2h4.4V239h1.5v-4.1h1.5v-5.6h-1.5v-4.1h-1.5v-4.2H8.9z M25.2,230.6h1.5v-2.8h1.5v2.8h1.5v2.8h-1.5v2.8h-1.5
				v-2.8h-1.5V230.6z M32.5,230.6H34v-2.8h1.5v2.8H37v2.8h-1.5v2.8H34v-2.8h-1.5V230.6z M32.5,220.9v4.2h-3v-4.2h-4.4v4.2h-1.5v4.1
				h-1.5v5.6h1.5v4.1h1.5v4.2h4.4V239h2.9v4.2H37V239h1.5v-4.1h1.5v-5.6h-1.5v-4.1H37v-4.2H32.5z M6,218.2h3v-8.3H6V218.2z
				 M29.6,218.2h3v-8.3h-3V218.2z M53.2,218.2h3v-8.3h-3V218.2z M6,183.5h3v-5.6H6V183.5z M53.2,183.5h3v-5.6h-3V183.5z M29.6,164.1
				h3v-6.9h-3V164.1z M6,145.3v4.1v0.1v4.1h2.9v-4.1v-0.1v-4.1H6z M22.2,145.3v4.1v0.1v4.1h2.9v-4.1v-0.1v-4.1H22.2z M37,145.3v4.1
				v0.1v4.1h3v-4.1v-0.1v-4.1H37z M53.2,145.3v4.1v0.1v4.1h3v-4.1v-0.1v-4.1H53.2z M34,140.5v2.8h-1.5v2.1h-3v-2.1h-1.5v-2.8h-3v4.2
				h1.5v2.1h1.5v2.7v0.1v2.7h-1.5v2.1h-1.5v4.2h3v-2.8h1.5v-2.1h3v2.1H34v2.8H37v-4.2h-1.5v-2.1H34v-2.7v-0.1v-2.7h1.5v-2.1H37v-4.2
				H34z M29.6,141.8h3v-6.9h-3V141.8z M6,121.1h3v-5.5H6V121.1z M53.2,121.1h3v-5.5h-3V121.1z M6,89.1h3v-8.3H6V89.1z M29.6,89.1h3
				v-8.3h-3V89.1z M53.2,89.1h3v-8.3h-3V89.1z M17.8,149.6v-0.1l0,0v-2.7h2.9v-4.9h3v-5.6h4.4v-6.5h1.5v-3.2h1.5h1.5v3.1H34v6.6h4.4
				v2.8v2.8h2.9v4.9h3v2.7v2.8h-3v4.9h-2.9v2.8v2.8H34v6.6h-1.5v3.1h-1.5h-1.5v-3.2h-1.5v-6.5h-4.4v-5.6h-3v-4.9h-2.9V149.6z
				 M41.4,72.5v7h-3v6.9h-2.9v6.9h-3v5.5v1.4h-2.9v-6.9h-3v-6.9h-2.9v-6.9h-3v-7h-2.9v7h-3v6.9h-3v6.9H8.9v5.5v1.4H6v6.9h3v6.9h2.9
				v6.9h3v6.9h3v-6.9h2.9v-6.9h3v-6.9h-3v-8.3h3v1.4v4.2h2.9v11.1h1.5l0,6.9l-4.5,0.1v5.6h-3v4.1h-2.9v6.9h-3v-6.9h-3V128H8.9v-4.2
				H6v12.5h3v5.6h2.9v4.9h3v2.7v0.1v2.7h-3v4.9H8.9v5.6H6v12.5h3V171h2.9v-4.2h3v-6.9h3v6.9h2.9v4.2h3v5.6l4.5,0.1l0,6.9h-1.5v11.1
				h-2.9v4.2v1.4h-3v-8.3h3v-6.9h-3v-6.9h-2.9V171h-3v6.9h-3v6.9H8.9v6.9H6v7h3v1.4v5.5h3v6.9h2.9v6.9h3v6.9l0,0l0,0h2.9v-6.9h3
				v-6.9h2.9v-6.9h3v-6.9h3v1.4v5.6h2.9v6.9h3v6.9h2.9v6.9h3v-6.9h2.9v-6.9h3v-6.9h2.9v-6.9h3v-7h-3v-6.9h-2.9v-6.9h-3V171h-2.9v6.9
				h-3v6.9h-3v6.9h3v7v1.4h-3v-1.4v-4.2h-2.9v-11.1h-0.4H34v-6.9h1.1h0.8H37h1.5V171h2.9v-4.2h3v-6.9h2.9v6.9h3v4.2h3v4.2h2.9v-12.5
				h-2.9v-5.6h-3v-4.9h-3v-2.7v-0.1v-2.7h3v-4.9h3v-5.6h2.9v-12.5h-2.9v4.2h-3v4.1h-3v6.9h-2.9v-6.9h-3V128h-2.9v-5.6H37h-1.1h-0.8
				H34v-6.9h1.1h0.4v-11.1h2.9v-4.2v-1.4h3v1.4v7h-3v6.9h3v6.9h3v6.9h2.9v-6.9h3v-6.9h2.9v-6.9h3v-7h-3v-6.9h-2.9v-6.9h-3v-6.9h-2.9
				v-7H41.4z M8.9,65.6h1.5v-2.8h1.5v2.8h1.5v2.8h-1.5v2.8h-1.5v-2.8H8.9V65.6z M8.9,60H7.5v4.1H6v5.6h1.5v4.2h1.5V78h4.4v-4.2h1.5
				v-4.2h1.5v-5.6h-1.5V60h-1.5v-4.2H8.9V60z M25.2,65.6h1.5v-2.8h1.5v2.8h1.5v2.8h-1.5v2.8h-1.5v-2.8h-1.5V65.6z M32.5,65.6H34
				v-2.8h1.5v2.8H37v2.8h-1.5v2.8H34v-2.8h-1.5V65.6z M25.2,60h-1.5v4.1h-1.5v5.6h1.5v4.2h1.5V78h4.4v-4.2h3V78H37v-4.2h1.5v-4.2
				h1.5v-5.6h-1.5V60H37v-4.2h-4.4V60h-3v-4.2h-4.4V60z M48.7,65.5h1.5v-2.8h1.5v2.8h1.5v2.8h-1.5v2.8h-1.5v-2.8h-1.5V65.5z
				 M48.7,55.8V60h-1.5v4.2h-1.5v5.5h1.5v4.2h1.5V78h4.4v-4.1h1.5v-4.2h1.5v-5.5h-1.5V60h-1.5v-4.2H48.7z M6,53.1h3v-8.3H6V53.1z
				 M29.6,53.1h3v-8.3h-3V53.1z M53.2,53.1h3v-8.3h-3V53.1z M17.8,33.7h2.9v-6.9h-2.9V33.7z M41.4,33.7h3v-6.9h-3V33.7z M6,12.9h3
				V4.5H6V12.9z M29.6,12.9h3V4.5h-3V12.9z M53.2,12.9h3V4.5h-3V12.9z M11.9,26.7h2.9v-6.9h3v-6.9h2.9v6.9h3v6.9h2.9v6.9h-2.9v6.9
				h-3v6.9h-2.9v-6.9h-3v-6.9h-2.9V26.7z M35.5,26.7h3v-6.9h2.9v-6.9h3v6.9h2.9v6.9h3v6.9h-3v6.9h-2.9v6.9h-3v-6.9h-2.9v-6.9h-3
				V26.7z M41.4-1v6.9h-2.9v6.9h-3v6.9h-2.9v6.9h-3v-6.9h-3v-6.9h-2.9V5.9h-2.9V-1h-3v6.9h-3v6.9h-2.9v6.9h-3v6.9H6v6.9h3v6.9h3v6.9
				h2.9v6.9h3v6.9h2.9v-6.9h3v-6.9h2.9v-6.9h3v-6.9h2.9v6.9h3v6.9h2.9v6.9h3v6.9h3v-6.9h2.9v-6.9h3v-6.9h2.9v-6.9h3v-6.9h-2.9v-6.9
				h-3v-7h-3V5.9h-2.9V-1H41.4z"/>
		</g>
	</g>
	<g class="st0">
		<g>
			<defs>
				<rect id="SVGID_21_" x="-45" y="35.9" width="390" height="227.5"/>
			</defs>
			<clipPath id="SVGID_22_">
				<use xlink:href="#SVGID_21_"  style="display:none;overflow:visible;"/>
			</clipPath>
			<rect x="-45" y="-1.6" class="st26" width="130" height="302.6"/>
			<rect x="85" y="-1.6" class="st27" width="130" height="302.6"/>
			<rect x="215" y="-1.6" class="st28" width="130" height="302.6"/>
		</g>
	</g>
</g>
</svg>
