<svg xmlns="http://www.w3.org/2000/svg" viewBox="0 0 253.5 266.71"><defs><style>.cls-1{fill:#52b963;}</style></defs><title>Asset 17</title><g id="Layer_2" data-name="Layer 2"><g id="Layer_1-2" data-name="Layer 1"><path class="cls-1" d="M104.07,202a29.87,29.87,0,0,0-22-8.44c-4.52.22-9.07.16-13.48.11-1.85,0-3.7,0-5.55,0H30.69c-17.24,0-30.4,13-30.61,30.2C0,234.3,0,245,0,255.24l0,6.71c0,3.73,1,4.75,4.7,4.75H108.6c3.82,0,4.71-.88,4.73-4.67,0-5.69,0-11.48,0-17.08,0-6.81,0-13.84,0-20.77A30.06,30.06,0,0,0,104.07,202Zm2.9,44.19c0,3.45-.06,6.92-.06,10.43v3.5H86.71V240.57H80.13v19.5H33.33V240.52H27V260H8.81l-1-1.32a3.9,3.9,0,0,1-1.07-2.63c0-3.35,0-6.69-.07-10-.08-8.12-.16-16.51.12-24.79.36-11.09,10.06-20.64,21.17-20.87,14.32-.29,28.86-.27,42.92-.25,4.27,0,8.54,0,12.81,0h0c10.84,0,22.61,8,23.09,22.89C107.09,230.73,107,238.26,107,246.22Z"/><path class="cls-1" d="M59.36,188.55l.41-.54a5.31,5.31,0,0,1,3.18-2c14-3.48,23.3-14.65,23.65-28.47.36-14,.24-27.73.06-40.51-.15-10.42-8.15-16.71-15.79-16.77-5.75,0-11.17-.08-16.48-.08-3.89,0-7.72,0-11.58.07a15.64,15.64,0,0,0-11.14,4.88A17.86,17.86,0,0,0,26.79,118c.24,8.64.19,17.4.13,25.87,0,4-.05,8,0,12.06,0,15.37,9.56,27.18,24.91,30.84ZM33.89,114.1c.56-4.52,4.56-7.47,10.18-7.52,8.12-.08,16.77-.14,25.42,0,6.57.12,10.55,4.26,10.63,11.07,0,2.8,0,5.6,0,8.45,0,1.26,0,2.54,0,3.83v3.5H33.69v-3.5c0-1.5,0-3-.08-4.51A74.36,74.36,0,0,1,33.89,114.1Zm-.33,44.64c-.22-3.22-.23-6.44-.24-9.57,0-1.23,0-2.47,0-3.71a8.76,8.76,0,0,1,.16-1.64c0-.18,0-.38.08-.61l.39-3.06H80.53L80.2,144a62.38,62.38,0,0,0-.07,6.86c.15,5.62.31,11.43-2.91,17.23a23.76,23.76,0,0,1-20.63,12.19,22.68,22.68,0,0,1-4.89-.54A23.22,23.22,0,0,1,33.56,158.74Z"/><path class="cls-1" d="M192.08,148.43c-1.81-1.81-3.28-2.33-5.81.1a18.28,18.28,0,0,0-2,2.45c-.32.45-.63.86-.92,1.24l-2.44,3.1-15.69-15.76,2-2.45c29.31-35.67,22.24-80.89.11-107.13C143.08,1.21,103.84-7.92,69.72,7.26S20.65,54.7,20.47,79.76h6.08A77.12,77.12,0,0,1,103,6.52h.24a76.54,76.54,0,0,1,76.07,65c2.8,17.84-.26,34.53-9.08,49.59-13.95,23.83-35.16,36.93-63.09,39v6.38a83.59,83.59,0,0,0,50-19.45l2.45-2L174.51,160l-2.71,2.87c-.4.43-.88.94-1.38,1.45-4.67,4.71-4.67,5-.06,9.59l9.87,9.87q21.38,21.39,42.78,42.76a37.86,37.86,0,0,0,3.81,3.47,15.46,15.46,0,0,0,11.26,3.29c7.07-.75,11.86-4.37,14.22-10.78,2.45-6.65,1.15-12.59-3.86-17.65C229.71,185.91,211.09,167.36,192.08,148.43Zm54.43,70.92a10.22,10.22,0,0,1-5.93,6.75,9.81,9.81,0,0,1-3.66.71,10.44,10.44,0,0,1-5.17-1.4,14.42,14.42,0,0,1-3-2.26q-25.44-25.4-50.84-50.82a5.4,5.4,0,0,1-.91-1.21l-1.56-2.38L189,155.11l2.47,2.13.59.49c.49.41,1.06.88,1.61,1.42l32.2,32.2,16.87,16.86C244.36,209.84,248.17,213.64,246.51,219.35Z"/><path class="cls-1" d="M140.67,49.91a48.8,48.8,0,0,1,12.74,30c2.05.09,4.12.08,6.28.06-.39-13.27-6.27-26.45-16.44-36.61S120.18,27.48,107.07,27.1v6.31A49,49,0,0,1,140.67,49.91Z"/></g></g></svg>