<svg xmlns="http://www.w3.org/2000/svg" viewBox="0 0 319.23 181.12"><defs><style>.cls-1{fill:none;}.cls-2{fill:#52b963;}</style></defs><title>Asset 27</title><g id="Layer_2" data-name="Layer 2"><g id="Layer_1-2" data-name="Layer 1"><polygon class="cls-1" points="80.95 114.47 75 120.11 105.7 137.82 109.57 131 80.95 114.47"/><path class="cls-2" d="M316.45,177c-3.1,0-6.2,0-9.29,0H287.28l3.15-3,1.7-1.62a30.55,30.55,0,0,0,8.57-28.22,30.21,30.21,0,0,0-19.06-22.09c-3.7-1.38-4.4-3.37-4.39-6.55.09-32.88.07-66.31.06-98.64V11.71C277.3,4.43,273,.07,265.71,0,262.15,0,258.6,0,255,0c-5.23,0-10.64,0-16,0-2.93-.07-3,1.23-3,1.9a1.86,1.86,0,0,0,.43,1.47,3.61,3.61,0,0,0,2.62.67c3.79-.07,7.64-.06,11.37,0h5.63V5c0,.22,0,.4,0,.54a2,2,0,0,1-.12,1l-1,2.22c-8.21,19-16.7,38.55-25.13,57.79A4.27,4.27,0,0,1,226.67,69c-9.13.09-18.09.09-27.58.08H191l.26-1.21c1.08-4.91,2.13-9.78,3.19-14.65,2.89-13.32,5.88-27.1,9-40.55a10,10,0,0,1,8.68-7.92A86.48,86.48,0,0,1,222,4.07l1,0c2.47-.07,3.25-.23,3.29-1.93a2.12,2.12,0,0,0-.41-1.56c-.53-.53-1.71-.55-3-.53-1.77,0-3.54,0-5.3,0H215c-8.18,0-14,4.45-15.94,12.2-1.43,5.68-2.69,11.53-3.9,17.17-.44,2-.87,4-1.31,6-1.67,7.58-3.32,15.17-5,22.82L186.51,69h-.8c-.9,0-1.79,0-2.65-.06a28.88,28.88,0,0,0-5.63.18c-.56.1-1.23.83-1.88,1.53l-.3.33.15.13a27.64,27.64,0,0,0,2.54,2l.58-.06a7.83,7.83,0,0,1,.82,0l12.77,0c11.64,0,23.67,0,35.51.1,3.09,0,4.53-.88,5.77-3.79,8-18.73,16.31-37.7,24.34-56l2.35-5.37c.69-1.57,1.47-3.15,2.79-3.66a7.44,7.44,0,0,1,6.81.75,8,8,0,0,1,3.61,6.3c.12,2.57.1,5.17.07,7.69,0,1.08,0,2.15,0,3.23V69h-1c-1.3,0-2.56,0-3.78,0A70.8,70.8,0,0,1,261,69c-7.06-.62-12.46,1.92-17.48,8.24-6.54,8.24-13.35,16.47-19.95,24.43-4.14,5-8.43,10.18-12.6,15.3a7.86,7.86,0,0,1-6.8,3.15c-8.19-.09-16.52-.08-24.58-.08q-7.58,0-15.16,0c-1.23,0-2.47.07-3,.64a2,2,0,0,0-.41,1.48c0,1.33.52,1.94,3.34,1.9,6.09,0,12.28,0,18.27,0h30.81c18.57,0,37.77,0,56.66,0a27.4,27.4,0,0,1,21.18,9.65,26.61,26.61,0,0,1,5.47,21.94C294.36,168.18,283.32,177,269.85,177c-17.35,0-35,0-52.06,0q-19.62,0-39.24,0c-13.83,0-28.13,0-42.19-.05-14.51-.08-25.85-10.55-27-24.89-1-13.35,8.92-25.47,22.69-27.61a66.62,66.62,0,0,1,10.83-.48c1.42,0,2.85,0,4.26,0h.26c2.29,0,3-.18,3.09-1.84a2.14,2.14,0,0,0-.4-1.6c-.52-.54-1.73-.57-2.92-.56-4,0-8.09,0-12.32,0H128.1l.47-1.34c1.25-3.53,2.46-7,3.67-10.51,3-8.68,5.86-16.88,9-25.13,1.94-5,6.25-8.36,12.14-9.42a24.73,24.73,0,0,1,3.51-.31,19.45,19.45,0,0,0,3.83-.42,4.7,4.7,0,0,0,1.8-1.47l.35-.37-.36-.46c-.47-.59-1.1-1.41-1.48-1.46-11.34-1.63-21.15,4.4-25,15.38Q132.4,95,128.81,105.59q-2.15,6.25-4.3,12.5c-1.44,4.17-3.36,6.65-5.85,7.58s-5.44.33-9.12-1.8L82.13,108l1-.92c1.71-1.57,3.38-3.07,5-4.54,3.66-3.3,7.11-6.42,10.43-9.67,3.09-3,3.09-5.91,0-9.09-2-2-4.08-4.06-6.12-6-1.26-1.22-2.53-2.43-3.79-3.67L88,73.52c-2.51-2.48-4-4-5-4s-2.49,1.55-4.94,4.09l-.46.47a2.84,2.84,0,0,1-.73.51l-.76.43-.59.35L75,75c-.66-.52-1.36-1-2.08-1.56a36.8,36.8,0,0,1-4.86-4,20.06,20.06,0,0,0-33.56,6.84c-.1.27-.18.58-.27.9-.3,1.09-.61,2.22-1.57,2.64A16.07,16.07,0,0,0,28.28,83c-2.59,2.44-5.52,5.21-10.45,4.2-1.25-.25-3.25,1-4.71,1.83C8.19,92,6,96.54,6.29,103l.06,1.33L5.05,104a5.72,5.72,0,0,1-.66-.19,2.78,2.78,0,0,0-.56-.14c-1.2.12-2.42.3-3.61.46l-.22,0,.15.64a6.66,6.66,0,0,0,1.09,2.91,109.15,109.15,0,0,0,10.61,10.4l1.85,1.6c2.92,2.56,5.95,5.2,9.3,6.33,15.18,5.1,29.4,4.62,42.27-1.42a5.35,5.35,0,0,1,5.64.2c9.29,5.45,19.81,11.62,30.16,17.36,2.87,1.6,4.61,3.42,4.38,7.57-.5,8.78,2.78,16.62,9.73,23.29.44.42.85.88,1.31,1.41l.83.93,1.51,1.67h-3.26a7.81,7.81,0,0,0-1,0,16.66,16.66,0,0,1-1.87,0l-1,0a2.87,2.87,0,0,0-1.92.45,2,2,0,0,0-.45,1.46,2.28,2.28,0,0,0,.48,1.73c.62.6,2.06.49,3.33.4.52,0,1-.08,1.47-.08h0q85.28.06,170.55,0h29.63c.53,0,1.07,0,1.6,0a3.28,3.28,0,0,0,2.36-.53,2.44,2.44,0,0,0,.06-2.85A3.27,3.27,0,0,0,316.45,177Zm-43.28-57.26H213.89l9.58-11.61,6.88-8.32c5.87-7.1,12-14.45,17.86-21.73A12.9,12.9,0,0,1,259.05,73c2.91.06,5.81.05,8.88,0h5.24ZM10.4,100.13A9.89,9.89,0,0,1,14.6,93,10.12,10.12,0,0,1,23,91.61c2.29.6,3.43.16,4.89-1.86A20.79,20.79,0,0,1,32,85.81c.85-.68,1.73-1.39,2.5-2.14l.52-.5c1.09-1,2.32-2.22,2.63-3.38,1.9-7.17,6.4-11.38,13.37-12.5,6-1,11.24,1.34,15.56,6.83A15.73,15.73,0,0,0,69.93,77c.63.45,1.28.9,1.89,1.39l.85.68-.74.79c-1,1.1-2.06,2.22-3.09,3.34-9,9.79-18.33,19.92-32.78,22.75-6,1.17-12.21,1.17-18.24,1.18h-2a5.32,5.32,0,0,1-4.16-1.61C10.57,104.26,10.14,102.46,10.4,100.13Zm58.22,17.16c-7.12,6.45-16,8-24.4,8-2.16,0-4.28-.1-6.35-.25-7.55-.52-17.08-2.2-23.94-10.59l-.62-.74-2-2.34h2.17c1.9,0,3.76,0,5.57.08a94.39,94.39,0,0,0,11.08-.16c11.74-1.12,22.35-6.15,31.56-14.94,4.82-4.59,9.63-9.19,14.56-13.9l7.66-7.32L95.4,87.51l.41-.09.36.65a1.23,1.23,0,0,1,0,1L96,91l-.79-.81C92.8,92.73,90.37,95.31,88,97.8,81.82,104.36,75.41,111.13,68.62,117.29Zm3.06,3.21,9-8.51,31.62,18.27-5.83,10.3Z"/><path class="cls-2" d="M127.7,139.45a15.67,15.67,0,0,0-4.36,11.16c0,8.91,6.56,15.39,15.59,15.39H270.52a16.06,16.06,0,0,0,11.38-4.37,15.48,15.48,0,0,0,4.41-11.21c0-8.92-6.56-15.39-15.59-15.39h-132A15.37,15.37,0,0,0,127.7,139.45Zm142.76-.39h.06a12,12,0,0,1,11.72,11.35c.09,6-5.3,11.41-11.55,11.56h-.22A10.87,10.87,0,0,1,263,158.8a11.7,11.7,0,0,1-3.68-8.17,11.53,11.53,0,0,1,3.41-8.13A11.06,11.06,0,0,1,270.46,139.06Zm-99.57.13.2.74a10.53,10.53,0,0,1,.26,2.14c.05,1,.1,2.12.57,2.51a2.07,2.07,0,0,0,1.41.18c.51-.07,1.36-1.44,2-2.54a28.83,28.83,0,0,1,1.74-2.61l.3-.4H190.1l4.19,5.2,2.8-3.3-1.75-1.93h17.57l.17.79a12.37,12.37,0,0,1,.23,2c.06,1.06.13,2.16.59,2.55a1.83,1.83,0,0,0,1.36.2c.53-.06,1.41-1.44,2-2.36.24-.38.49-.77.74-1.14l-1.79-2H234l.18.77a10.73,10.73,0,0,1,.21,2c0,1,.09,2.16.57,2.56a2.09,2.09,0,0,0,1.44.18c.5-.08,1.33-1.45,2-2.55.5-.81,1.06-1.73,1.71-2.6l.3-.4h19.09l-1,1.53c-4.27,6.73-4.24,13,.09,19.59l1,1.55H246.67l-4.36-5.26-2.63,3.12,1.69,2h-17.7l-.15-.81a13.15,13.15,0,0,1-.19-1.89c-.05-1.07-.11-2.17-.58-2.56a2,2,0,0,0-1.4-.2c-.5.06-1.37,1.42-2.06,2.51a31.26,31.26,0,0,1-1.81,2.63l-.3.38H204.46l-.3-.38c-.64-.82-1.21-1.71-1.71-2.5-.72-1.14-1.62-2.55-2.19-2.63a1.78,1.78,0,0,0-1.36.2c-.51.43-.55,1.71-.59,2.85,0,.54,0,1.1-.1,1.63l-.11.87H183.68l-4.38-5.23-2.62,3.15,1.7,2H150.24l1-1.54c4.2-6.57,4.17-12.94-.1-19.48l-1-1.55Zm-24.09,3.24a11.12,11.12,0,0,1-.13,16.3,10.92,10.92,0,0,1-7.49,3.25H139c-6.23-.11-11.66-5.49-11.61-11.52s5.52-11.38,11.72-11.4A11,11,0,0,1,146.8,142.43Z"/><path class="cls-2" d="M100.38,177.18a46.26,46.26,0,0,0-7.07-.18c-1,0-1.93,0-2.9,0h0l-3.15,0a70.5,70.5,0,0,0-8,.16c-.43,0-1.11.77-1.66,1.35-.11.13-.23.25-.35.38l.42.48c.46.55,1.23,1.47,1.58,1.48,6.77.27,13.92.27,21.27,0,.36,0,1.09-.81,1.57-1.33l.37-.39-.39-.46C101.54,178.05,100.84,177.24,100.38,177.18Z"/><path class="cls-2" d="M160.18,89.48c0-.41-.78-1.13-1.33-1.65l-.37-.36q-.21.19-.42.36c-.73.62-1.48,1.26-1.6,1.82a18.7,18.7,0,0,0-.18,4.71c0,.73.07,1.45.07,2.16s0,1.44-.07,2.16a18.78,18.78,0,0,0,.18,4.72c.12.55.87,1.19,1.6,1.81l.42.36.37-.36c.55-.52,1.3-1.23,1.33-1.64A110.41,110.41,0,0,0,160.18,89.48Z"/><path class="cls-2" d="M171.35,96.14c0,.77,0,1.55,0,2.32a24.81,24.81,0,0,0,.18,5.35,3.74,3.74,0,0,0,2.14,2,3.94,3.94,0,0,0,1.55-1.8,131.72,131.72,0,0,0,0-14.87,4,4,0,0,0-1.54-1.81,3.79,3.79,0,0,0-2.16,2,20,20,0,0,0-.18,4.74C171.32,94.72,171.35,95.43,171.35,96.14Z"/><path class="cls-2" d="M186.34,96.23c0,.71,0,1.43-.06,2.15a20.05,20.05,0,0,0,.17,4.75,5.27,5.27,0,0,0,1.49,2.05l.33.35.42-.37c.61-.53,1.45-1.26,1.48-1.68a103.43,103.43,0,0,0,0-14.09c0-.37-.8-1.06-1.36-1.57l-.39-.35-.39.37a5,5,0,0,0-1.59,1.9,16.87,16.87,0,0,0-.17,4.42C186.31,94.85,186.34,95.54,186.34,96.23Z"/><path class="cls-2" d="M68.92,177.19a74.66,74.66,0,0,0-12.51,0,3.83,3.83,0,0,0-1.83,2.13,4.35,4.35,0,0,0,2,1.57,16.94,16.94,0,0,0,4.19.16c.64,0,1.29-.06,1.92-.06h0c.64,0,1.28,0,1.92.06a16.94,16.94,0,0,0,4.19-.16c.45-.1,1-.77,1.55-1.37l.31-.36c-.13-.17-.26-.34-.38-.52C69.9,178.15,69.21,177.23,68.92,177.19Z"/><path class="cls-2" d="M265.57,100.53c-6.82,0-14.18,0-22.5,0a3.09,3.09,0,0,0-2.38.73c-.09.1-.34.42-.17,1.21a4,4,0,0,0,2.68,1.91,67.63,67.63,0,0,0,7.93.16l3.2,0c1.07,0,2.13,0,3.2,0a67.63,67.63,0,0,0,7.93-.16,4,4,0,0,0,2.67-1.92,1.3,1.3,0,0,0-.17-1.21A3.17,3.17,0,0,0,265.57,100.53Z"/><path class="cls-2" d="M252.58,90.3a4.05,4.05,0,0,0,2.18,2.11,11.11,11.11,0,0,0,3.55.16l.76,0v0h1c.64,0,1.28,0,1.93.05a16,16,0,0,0,4.19-.16,3.34,3.34,0,0,0,1.89-1.82,3.33,3.33,0,0,0-1.6-1.86,77.38,77.38,0,0,0-12.18,0A3.93,3.93,0,0,0,252.58,90.3Z"/><path class="cls-2" d="M47,83.27a3.55,3.55,0,0,0,2.22-1.87,7,7,0,0,1,5.69-5.53c.33-.08.88-1.05,1.21-1.63l.3-.5L56,73.37c-.65-.55-1.39-1.18-1.9-1.2a7.64,7.64,0,0,0-5.58,2.36,10.28,10.28,0,0,0-3.11,7.18l.25.3C45.88,82.32,46.66,83.25,47,83.27Z"/><path class="cls-2" d="M34,96.86a3.7,3.7,0,0,0,1.58-2.34,4.19,4.19,0,0,0-2.16-1.37,7.49,7.49,0,0,0-5.69,2.22,10.4,10.4,0,0,0-3.3,7.36l.23.27c.4.46,1.07,1.24,1.55,1.29a3.17,3.17,0,0,0,2-1.49A6.93,6.93,0,0,1,34,96.86Z"/><path class="cls-2" d="M139.34,153.89h.06c2.68,0,3.16-2.07,3.21-3.3.09-2.38-1-3.54-3.31-3.67-2.21.06-3.25,1.14-3.27,3.41S137.12,153.86,139.34,153.89Z"/><path class="cls-2" d="M271,153.89h0c2.07,0,3.17-1.09,3.27-3.23.12-2.41-.87-3.58-3.1-3.71s-3.2.9-3.58,3.39C268,153.5,269.75,153.88,271,153.89Z"/></g></g></svg>