<svg xmlns="http://www.w3.org/2000/svg" viewBox="0 0 383.92 373.67"><defs><style>.cls-1{fill:#52ba63;}</style></defs><title>Asset 78</title><g id="Layer_2" data-name="Layer 2"><g id="Layer_1-2" data-name="Layer 1"><path class="cls-1" d="M0,336.86v-300C2.18,31,5.07,25.53,9.91,21.34c2.09-1.82,4.38-2.37,6.87-1a5.23,5.23,0,0,1,2.58,6.41,8.86,8.86,0,0,1-2.25,3.34c-8.18,8.73-7.93,16.52,1.61,23.8a63,63,0,0,0,15.85,9c29.65,11,59.77,11.32,90.05,2.62,9.18-2.64,17.89-6.43,24.84-13.27,7.16-7,7.28-14.72,0-21.52a46.78,46.78,0,0,0-12-8.21C110.88,10.21,83,9.17,54.66,14.05c-4.9.84-9.68,2.35-14.5,3.63C35.94,18.8,33.1,17.6,32,14.11c-1-3.22.7-5.88,4.66-7.24.71-.24,1.42-.48,2.13-.69,20.9-6.26,42.24-7.4,63.78-5C117,2.71,131.09,6.07,144.06,13c8.74,4.65,16.62,10.35,20.41,20,.92,2.34,2.11,2.89,4.39,2.89,12.87,0,25.75,0,38.62.26,13.73.22,27.43.66,40.53-4.8,1.72-.71,4.45.07,6.34.95a105.62,105.62,0,0,1,11.42,6.39c2.21,1.38,4.23,1.78,6.63.64,9.53-4.54,19.44-4.18,29.63-2.73,11.48,1.64,23,2.5,34.67.6a146.62,146.62,0,0,1,39.92-1.33c6.29.71,8.56,4.86,5.81,10.6-2.59,5.39-5.18,10.79-8,16.06a6.19,6.19,0,0,0,.07,6.56c2.72,5,5,10.32,7.75,15.36a10.49,10.49,0,0,1,.08,11c-2.92,5.37-5.61,10.87-8.11,16.45a6.49,6.49,0,0,0,0,4.75c2.45,5.47,5.05,10.88,7.94,16.12a10.71,10.71,0,0,1,.07,11.29c-2.88,5.25-5.51,10.64-7.93,16.11a7,7,0,0,0,0,5.07c2.59,5.81,5.45,11.5,8.39,17.14a9.22,9.22,0,0,1,0,9.24c-2.77,5.3-5.21,10.78-8.05,16.05a6.44,6.44,0,0,0-.07,6.9,159.87,159.87,0,0,1,8.22,16.79,12,12,0,0,1,0,8.1,157.93,157.93,0,0,1-8.22,16.79,6.5,6.5,0,0,0,.09,6.93c2.9,5.38,5.41,11,8.2,16.4a8.75,8.75,0,0,1,0,8.57c-2.9,5.66-5.58,11.43-8.55,17.05a5.65,5.65,0,0,0,0,5.89c2.56,4.85,5,9.78,7.36,14.72,2.48,5.15,1,8.7-4.37,10.51s-10.89,3.59-16.39,5.2a13,13,0,0,1-5.14.47c-12.75-1.58-25.55-3-38.21-5.08-8.63-1.45-16.71-1.18-24.65,2.73a16,16,0,0,1-7.52,1.86c-17.21-1-34.39-2.36-51.59-3.54-9.65-.66-19.33-2.74-28.92.53-6.58,2.25-13.31,1.54-20,1.08-5.48-.39-11-.84-16.45-1.06-1.12,0-3,.54-3.3,1.31-4.23,10.77-12.86,16.94-22.65,21.83-14.27,7.13-29.61,10.29-45.4,11.51-22,1.68-43.68,0-64.54-7.75C18.13,360,5.28,352.69,0,336.86Zm369.29-10.45c-2.07-4.2-4-8.52-6.3-12.64-2.15-3.84-2.29-7.34-.1-11.28,2.85-5.11,5.15-10.53,7.89-15.71a5.51,5.51,0,0,0,.06-5.86c-3-5.49-5.53-11.18-8.39-16.72a9.33,9.33,0,0,1,0-9.26c2.92-5.64,5.82-11.31,8.42-17.1a7,7,0,0,0,0-5.08c-2.47-5.57-5.17-11.07-8.08-16.44a10.2,10.2,0,0,1,.07-10.59c2.9-5.37,5.6-10.87,8.1-16.45a6.42,6.42,0,0,0,0-4.74c-2.68-5.91-5.63-11.69-8.6-17.46a9.09,9.09,0,0,1,0-8.92c2.9-5.65,5.59-11.42,8.56-17a5.27,5.27,0,0,0-.07-5.53c-2.73-5.18-5.07-10.57-7.88-15.7-2.12-3.87-2.26-7.35-.08-11.28,3-5.34,5.6-10.87,8.12-16.43a6,6,0,0,0,0-4.42,124.43,124.43,0,0,0-7.17-14.39c-3.24-5.31-3.26-10.11,0-15.35,2.14-3.4,3.65-7.2,6-12-9.09.59-16.95.77-24.72,1.69-13.54,1.58-27,2.92-40.61.55-10.77-1.87-21.53-2.25-31.75,2.8a2.19,2.19,0,0,1-1.06.35c-2.62-.24-5.48,0-7.8-.94-4-1.69-7.56-4.37-11.51-6.22a10.19,10.19,0,0,0-5.85-.7c-5.47,1-10.85,3.51-16.3,3.62-20.11.42-40.24.1-60.37.08-1.08,0-2.17.1-3.63.18v4.24q0,18.93,0,37.87c0,4.89-2.16,7.61-5.83,7.58s-5.69-2.68-5.72-7.68c0-7.13,0-14.25,0-21.37v-5c-17.42,13.09-37.09,17.05-57.1,19.37v279.3c4-.56,7.66-1,11.33-1.62,13.37-2.38,26.26-6,37.34-14.37,5.72-4.31,8.57-9.7,8.55-17.26-.2-69-.12-138-.11-207a27.85,27.85,0,0,1,.29-4.84,5.24,5.24,0,0,1,5.22-4.56,5.3,5.3,0,0,1,5.71,4.41,22.27,22.27,0,0,1,.32,4.84q0,100.29,0,200.6v4.86c4.11.28,7.71.5,11.29.78,10.58.83,21.12,1.69,31.52-1.71a23.73,23.73,0,0,1,8.86-.81c19.43,1.36,38.88,2.64,58.26,4.54,6.75.67,12.72-.56,18.9-2.83,4-1.46,8.47-2.82,12.58-2.45,12.54,1.12,25,2.91,37.48,4.8C353.46,330.42,361.48,331.06,369.29,326.41Zm-335,27.39v-4.66q0-32.43,0-64.86a26.89,26.89,0,0,1,.19-4.12c.42-2.85,2.38-4.84,5-4.53,2,.23,4.05,1.91,5.52,3.48.82.88.65,2.84.65,4.31q0,34.86,0,69.74v4.59l11.19,2.43v-274a9.17,9.17,0,0,0-.07-3c-.37-1-1.1-2.33-1.93-2.56-2.86-.8-5.83-1.18-9.19-1.8v173a17.45,17.45,0,0,1-.2,4.1c-.76,3-2.72,4.75-6,4.51-3-.23-4.76-2-5.1-5a41.94,41.94,0,0,1-.12-4.49q0-80.06,0-160.1c0-4.38.09-8.75-.07-13.12a3.89,3.89,0,0,0-1.55-2.89c-7-3.64-14.14-7.1-21.39-10.68V66.8q0,131.8,0,263.59a16.43,16.43,0,0,0,4.48,11.55C20.59,347.33,26.81,350.66,34.25,353.8ZM68.42,82.89v279H85.73v-279Z"/><path class="cls-1" d="M83.26,64.78c-16.4-.75-32.43-2.69-47.6-9.16a57,57,0,0,1-9.22-4.91c-7.66-5.08-7.57-13.5.14-18.62,8.45-5.62,18-8.62,27.8-10.49C78.82,17,103,17.54,126.72,25.8a63.36,63.36,0,0,1,13,6.48c7.69,4.89,7.55,13.53-.09,18.59-8.57,5.68-18.19,8.82-28.18,10.52C102.13,63,92.66,63.68,83.26,64.78Zm49.48-23.16c-22.65-16-80.9-14.5-99.07.09C54.45,56.35,110.21,56.4,132.74,41.62Z"/><path class="cls-1" d="M250.75,158l-21.39-33.05a15,15,0,0,1-1.77-2.86c-1-2.86-.68-5.53,2.15-7.19s5.27-1.12,7.37,1.29a14.73,14.73,0,0,1,1.28,1.84q10.81,16.64,21.61,33.3c3.74,5.8,3.39,9.69-1.25,14.83-3.77,4.17-7.33,8.56-11.45,12.37a15,15,0,0,1-7.73,3.79c-8.67,1.08-17.41,1.45-26.11,2.26a10.3,10.3,0,0,0-4.74,1.72c-7.33,5.2-14.55,10.56-21.81,15.85-2.38,1.74-5.18,2.19-7.17.06-1.29-1.39-1.78-3.93-1.81-6,0-1.14,1.45-2.56,2.58-3.41,7.9-5.9,15.63-12.12,24-17.3,3.43-2.13,8.26-2.24,12.51-2.75,6.19-.73,12.44-1.14,18.67-1.39a7.21,7.21,0,0,0,5.66-2.92C244.32,165,247.49,161.6,250.75,158Z"/><path class="cls-1" d="M312.87,182.2c-6.26-9.68-12.33-19-18.29-28.33-2.38-3.72-1.23-7.74,2.44-8.93a5.5,5.5,0,0,1,6.82,2.43c6.66,10.25,13.36,20.46,19.9,30.79,2.33,3.68,1.65,7.74-1.58,10.89-5,4.87-10.14,9.61-15.52,14.69,5.14,6.61,10.22,13.17,15.33,19.71,4.6,5.91,9.24,11.78,13.81,17.71,2.58,3.35,2.38,6.83-.38,8.93s-5.94,1.46-8.67-2q-14.87-19-29.67-38.1c-4.25-5.49-3.89-9.15,1.21-14Z"/><path class="cls-1" d="M288.34,295l25,11.13a22.78,22.78,0,0,1,3,1.47c2.71,1.76,3.46,4.36,2.12,7.16s-3.83,4.21-6.84,2.92c-10.54-4.53-21.07-9.08-31.45-14-4.74-2.23-5.83-7.4-3-12.2,3.64-6.26,7.19-12.59,11.28-18.55,2.29-3.32,1.83-5.48-.49-8.44-5.4-6.87-10.44-14-15.62-21.07a24.18,24.18,0,0,1-1.5-2.14,5.72,5.72,0,0,1,1.3-7.7,5.49,5.49,0,0,1,7.7,1q11,14.68,21.73,29.6c2.22,3.09,1.48,6.38-.41,9.49C297,280.6,292.8,287.54,288.34,295Z"/><path class="cls-1" d="M220.75,262.66c-3.25-3.86-6.26-7.52-9.37-11.09-3-3.42-3.45-7-1.24-11,3.37-6.12,6.62-12.31,10-18.43,2.06-3.74,5.24-4.94,8.31-3.28s3.66,5,1.63,8.81c-2.57,4.85-5.13,9.7-7.87,14.46-1.16,2-1.26,3.43.47,5.23,2.68,2.79,5.06,5.85,7.53,8.84,3.7,4.46,3.85,8,.32,12.46q-15.88,19.94-31.87,39.78c-2.58,3.22-5.75,3.81-8.46,1.76s-3-5.6-.37-8.9C200,288.5,210.26,275.75,220.75,262.66Z"/><path class="cls-1" d="M281.25,97.71C289.64,91.6,297.61,85.8,305.57,80c2.21-1.61,4.83-2.4,6.86-.5a9.36,9.36,0,0,1,2.41,5.72c.09,1.23-1.3,3-2.49,3.85Q299,99,285.44,108.68c-5,3.55-10.35,2.2-13.18-3.27-4.51-8.75-8.79-17.61-13.38-26.32a7.9,7.9,0,0,0-3.95-3.34c-4.67-1.7-9.5-3-14.25-4.48-3.85-1.22-5.59-4-4.58-7.28s3.88-4.77,7.83-3.63c6,1.73,12,3.34,17.78,5.65a13.19,13.19,0,0,1,6.07,5.52c4.12,7.4,7.72,15.09,11.54,22.65C279.87,95.27,280.49,96.32,281.25,97.71Z"/><path class="cls-1" d="M180.42,155c-1.88-1.5-4.12-2.42-4.63-3.92a8,8,0,0,1,.55-6.17,161.84,161.84,0,0,1,12.23-17c3.66-4.32,4.48-7.9.68-12.54-2.42-3-4-6.6-6-9.92a8.68,8.68,0,0,1,.33-10.17c5.93-8.49,11.82-17,17.78-25.5,2.29-3.25,5.64-4,8.36-2.12s3.3,5.14,1,8.55c-4.93,7.22-9.87,14.43-15,21.51-1.52,2.11-1.82,3.69-.33,6,2.8,4.28,5.23,8.8,7.85,13.19a8.81,8.81,0,0,1-.4,10.49c-5.77,8-11.46,16.06-17.37,24C184.37,152.76,182.43,153.56,180.42,155Z"/><path class="cls-1" d="M330.07,115.81c3.22,3.37,6.45,6.21,9,9.58a17.5,17.5,0,0,1,3.34,8c.54,4.56.21,9.23.13,13.85-.08,4.39-2.22,6.85-5.75,6.86s-5.64-2.48-5.8-6.83a5.24,5.24,0,0,1,0-1.12c1.8-9.56-2.15-16.53-9.17-22.77-6.29-5.59-5.83-10,.27-15.68,7.26-6.69,14.46-13.43,21.74-20.1,3.51-3.22,6.66-3.35,9.13-.53,2.3,2.62,1.85,5.78-1.42,8.85C344.51,102.46,337.44,109,330.07,115.81Z"/></g></g></svg>