<svg xmlns="http://www.w3.org/2000/svg" viewBox="0 0 375.96 240.79"><defs><style>.cls-1{fill:none;}.cls-2{fill:#52b963;}</style></defs><title>Asset 11</title><g id="Layer_2" data-name="Layer 2"><g id="Layer_1-2" data-name="Layer 1"><path class="cls-1" d="M287.81,193.42h0c-8.69,0-16.32,7.39-16.33,15.83a15.93,15.93,0,0,0,16.11,16.23,15.8,15.8,0,0,0,15.89-16C303.44,200.77,296.27,193.43,287.81,193.42Zm6.63,22.84a9.72,9.72,0,0,1-6.9,2.92h-.07a9.74,9.74,0,0,1-.17-19.47,9.52,9.52,0,0,1,6.93,2.8,9.73,9.73,0,0,1,3,6.89A9.59,9.59,0,0,1,294.44,216.26Z"/><path class="cls-1" d="M164.91,32.79A38.78,38.78,0,0,0,147.63,29a56.24,56.24,0,0,0-7.83.58,46.58,46.58,0,0,0-24,10.51c-8.31,7-16.74,14.1-24.89,21l-.35.3,95.23-16.69A222.47,222.47,0,0,0,164.91,32.79Z"/><path class="cls-1" d="M331.41,151.77c0-6.17,4.58-11,11-11.51,1.27-.1,2.51-.12,3.73-.1A11.14,11.14,0,0,0,343.4,133a63,63,0,0,0-6.2-6.72,4.19,4.19,0,0,0-2.15-1c-8.42-.13-17-.12-25.31-.1-3,0-6.06,0-9.1,0-15.06,0-24.51-9.34-24.66-24.36-.05-5.11,0-10.29,0-15.3,0-3.09,0-6.19,0-9.28H263.57V170.1h82.25v-6.74c-1.12,0-2.22,0-3.36-.1A11.59,11.59,0,0,1,331.41,151.77Z"/><path class="cls-1" d="M14.81,193.54c0,.36.08.78.11,1.1a14.53,14.53,0,0,1,.11,3.58c0,.33-.11.93-.14,1.43,3.79.14,7.62.11,11.34.07l2.17,0,2.54-6.34-1,0C24.73,193.25,19.77,193.17,14.81,193.54Z"/><path class="cls-1" d="M121.82,193.42h-.23a16.42,16.42,0,0,0-15.9,16.28,15.63,15.63,0,0,0,4.67,11.16,16,16,0,0,0,27.28-11.47A16.21,16.21,0,0,0,132.73,198,15.52,15.52,0,0,0,121.82,193.42Zm6.83,22.84a9.68,9.68,0,0,1-6.9,2.92h-.07a9.73,9.73,0,0,1-.18-19.46,9.74,9.74,0,0,1,7.15,16.54Z"/><path class="cls-1" d="M66.31,193.42h-.23a16,16,0,0,0,.34,32.05h.13A16,16,0,0,0,78,220.65a15.59,15.59,0,0,0,4.52-11.16,16.13,16.13,0,0,0-5-11.42A16,16,0,0,0,66.31,193.42Zm7,22.84a9.72,9.72,0,0,1-6.9,2.92h-.07a9.74,9.74,0,0,1-.17-19.47,9.87,9.87,0,0,1,9.91,9.69A9.55,9.55,0,0,1,73.36,216.26Z"/><path class="cls-1" d="M280,23.16a3.32,3.32,0,0,0,.74-.14c1.48-2.4,2.88-4.92,4.32-7.54l-6.3,0c-9.81-.06-19.08-.12-28.45.14a20.49,20.49,0,0,0-19.35,17,78.46,78.46,0,0,0-.66,12.15c0,1.62,0,3.24,0,4.85-.19,7.36-3.54,11.36-10.55,12.61C190.35,67.37,160.57,72.6,135,77.09L99.65,83.27q-25.82,4.52-51.62,9c-3.08.54-3.38.7-3.91,4.3q-2.35,15.73-4.74,31.47-2,13.31-4,26.61c-.67,4.52-1.32,9.15-1.94,13.63l-.24,1.74h25.2q.72-5.37,1.43-10.72c1.44-10.76,2.93-21.89,4.33-32.79,1.67-13.06,8.76-21.34,20-23.31,11-1.93,22.19-3.72,33.37-5.33a18.35,18.35,0,0,1,15.38,5,17.6,17.6,0,0,1,5.49,14.52c-.73,7.21-1.65,14.5-2.53,21.55-.44,3.49-.88,7-1.3,10.48-.68,5.68-1.35,11.35-2,17.18l-.43,3.66h.5c5.38,0,10.5,0,15.62-.06.52-3.51,1-7.09,1.43-10.56q.36-2.76.73-5.52.82-6.19,1.63-12.4c1.34-10.31,2.73-21,4.4-31.44,1.58-9.85,8.21-16.61,18.21-18.54,9.67-1.87,20.25-3.59,32.33-5.26,7.22-1,13.21.59,17.34,4.59,2.88,2.8,6.1,8.06,5.09,17.24-1.12,10.24-2.45,20.6-3.74,30.63-.62,4.79-1.24,9.58-1.83,14.38S222.57,163.08,222,168l-.26,2.15h18.57v-133c0-9.68,4.16-13.83,13.88-13.86,3,0,6.05,0,9.08,0C268.74,23.23,274.42,23.24,280,23.16Z"/><path class="cls-1" d="M182.3,113.83a10.09,10.09,0,0,0-3.24.75,14.68,14.68,0,0,0-.63,3.34c-1,8.19-2.16,16.5-3.23,24.53q-.87,6.47-1.73,13c-.58,4.33-1.13,8.67-1.7,13.12l-.24,1.83h2.14c8.48,0,16.52,0,24.64-.11,2.3-18,4.47-35.59,6.77-54.24l.73-5.91-6.29,1C193.89,112,188.06,113,182.3,113.83Z"/><path class="cls-1" d="M113.42,131.82c.41-3.28.76-6.53,1.12-10l-2.86.45c-7.66,1.19-15.58,2.42-23.35,3.7-.46.08-.66.11-.8,1.21q-1.38,10.32-2.81,20.64c-1.15,8.37-2.33,17-3.45,25.54,3.73,2.43,7.53,4.77,11.21,7l1.55,1,2-1.29c3.76-2.37,7.64-4.83,11.72-7.09a7.05,7.05,0,0,0,.62-.38c0-.07,0-.18,0-.34,1-8.88,2.16-17.89,3.25-26.61Q112.57,138.75,113.42,131.82Z"/><path class="cls-1" d="M361,193.43l-1.11,0q-18.44,0-36.87,0l2.53,6.3h30.6c1.86,0,3.78,0,4.8-.12.11-1,.1-3,.08-4.89C361,194.15,361,193.74,361,193.43Z"/><path class="cls-1" d="M299.19,102.13a1.52,1.52,0,0,0,.34,0c7.69,0,15.27,0,23.3,0h3.83l-.59-2.33C324,91.71,322.09,84,320,76.23a2.15,2.15,0,0,0-.34-.17c-5.91-.16-11.8-.14-18-.12h-2.41v4.57c0,7.3,0,14.39,0,21.48Z"/><path class="cls-2" d="M376,192.73c.05-6.54-3.21-11.34-9.17-13.52-3.72-1.36-5.43-3.85-5.4-7.85.05-4.84,0-9.79,0-14.57s0-9.28,0-13.92c.08-8.9-2.7-16.07-8.47-21.93l-.33-.33a56.37,56.37,0,0,1-5.31-5.92,20.11,20.11,0,0,1-3.54-6.84c-1.76-6.7-3.46-13.52-5.11-20.12-1.13-4.54-2.26-9.08-3.42-13.61-2.39-9.36-7.51-13.35-17.12-13.35H255.58V38.36h11.85c6.51,0,12.66,0,19,0a4.59,4.59,0,0,0,4.69-2.71q3.53-6.39,7.11-12.75c3.06-5.46,6.23-11.1,9.27-16.67,1-1.73,1.12-3.34.49-4.42S305.78.12,303.78.11l-5.73,0C283,0,267.41-.08,252.12.15,235.79.39,222,10.41,217.07,25.67a57.7,57.7,0,0,0-1.72,7.84c-.24,1.39-.49,2.8-.78,4.21l-1.09,5.38-6-3.37c-1-.53-2-1.08-2.94-1.66-3-1.78-6-3.64-8.9-5.43-6.13-3.8-12.47-7.73-18.92-11-24.56-12.37-47.67-10.49-68.67,5.56C95.83,36.58,83.92,46.84,72.39,56.77c-6.23,5.37-12.68,10.92-19.12,16.28a23.61,23.61,0,0,1-9.44,4.64C36,79.55,30.58,85,29.41,92.33,28.16,100.18,27,108.2,25.88,116q-.94,6.49-1.9,13-2.39,16-4.81,32l-2.49,16.52L14,178l-1.39.28c-.82.18-1.58.33-2.34.52-4.46,1.1-7.46,4-10.25,10v15.58c3.48,8.09,9.39,11.3,19,10.41a80.37,80.37,0,0,1,9.41-.14c1.3,0,2.59.06,3.87.06h2.88l.91,2.72c4.29,12.73,12.2,20.12,24.18,22.59,11.79,2.44,21.82-1.2,30.67-11.13l2.44-2.74,2.94,2.2.25.18A6.72,6.72,0,0,1,98,229.69c7.72,8.81,18.53,12.61,29.66,10.43a31.16,31.16,0,0,0,23.7-20.57c.93-2.72,4.22-4.57,6.73-4.73,2.66-.16,5.3-.14,7.85-.12,1.45,0,2.89,0,4.33,0,2.76,0,4.18-1.19,4.21-3.42a3.24,3.24,0,0,0-.8-2.42,4.94,4.94,0,0,0-3.49-1.14c-3.13,0-6.25,0-9.27,0h-6.54l-8.79-22.1h118L261.48,191c-.46,1.19-.93,2.37-1.4,3.53a82.27,82.27,0,0,0-2.83,7.73c-1.08,3.76-3.45,5.54-7.24,5.44s-7.67-.09-12.58,0a4.41,4.41,0,0,0-3.16,1.26,3.13,3.13,0,0,0-.89,2.29c0,2,1.65,3.37,4,3.41,4.14.08,8.39.17,12.48,0l.64,0c3.93,0,6.45,1.81,7.89,5.66a31.06,31.06,0,0,0,29.09,20.48h.08a31.24,31.24,0,0,0,29.08-20.35c1.91-5.16,5.61-5.8,8.65-5.77,12.66.1,25.13.09,37.05,0,6.53-.06,11.64-4,13-10.14a42.66,42.66,0,0,0,.62-9.37C376,194.34,376,193.53,376,192.73ZM291.16,80.51V68h10.39c6.35,0,12.36,0,18.46.13,2.84.08,6.64,2.39,7.46,5.38,2.23,8.07,4.23,16,6.35,24.46l1.84,7.3,1.26,5H314.16c-4.94,0-9.79,0-14.69,0s-8.26-3.3-8.28-8.12C291.15,94.93,291.16,87.83,291.16,80.51ZM75.22,63.89,85.73,55c8.16-6.9,16.59-14,24.92-21a55.08,55.08,0,0,1,28-12.29c11.2-1.61,21.22-.29,29.77,3.92a266.82,266.82,0,0,1,30.21,18l8.25,5.55L76.25,72l-3.66-5.92ZM33.81,207.69h-2.7l-4.81,0q-2.53,0-5.13,0c-2.32,0-4.67,0-7-.12a7.33,7.33,0,0,1-5.53-2.46c-2.17-2.56-1.76-5.92-1.51-7.93a10.74,10.74,0,0,0-.12-1.7c-.24-2.11-.56-5,1.4-7.38a7.6,7.6,0,0,1,5.5-2.58c5.45-.42,10.93-.33,16.24-.24,2.24,0,4.48.08,6.72.08h5.92Zm49.86,18.56a24,24,0,0,1-17.06,7.22h-.19A24,24,0,0,1,66,185.42a24.43,24.43,0,0,1,24.52,24A23.53,23.53,0,0,1,83.67,226.25ZM96.15,189.5,94,190.81l-2.11-1.31-3.65-2.26c-3.85-2.38-7.83-4.83-11.77-7.4a7.54,7.54,0,0,1-3.28-6.65c1.15-8.82,2.38-17.77,3.57-26.43q1.41-10.31,2.8-20.61c.59-4.42,3.29-7.36,7.42-8,7.81-1.29,15.75-2.52,23.44-3.72l6.12-1a9.86,9.86,0,0,1,1.76-.07l.71,0h4.47l-.49,4.43c-.18,1.62-.35,3.21-.52,4.79-.38,3.5-.73,6.81-1.15,10.19q-.84,6.93-1.72,13.88c-1.09,8.69-2.22,17.68-3.24,26.53a8.17,8.17,0,0,1-4.75,6.8c-3.87,2.14-7.65,4.54-11.31,6.86Zm49.49,19.85a23.72,23.72,0,0,1-23.75,24.13h-.18a24,24,0,0,1-17-6.93,23.63,23.63,0,0,1-7-16.82,24.26,24.26,0,0,1,23.78-24.31,23.48,23.48,0,0,1,16.87,6.87A24.26,24.26,0,0,1,145.64,209.35ZM200,178.22c-6.57.12-13.06.14-19.73.14H162.44l1.39-10.84c.57-4.46,1.13-8.81,1.71-13.16s1.15-8.64,1.73-13c1.07-8,2.19-16.32,3.22-24.47,1-7.62,3.15-9.88,10.62-11,5.71-.86,11.52-1.8,17.14-2.71l8.68-1.39c.67-.11,1.32-.17,2-.23l1.07-.1,5-.52-2,16c-2.32,18.87-4.52,36.69-6.86,54.87C205.84,174.42,203.27,178.16,200,178.22ZM248.29,37.1v141h-35.6L214,167c.59-4.9,1.17-9.75,1.78-14.6S217,142.8,217.65,138c1.29-10,2.62-20.32,3.73-30.48.36-3.29.18-7.81-2.72-10.63S211.26,94,208,94.48c-11.94,1.66-22.38,3.36-31.91,5.2-6.7,1.29-10.79,5.42-11.83,11.94-1.65,10.35-3,20.95-4.37,31.21q-.81,6.22-1.64,12.44-.36,2.73-.71,5.48c-.51,3.94-1,8-1.66,12-.35,2.24-2.71,5.4-5.77,5.46-4.23.09-8.43.11-12.74.11H123.05l1.48-12.59c.68-5.84,1.35-11.52,2-17.2q.64-5.27,1.31-10.53c.88-7,1.79-14.25,2.52-21.36a9.68,9.68,0,0,0-3.08-7.94,10.43,10.43,0,0,0-8.7-2.88c-11.1,1.6-22.25,3.38-33.12,5.29-7.68,1.35-12.19,6.89-13.42,16.44-1.4,10.93-2.89,22.07-4.33,32.84q-.94,7.07-1.89,14.19l-.46,3.47H24l.65-4.56c.29-2.1.59-4.19.88-6.28.62-4.5,1.27-9.15,1.95-13.71q2-13.32,4-26.62,2.38-15.74,4.74-31.47c1-6.85,3.85-9.83,10.44-11q25.82-4.55,51.63-9l35.31-6.17c25.61-4.5,55.38-9.72,84.71-14.93,3-.54,3.86-1.21,4-4.93,0-1.56,0-3.12,0-4.68a85.61,85.61,0,0,1,.77-13.4,28.22,28.22,0,0,1,27-23.69c9.51-.27,18.85-.21,28.73-.15,4.27,0,8.59.06,13,.06h6.79l-3.29,5.94q-1.14,2-2.2,4c-2,3.6-3.82,7-5.89,10.32-1.63,2.61-5.22,3.36-7.08,3.38-5.64.09-11.35.08-16.88.08-3,0-6,0-9,0C248.9,31.25,248.3,31.85,248.29,37.1Zm7.28,141V68.23h27.92l.23,3.76c0,.34,0,.7.08,1.07.07.9.15,1.91.15,3,0,3.16,0,6.33,0,9.49,0,5,0,10.15,0,15.21.1,10.6,6,16.44,16.67,16.44,3,0,6.05,0,9.08,0,8.33,0,16.95,0,25.44.1a12,12,0,0,1,7.36,3.08,68.68,68.68,0,0,1,7,7.56c3.93,4.72,5.33,10.43,4.18,17l-.58,3.31h-3.36c-.77,0-1.54,0-2.3,0-1.57,0-3.05-.06-4.47,0-2.23.18-3.61,1.51-3.6,3.48a3.62,3.62,0,0,0,3.67,3.58c1.33.1,2.7.07,4.29,0,.79,0,1.61,0,2.45,0h4v22.8Zm55.89,31.34a23.71,23.71,0,0,1-23.86,24h-.08a23.86,23.86,0,0,1-17-7,24.12,24.12,0,0,1-7.05-17.28c0-12.91,11.16-23.81,24.33-23.81h0c12.78,0,23.61,11,23.64,24Zm55.33-4c-2.29,2.3-5.27,2.3-10.66,2.3h-36l-8.63-21.45,5.27-.56.64-.08a19.15,19.15,0,0,1,2.39-.21q20,0,40.08,0c6.69,0,9.08,2.42,9.13,9.23C369.06,200.09,369.08,203.1,366.79,205.41Z"/><path class="cls-2" d="M206.42,208.7a3.35,3.35,0,0,0-2.44-1h0a3.68,3.68,0,0,0-3.56,3.44,3.51,3.51,0,0,0,3.34,3.48,3.74,3.74,0,0,0,2.71-1,3.27,3.27,0,0,0,1-2.38h0A3.54,3.54,0,0,0,206.42,208.7Z"/><path class="cls-2" d="M66.36,207.71h0a1.76,1.76,0,0,0-1.18.57,1.79,1.79,0,0,0-.53,1.19,1.76,1.76,0,0,0,1.77,1.71h0a1.79,1.79,0,0,0,1.26-.53,1.61,1.61,0,0,0,.47-1.16,1.81,1.81,0,0,0-.56-1.26A1.78,1.78,0,0,0,66.36,207.71Z"/><path class="cls-2" d="M121.64,207.72h0a1.72,1.72,0,0,0-1.19.57,1.69,1.69,0,0,0-.52,1.19,1.76,1.76,0,0,0,1.77,1.7h0a1.76,1.76,0,0,0,1.25-.52,1.68,1.68,0,0,0,.48-1.16,1.84,1.84,0,0,0-.56-1.26A1.76,1.76,0,0,0,121.64,207.72Z"/><path class="cls-2" d="M287.44,207.71h0a1.76,1.76,0,0,0-1.18.57,1.74,1.74,0,0,0-.53,1.19,1.76,1.76,0,0,0,1.78,1.71,1.74,1.74,0,0,0,1.25-.53,1.61,1.61,0,0,0,.48-1.16,1.84,1.84,0,0,0-.56-1.26A1.78,1.78,0,0,0,287.44,207.71Z"/></g></g></svg>