<svg xmlns="http://www.w3.org/2000/svg" viewBox="0 0 203.47 245.22"><defs><style>.cls-1{fill:#52b963;}</style></defs><title>Asset 18</title><g id="Layer_2" data-name="Layer 2"><g id="Layer_1-2" data-name="Layer 1"><path class="cls-1" d="M192.42,170.4h-9.71v-2q0-4.35,0-8.59c0-6.46,0-12.57,0-18.78a12.15,12.15,0,0,0-4.93-9.56A12.34,12.34,0,0,0,167,129.32c-4.24,1.16-7.17,3.9-9.23,8.64l-.77,1.78-35.12-14,2.58-2.15c.32-.27.6-.5.87-.71.44-.36.8-.64,1.09-.93a47,47,0,0,0,14.77-34.68q0-3.6,0-7.22c.05-5.94.11-12.09-.12-18.11a37,37,0,0,1,3.74-18.72A45.72,45.72,0,0,0,149.61,19c-.41-7-3.76-10.94-10.24-12q-8.25-1.38-16.49-2.82Q114.95,2.79,107,1.45c-1-.17-2-.39-3-.6A20.8,20.8,0,0,0,96.91.09C86.59,1.59,76.12,3.42,66,5.19L55.13,7.08c-5.61,1-9.19,5.19-9.56,11.33-.6,9.83,1,18.34,5,26A39.73,39.73,0,0,1,53,50.49a17.71,17.71,0,0,1,.94,5.09C54,66,54,76.65,54,86.92v1.35a46.94,46.94,0,0,0,4.92,20.82,49.86,49.86,0,0,0,11.63,15l2.29,2.08L70,127.42l-1,.44c-.66.29-1.25.56-1.86.79l-15.24,5.81L28.69,143.3C10.75,150.18,0,165.78,0,185q0,20.63,0,41.25v18.94H192.86c6.32,0,10.58-4.24,10.59-10.53q0-26.72,0-53.41C203.45,174.49,199.32,170.42,192.42,170.4Zm-50.27-31.83,7.68,3-21.88,19-4.53-4.09c-3.54-3.2-6.89-6.23-10.25-9.39a4,4,0,0,1-1.09-2.43c0-.19-.09-.47-.12-.56-.94-2-1.92-3.92-2.91-5.89L107,134.18l3.56-1.69c1.86-.88,4-1.88,6.06-2.83a4,4,0,0,1,3,0C127,132.58,134.48,135.53,142.15,138.57ZM87.36,164.64v-2.09a2.45,2.45,0,0,1,.22-1l.82-2.2,1.95.88a16.35,16.35,0,0,0,14.47-.09l2.6-1.23.26,2.86c0,.29,0,.56.08.82a15.81,15.81,0,0,1,.12,1.69v5.55c0,13.12,0,26.68-.06,40a7.71,7.71,0,0,1-1.85,4.6c-1.47,1.77-3.06,3.44-4.75,5.21-.69.73-1.41,1.48-2.15,2.28l-1.45,1.55-3.56-3.75c-2-2.11-3.9-4.1-5.73-6.11a4.62,4.62,0,0,1-1-3Q87.3,187.67,87.36,164.64Zm-.07-16.83a10.25,10.25,0,0,1,3-7.24,10.39,10.39,0,0,1,7.16-3.22,10.3,10.3,0,0,1,.34,20.59h-.18a10.26,10.26,0,0,1-7.07-3A10.39,10.39,0,0,1,87.29,147.81ZM56.19,46.45c-.77-2.14-1.66-4.3-2.52-6.39-1-2.46-2.06-5-3-7.59A17.7,17.7,0,0,1,50,27c0-.4,0-.8,0-1.2-.08-1.83-.06-3.66,0-5.44V19c0-4.54,2-6.8,6.43-7.56Q64.52,10,72.68,8.65l8.67-1.47c1.23-.21,2.47-.4,3.7-.6,2.78-.43,5.66-.89,8.42-1.5,4-.89,7.63-.14,11.17.58,1.16.24,2.25.47,3.36.64,6.58,1,13.25,2.16,19.69,3.28,3.39.58,6.78,1.17,10.17,1.74,5.47.92,6.57,2.88,6.94,8a40.68,40.68,0,0,1-4.34,22.3,16.19,16.19,0,0,0-1,2.5c-.64,2-1.3,4-3,5.25a6.84,6.84,0,0,1-4,1c-.85,0-1.71-.07-2.53-.14s-1.51-.14-2.17-.14H88.34c-8.74,0-17.78,0-26.66.06C59.6,50.13,57.38,49.71,56.19,46.45Zm78.23,8.09-2.18,3.14C125,68.15,112.42,74.57,98.65,74.84h-.9a42.67,42.67,0,0,1-34.47-17.1l-2.42-3.21Zm-76.06,35c-.3-5.5-.22-10.89-.15-16.6,0-2.55.07-5.12.07-7.73V60.1l3.46,3.7A48.39,48.39,0,0,0,97,79.15a49.94,49.94,0,0,0,36.26-15l3.43-3.53V65.5c0,2.46,0,4.92,0,7.38,0,6.05.09,12.31-.14,18.47a34.9,34.9,0,0,1-2.38,10.93c-6,16-17.71,25.49-34.73,28.28a20.23,20.23,0,0,1-3.18.25c-6.3,0-12-3-17-6C66.23,116.76,59.18,104.87,58.36,89.5Zm-5.17,48.6,10.68-4.26,2-.8c2.89-1.15,5.88-2.34,8.85-3.46a5.07,5.07,0,0,1,4-.19c2.07,1,4.06,2.05,5.81,3l1.63.88,1.62.86-1.53,3.65q-1.69,4.07-3.39,8.08a4.42,4.42,0,0,1-.93,1.51l-10,10-3.68,3.7-22.88-19.9Zm82.82,93v3.07a17.48,17.48,0,0,0,.33,2.82c.1.53.19,1.07.26,1.62l.32,2.27H49.87V199.58H45.72V240.8H4.29V220.58q0-17.62,0-35.25c0-17.62,9.45-31.54,25.87-38.19l2.42-.95c1.71-.66,3.32-1.28,4.89-2a4.88,4.88,0,0,1,5.84,1c6.09,5.36,12.33,10.76,18.37,16L67,165.69l1.39,1.19,10.93-11.13L82.5,157V172.8c0,13.21,0,26.88-.05,40.32a3.66,3.66,0,0,0,1.3,3.06c3.59,3.5,7.06,7,10.72,10.69l2.71,2.73,2.36-2.38c4.16-4.16,8.09-8.1,12-12.18a4.72,4.72,0,0,0,.18-1.72q.06-21.34,0-42.67V153.1l13.74,14.19,30.94-26.79v29.9h-9.52c-6.48,0-10.86,4.28-10.89,10.58C135.93,197.68,136,214.65,136,231.06Zm21.5,9.88h-6.79l-2.94,0c-4.32-.12-6.52-2.46-6.55-6.94s0-8.82,0-13.24V205.92q0-11.88,0-23.77c0-5.2,2.22-7.43,7.39-7.46h8.9Zm20.74-.12H162.1V174.89h16.15Zm.18-80.24v9.72H162.29l-.15-1.83-.06-.65a15.27,15.27,0,0,1-.11-1.56q0-11.79,0-23.59c0-5.46,3.47-9.44,8.21-9.45h0c4.76,0,8.21,4,8.23,9.43C178.44,148.59,178.44,154.54,178.43,160.58Zm20.76,32.57c0,1.6,0,3.21,0,4.81v35.25c0,5.54-2.15,7.71-7.66,7.73h-8.63V174.69h4.44c1.81,0,3.53,0,5.28,0,4.24.11,6.5,2.42,6.55,6.66C199.2,185.29,199.19,189.29,199.19,193.15Z"/><rect class="cls-1" x="62.46" y="178.89" width="8.1" height="4.1"/><rect class="cls-1" x="45.85" y="178.88" width="3.87" height="4.05"/><path class="cls-1" d="M97.54,37.75h0A10.08,10.08,0,0,0,108,27.41,10.09,10.09,0,0,0,97.74,16.87h-.07c-6.06,0-10.48,4.29-10.52,10.22a10.65,10.65,0,0,0,2.95,7.7A10.4,10.4,0,0,0,97.54,37.75Zm-.2-16.57a6.13,6.13,0,1,1,.29,12.26h-.06a6.13,6.13,0,0,1-.23-12.26Z"/></g></g></svg>