<svg xmlns="http://www.w3.org/2000/svg" viewBox="0 0 411.16 177.45"><defs><style>.cls-1{fill:none;}.cls-2{fill:#52b963;}</style></defs><title>Asset 9</title><g id="Layer_2" data-name="Layer 2"><g id="Layer_1-2" data-name="Layer 1"><path class="cls-1" d="M372.09,61.65c-2.87,0-5.73,0-8.72,0h-.7V81.42h29.27c-1.21-3.09-2.37-6-3.6-9-.57-1.35-1-2.77-1.49-4.15-.86-2.64-1.84-5.64-3.22-6.58-1.17-.81-4.36-.54-6.91-.33C375.19,61.53,373.62,61.65,372.09,61.65Z"/><path class="cls-2" d="M410.1,88.79c-8.52-21.05-17.27-42.41-25.73-63.08l-.4-1c-1.66-4-2.15-4.38-6.56-4.39q-25.31,0-50.61,0c-5.34,0-6.35,1-6.36,6.12q0,19.19,0,38.36V88.49H300.21l-.16-3.33c0-.51-.05-1-.08-1.51-.07-1.09-.13-2.22-.13-3.37q0-21.47,0-42.93V7.1c0-6.65-.41-7-7.29-7h-52C163.93.05,84.68.06,6.74,0h0C3.29,0,1.39.53,0,2V148.14c1.66,1.56,3.77,2.13,7,2,2.28-.12,4.53-.16,6.8-.16,1.68,0,3.38,0,5.12,0s3.46,0,5.22,0h3.22l.27,3.2c.73,8.64,3.81,14.69,9.67,19,7.55,5.6,15.72,6.67,24.29,3.19s13.53-9.88,14.71-19l.06-.47c.43-4,2.51-6,6.23-6,9.5.06,18.82,0,28.69,0h13.75l.22,3.27c.58,8.93,4.18,15.48,11,20,4.54,3,9.79,4.29,16,3.88,11.41-.74,18.57-8.5,22.54-24.41l.66-2.65h8.27c4.2,0,8.43,0,12.66,0,5.2,0,5.61-.84,5.61-5.32,0-10.73,0-21.47,0-32.31V95.84H223v19.94q0,14.28,0,28.56c0,5,.69,5.66,5.69,5.68h21l.63,2.72c3.58,15.7,10.91,23.69,22.4,24.44,7.49.5,13.67-1.48,18.91-6,5-4.32,7.59-10,8.25-17.9l.26-3.21h9.12c6.68,0,13,0,19.41.12,2.84.07,5.67,3.09,6,5.52,1.54,11.43,7.94,18.49,19,21,10.1,2.29,18.65-1,25.43-9.76a9.25,9.25,0,0,1,6.68-3.14c4.19-.12,8.44-.1,12.54-.09,2.65,0,5.29,0,7.93,0,4,0,4.88-.9,4.88-4.82,0-21.18.05-43.07,0-65.17A13.56,13.56,0,0,0,410.1,88.79ZM393.51,66.14c.42,1.31.82,2.53,1.28,3.61,1.31,3.13,2.54,6.23,3.83,9.51q.84,2.14,1.72,4.36l1.92,4.8H355.67V54.64h7.68c3,0,5.92,0,8.81,0,1.21,0,2.55-.1,4-.22,4-.33,8.22-.68,11.45,1.53S392.3,62.44,393.51,66.14ZM52.35,170.61h-.08a17.37,17.37,0,0,1-17.38-16.83,16.89,16.89,0,0,1,5-12.12,17.55,17.55,0,0,1,12.53-5.24,17.1,17.1,0,1,1-.09,34.19Zm97.46,0h-.05a17.1,17.1,0,1,1-.15-34.19,17.39,17.39,0,0,1,12.53,5.21,16.89,16.89,0,0,1,5.05,12.12A17.35,17.35,0,0,1,149.81,170.61ZM195,143.42h-3.5l-4.3,0-4.07,0c-2.21,0-4.37,0-6.56-.16a10,10,0,0,1-6.77-3.45c-5.18-6.59-12.24-10.21-19.87-10.22h0c-7.66,0-14.75,3.64-20,10.26a9.25,9.25,0,0,1-6.58,3.41c-14.15.14-28.73.15-44.57,0a8.79,8.79,0,0,1-6.33-3.09c-5.55-6.86-12.74-10.64-20.26-10.64h-.1c-7.47,0-14.56,3.81-20,10.62a7.79,7.79,0,0,1-5.42,3.1c-4,.13-8,.11-11.9.1l-4.09,0H7.19V122.74h3.5c.8,0,1.57,0,2.32,0,1.49,0,2.89,0,4.21,0,1.09-.07,3.62-.55,3.55-3.41-.05-2.43-1.91-3-3.46-3.14s-2.88-.06-4.43,0c-.74,0-1.49,0-2.25,0H7.13V95.83H195ZM7.25,88.39V7.06h285.1V88.39Zm268.47,82.22h-.44a17.23,17.23,0,0,1-12.1-4.92A16.85,16.85,0,0,1,258,153.59a17.27,17.27,0,0,1,17.1-17.16,17,17,0,0,1,12.25,4.92,16.84,16.84,0,0,1,5.16,11.92A17,17,0,0,1,275.72,170.61Zm83.37,0h-.2a17.1,17.1,0,1,1,.09-34.19c9.34.06,17.26,7.87,17.29,17.07A17.26,17.26,0,0,1,359.09,170.61ZM404,115.53l-3.07.38a36.15,36.15,0,0,1-4.28.19c-2.09,0-4.7,0-5.48.8a3.92,3.92,0,0,0-.58,2.55c0,2.85.45,3.31,6.17,3.33a36,36,0,0,1,4.15.17l3.08.38v33.42H384l-.68-4.83c-1.67-11.56-8.13-19-18.7-21.4s-18.88.75-25.79,9.66a9.25,9.25,0,0,1-6.74,3.15c-10.77.16-20.56.15-29.91,0a9.76,9.76,0,0,1-6.94-3.48c-5.07-6.48-12.32-10.19-19.88-10.19h0c-7.57,0-14.83,3.75-19.9,10.26-1.72,2.22-3.45,3.33-5.29,3.4-4.09.14-8.24.12-12.25.11l-4.1,0h-3.5v-20.1l3.21-.27c3.53-.29,7.83-.75,9.66-1.68.56-.28.69-.35.62-1.57-.19-3.27-.76-3.62-6.08-3.68a32.53,32.53,0,0,1-4.48-.27l-3-.44V95.54h91c5.62,0,6.46-.84,6.47-6.36q0-19.34,0-38.66V27.34h11.92c11.42,0,22.21,0,33.13.06,1.82,0,4.87,1.09,6,3.46,1.33,2.81,2.46,5.66,3.66,8.67.43,1.08.86,2.18,1.32,3.31l2,4.81H372.26c-6.2,0-12.05,0-18,0-5.1,0-5.83,1.17-5.86,5.35-.09,12-.09,24.5,0,37.14,0,4.28.71,5.36,5.75,5.37q14.94,0,29.88,0H404Z"/><path class="cls-2" d="M52.21,153.23h0a.51.51,0,0,0-.36.29.4.4,0,0,0,.37.28h0a.31.31,0,0,0,.33-.27A.34.34,0,0,0,52.21,153.23Z"/><path class="cls-2" d="M149.89,153.23h0a.48.48,0,0,0-.35.29.38.38,0,0,0,.36.29.31.31,0,0,0,.33-.28A.36.36,0,0,0,149.89,153.23Z"/><path class="cls-2" d="M275.26,153.23h0a.49.49,0,0,0-.35.29.39.39,0,0,0,.36.29.33.33,0,0,0,.33-.28A.36.36,0,0,0,275.26,153.23Z"/><path class="cls-2" d="M359.18,153.23h0a.48.48,0,0,0-.35.29.38.38,0,0,0,.36.29.31.31,0,0,0,.33-.28A.36.36,0,0,0,359.18,153.23Z"/><polygon class="cls-1" points="225.95 52.76 225.95 55.08 234.19 55.08 234.19 53.55 225.95 52.76"/><rect class="cls-1" x="162.67" y="42" width="8.28" height="13.08"/><polygon class="cls-1" points="234.19 43.76 234.19 42 225.95 42 225.95 42.95 234.19 43.76"/><polygon class="cls-2" points="58.51 35.6 56.56 35.6 52.75 36.8 52.75 39 54.55 39 54.55 58.08 52.75 58.08 52.75 61.48 60.31 61.48 60.31 58.08 58.51 58.08 58.51 35.6"/><polygon class="cls-2" points="67.91 35.6 66.31 37.53 66.31 40.41 70.27 40.41 70.27 39 84.99 39 84.99 46.77 67.62 46.77 66.31 48.17 66.31 61.48 88.83 61.48 88.83 56.48 84.87 56.48 84.87 58.08 70.27 58.08 70.27 50.16 87.33 50.16 88.95 48.46 88.95 37.56 87.34 35.6 67.91 35.6"/><polygon class="cls-2" points="102.27 42.69 98.31 42.69 98.31 46.77 94.55 46.77 94.55 50.13 98.31 50.13 98.31 53.92 102.27 53.92 102.27 50.13 106.03 50.13 106.03 46.77 102.27 46.77 102.27 42.69"/><polygon class="cls-2" points="124.39 39 133.43 39 133.43 58.08 131.63 58.08 131.63 61.48 139.19 61.48 139.19 58.08 137.39 58.08 137.39 39 146.35 39 146.35 43.28 149.71 43.28 149.71 35.6 121.03 35.6 121.03 43.28 124.39 43.28 124.39 39"/><path class="cls-2" d="M157.32,35.6l-1.61,2v21.9l1.62,2h18.36l1.62-2v-22L175.7,35.6ZM174,58.08H159.67V39H174Z"/><polygon class="cls-2" points="208.03 61.34 194.19 35.6 183.51 35.6 183.51 39 185.31 39 185.31 58.08 183.51 58.08 183.51 61.48 191.07 61.48 191.07 58.08 189.27 58.08 189.27 35.7 204.19 61.6 211.99 61.6 211.99 39 213.79 39 213.79 35.6 206.23 35.6 206.23 39 208.03 39 208.03 61.34"/><polygon class="cls-2" points="220.6 35.6 218.99 37.56 218.99 47.37 220.5 49.23 237.19 50.82 237.19 58.08 222.95 58.08 222.95 55.16 218.99 55.16 218.99 59.56 220.59 61.48 239.54 61.48 241.15 59.53 241.15 48.98 240.13 47.37 222.95 45.66 222.95 39 237.19 39 237.19 41.77 241.15 41.77 241.15 37.53 239.54 35.6 220.6 35.6"/><circle class="cls-2" cx="52.59" cy="153.16" r="3"/><circle class="cls-2" cx="149.59" cy="153.16" r="3"/><circle class="cls-2" cx="275.59" cy="153.16" r="3"/><circle class="cls-2" cx="358.59" cy="153.16" r="3"/></g></g></svg>