<svg xmlns="http://www.w3.org/2000/svg" viewBox="0 0 332.34 332.37"><defs><style>.cls-1{fill:#52ba63;}</style></defs><title>Asset 79</title><g id="Layer_2" data-name="Layer 2"><g id="Layer_1-2" data-name="Layer 1"><path class="cls-1" d="M22.36,254V242.53H8.12A31.45,31.45,0,0,1,4,242.44c-2.39-.31-4-1.64-3.85-4.2s1.76-3.75,4.25-3.76c4.75,0,9.5,0,14.25,0h3.58V222.93c-4.84,0-9.66,0-14.48,0-1.38,0-3.07.43-4-.21-1.46-1-3.36-2.71-3.31-4.06s2.29-3.38,3.72-3.51c4.83-.44,9.73-.17,14.6-.18h3.54V203.43c-4.91,0-9.74,0-14.56,0-1.38,0-3.07.4-4-.24-1.45-1-3.33-2.74-3.26-4.08s2.31-3.36,3.74-3.49c5-.43,10-.16,15-.18,1,0,2-.09,3.16-.16V183.85c-4.8,0-9.5,0-14.2,0-1.49,0-3.29.4-4.41-.27-1.46-.89-3.34-2.71-3.27-4s2.34-3.3,3.78-3.42c5-.43,10-.16,15-.18,1,0,2-.11,3.13-.18v-11.4H8.79c-1.5,0-3,.06-4.5-.07C1.71,164.05,0,162.75.16,160c.19-2.52,1.85-3.61,4.37-3.59,4.62.05,9.25,0,13.87,0h4.08c0-3.5.18-6.6-.12-9.66-.08-.78-1.68-2-2.63-2-4.49-.21-9-.12-13.49-.09-2.87,0-6,0-6-3.83s2.91-4,5.85-3.94c5.34.06,10.69,0,16.43,0,0-3.51.15-6.62-.11-9.69a3.18,3.18,0,0,0-2.29-2c-2.85-.25-5.82.32-8.6-.2-3.9-.73-10.94,3-11-3.74,0-7.09,7.17-3.21,11.15-3.9,3.36-.58,6.91-.12,10.6-.12V105.57H8c-1.38,0-3,.42-4.06-.17C2.45,104.55.4,103,.4,101.66S2.53,98.16,3.92,98c4.44-.49,9-.21,13.47-.23h4.78V86.06c-5.71,0-11.3.11-16.89-.07A6.9,6.9,0,0,1,1,84.39a3.83,3.83,0,0,1-.43-3.7,5.59,5.59,0,0,1,3.78-2.34A142.4,142.4,0,0,1,19,78.27c2.84.12,3.81-.85,3.59-3.63-.21-2.57-.05-5.18-.05-8.19-6.27,0-12.11.06-17.95,0C1,66.37-1.17,63.31.71,60.79a6.47,6.47,0,0,1,4.41-2c4.74-.25,9.5-.21,14.24,0,2.51.09,3.31-.86,3.18-3.26-.16-2.7,0-5.43,0-8.54-5.91,0-11.38-.06-16.85,0C2.72,47,.11,46.52.17,43S3,39,5.81,39H22.19V27.41H8.25c-1.24,0-2.5,0-3.74,0C2,27.48.33,26.3.16,23.79,0,21,1.77,19.65,4.35,19.57c4.25-.13,8.5-.06,12.75-.07h5.1V7.91c-5.6,0-11.3.13-17-.08A6.9,6.9,0,0,1,.72,6C-.92,4.11.41,1.06,2.92.35A13.87,13.87,0,0,1,6.63,0Q153,0,299.45,0c16.29,0,28.39,9.14,31.94,24.05a38.56,38.56,0,0,1,.9,8.91q.07,115.11,0,230.21c0,16.47-8.92,28.4-23.79,32.18-18.49,4.69-37.38-9.46-38.06-28.52-.05-1.47,0-2.93,0-4.78h-97.4c-6.08,0-7.62,1.55-7.62,7.63q0,28.31,0,56.61c0,4.92-1,6-5.86,6q-9.19.07-18.37,0c-4.8,0-5.82-1.12-5.82-6.05q0-28.12,0-56.24c0-6.74-1.24-8-7.94-8H7.47A27,27,0,0,1,4.1,262c-2.4-.3-4-1.59-3.95-4.13S1.86,254,4.34,254C10.2,254,16.05,254,22.36,254Zm96-45.37c-.18-1.8-.31-3.53-.52-5.25-.62-5.07-1.54-10.13-1.73-15.23,0-1.35,1.8-3.46,3.25-4,2.15-.85,3.73.75,4.27,3a28.76,28.76,0,0,1,.47,2.95c.85,6.26,1.68,12.52,2.5,18.64H136.9c0-2.68.08-5.06,0-7.42-.17-4.37-.51-8.74-.63-13.11-.07-2.47,1.27-4.11,3.76-4.27s3.83,1.54,4.17,3.89c.2,1.35.1,2.75.17,4.12.26,5.58.53,11.17.8,16.9h10.42c.07-1.17.14-2.15.19-3.12.25-5.62.48-11.24.74-16.85.13-2.78,1-5.13,4.29-4.93,2.93.18,3.91,2.27,3.77,5-.08,1.38-.09,2.75-.16,4.13-.24,5.19-.49,10.39-.75,15.73h10.5c.36-2.43.71-4.63,1-6.84.58-4.46,1.08-8.92,1.68-13.37.37-2.7,1.36-5,4.69-4.59,3.1.4,3.57,2.69,3.3,5.3-.11,1-.31,2-.44,3-.67,5.49-1.34,11-2,16.78a59.11,59.11,0,0,1,6.61.05c2.92.34,4.13-.68,4.66-3.67,1.09-6.13,2.64-12.18,4-18.25.57-2.49,2.22-3.6,4.7-3.1s3.16,2.23,2.89,4.5c-.12,1-.35,2-.56,2.94-1.28,5.93-2.57,11.86-3.87,17.85,9.45,3.46,6.4,11.74,7.37,18.65,2.51,0,4.75-.14,7,0,2.68.22,3.76-.65,4.52-3.46,3-11.13,10.3-18.4,21.41-21.41,2.81-.76,3.48-1.85,3.48-4.52q-.1-67.68,0-135.36c0-2.77-.86-3.77-3.52-4.49-11-3-18.25-10.14-21.27-21.07-.87-3.14-2-3.81-5-3.8q-64.31.14-128.62.06H82.36Q77.69,55.32,56.68,59.75V202.17c13.41,2.93,22,10.8,25.24,24.21a2.42,2.42,0,0,0,1.73,1.45c3.07.15,6.15.07,9.72.07,0-4-.17-7.44,0-10.89.26-4.09,3.15-6.27,6.67-7.79-1.46-6.51-2.93-12.82-4.27-19.15-.54-2.56-.65-5.24,2.69-6s4.43,1.47,5,4.17q1.33,6.21,2.66,12.43c1.88,8.78,1.88,8.78,10.93,8.29A7.28,7.28,0,0,0,118.35,208.62Zm152.07,45.24V34.2c0-1.13-.38-2.48.11-3.33.85-1.45,2.16-3.47,3.43-3.59S277,28.83,278,30.15c.7,1,.43,2.65.57,4,1.27,12.35,13.61,21.42,26.54,19.5,12-1.78,21.11-14.25,19-25.94-2.26-12.35-11.38-19.8-24.37-19.8H34.26c-1.2,0-2.41.11-3.64.17V253.66h92.8c-1.5-4.22-2.9-8.16-4.37-12.27-3.61,0-7.25.26-10.83-.09-2.78-.27-6.22-.5-8.08-2.18-3.7-3.34-7.73-3.36-12.08-3.22-2.24.07-4.5,0-6.74,0-6.2,0-6.58-.34-7.24-6.35A21.52,21.52,0,0,0,54.4,210.24c-5.16-.49-6-1.34-6-6.51V58.25c0-5.15.51-5.71,5.61-6.4,11.65-1.59,18.69-8.61,20.2-20.15.66-5.09,1.33-5.72,6.34-5.72H220.44c4.72,0,5.61.82,6.17,5.52C228,43,235,50.19,246.23,51.76c5.9.83,6.14,1.1,6.14,7.05V202.42c0,7-.06,7.09-7.24,7.94a17,17,0,0,0-2.55.54,21.58,21.58,0,0,0-15.89,18.81c-.64,5.83-1.06,6.2-7,6.2-4.25,0-8.51-.08-12.75.06a5.23,5.23,0,0,0-3.29,1.16,15.38,15.38,0,0,1-11.61,4.27c-3.57-.07-7.14,0-10.31,0l-4.32,12.47Zm8-201.65V261.65c0,1.63-.3,3.35.12,4.86,1.14,4,1.89,8.38,4.06,11.81,5.34,8.49,15.79,11.87,25.3,9,10.11-3.06,16.48-11.93,16.48-23.3q0-104.4,0-208.82c0-.91-.16-1.83-.26-3C310.93,64.31,293.73,65.69,278.45,52.21ZM150.77,217.12H108c-7.1,0-7.1,0-7.09,7.2s2,9.27,9.39,9.27h76.85c11.95,0,12.76-.9,12.77-12.7,0-3-.84-3.86-3.83-3.83C181,217.19,165.89,217.12,150.77,217.12Zm6.75,107.14V268.4h-14v55.86Zm-29.46-82.62c.82,10.54,11.48,19.27,23,19.06,10.85-.19,21.32-9.28,21.69-19.06Z"/><path class="cls-1" d="M194.2,126.91c.12-3.66-1.18-6.87-2.84-10-1.45-2.7-3-5.35-4.45-8-3.47-6.48-3.65-12.91,0-19.47,3-5.3,1.94-11.21-2.3-14.9a8.58,8.58,0,0,0-9-1.79,7.51,7.51,0,0,0-5.32,6c-.75,4.33,3.3,8.16,7.11,6.64.79-.31,1.3-1.36,1.93-2.07a20.07,20.07,0,0,1-1.91-1.37c-.76-.68-2-1.44-2-2.18A3.67,3.67,0,0,1,177,77c2.39-1.35,5.44,0,6.84,2.67,2.69,5.19-.9,10.89-7.19,11.38a10.52,10.52,0,0,1-10.59-6.11,12.12,12.12,0,0,1,1.84-13.37,13.83,13.83,0,0,1,14.67-4.18c6.27,1.77,9.62,6.38,11.06,12.55.19.81.33,1.62.55,2.67A17.85,17.85,0,0,1,207,81.44c9.39,2.59,15.14,12.08,12.68,20.88-1.89,6.81-9,10.61-15.2,8.18a9.15,9.15,0,0,1-.08-16.91c1.76-.64,3.29-.51,4,1.37s-.12,3-1.83,3.61c-2.45.84-2.68,2.76-2.21,4.76s2.43,2.51,4.27,2.49c3.14,0,5.56-2.51,6-5.91.69-5.06-1.65-9.45-6.39-12A12.23,12.23,0,0,0,194.43,89a12.61,12.61,0,0,0-4,14,51.11,51.11,0,0,0,3,6.45c1,1.89,2.15,3.68,3.1,5.59s1.63,3.73,2.54,5.82c3.33-2.06,6.88-3.54,11-3.22,2,.16,3.66.55,3.83,2.87.13,1.83-1.42,2.6-4.1,2.67a15.24,15.24,0,0,0-5.43,1c-4.15,1.8-4.73,3-4.49,7.57a65.22,65.22,0,0,1,8.2-.74,13.72,13.72,0,0,1,12.66,17.63A11.74,11.74,0,0,1,209.61,157a10.15,10.15,0,0,1-10-7.59,8.51,8.51,0,0,1,2.4-8.68c2.1-2,4.67-3,7.49-2a4,4,0,0,1,2.27,2.79c.11,1.59-1.21,2.4-3,2.38-2.92,0-3.91.81-4,3.08a4.26,4.26,0,0,0,3.91,4.54c4.79.61,8.29-4.16,6.7-9.13-1.17-3.64-4.05-5.74-8.31-6a11.05,11.05,0,0,0-10.31,5.83c-1.91,3.6-4,7.09-6.11,10.6-1,1.69-2.48,2.58-4.25,1.36s-1.24-2.88-.15-4.46a71.7,71.7,0,0,0,4-6.25,12.61,12.61,0,0,0-2.69-15.18,9.25,9.25,0,0,0-13.41,1,6.62,6.62,0,0,0-.55,7.65,5.08,5.08,0,0,0,5.24,2.9c3.45-.38,4.93-3.46,2.91-6.25-1.11-1.53-1.49-3,.08-4.27s3-.43,4.19.88a8.86,8.86,0,0,1,1,10,10.26,10.26,0,0,1-10.16,5c-8.83-1.5-12.72-12.23-7-19.35a14.63,14.63,0,0,1,21.16-1.73Z"/><path class="cls-1" d="M102,132.25c.28-5.39-2.57-8.57-7.83-9-1-.08-2,0-3.07,0-1.68,0-2.83-.72-3-2.48s.94-2.69,2.56-2.93a15.79,15.79,0,0,1,10.1,2c.66.37,1.31.76,1.7,1,2.65-5,5.29-9.94,7.87-14.91s2.65-10-.8-14.66a12.08,12.08,0,0,0-14.36-4.19c-5.5,2.13-8.63,7-8,12.56.47,4.4,4.36,7.33,8,5.78a4.16,4.16,0,0,0,2.3-2.84,4.92,4.92,0,0,0-1.81-3.72c-1.81-1.06-3.11-2.09-2.1-4.15s2.93-1.63,4.67-.84c3.42,1.55,5.44,5.78,4.77,9.9a9,9,0,0,1-7.61,7.26c-8.78,1.27-15.48-6.51-13.57-15.75a18.19,18.19,0,0,1,24.49-13.13c.38.15.78.26,1.06.36a53.25,53.25,0,0,1,2.51-7.28c4.54-8.9,15.73-11.15,22.93-4.73a11.69,11.69,0,0,1,3.83,11.81,10.55,10.55,0,0,1-7.68,8.44c-5.26,1.51-10.81-1.36-11.78-6.06-.62-3,.85-6.77,3.43-7.53,1.52-.45,3.42,0,5,.45a2.65,2.65,0,0,1,.81,2.36,24.54,24.54,0,0,1-3.79,3.31c-.15,1.54,1.57,2.92,4.26,2.45,4.11-.72,6-6.05,3.45-9.81-2.79-4.16-9.13-4.89-13.1-1.51s-5.59,9.51-2.85,14.17c4.74,8.08,3.44,15.53-1,23.15A109.66,109.66,0,0,0,108,123.25a8.76,8.76,0,0,0-.29,3.76c3-3.33,6.28-5.79,10.72-6.51a14.76,14.76,0,0,1,14.55,7,12.28,12.28,0,0,1-1.75,14.25c-3,3.17-6.73,4.35-10.94,2.92-3.76-1.27-6.21-3.87-6.67-7.95a8.43,8.43,0,0,1,2.48-7c1.13-1.18,2.47-1.63,3.85-.48s1.32,2.43.37,3.85c-1.76,2.64-1.72,4.06.05,5.56a4.93,4.93,0,0,0,6.73-.37,6.36,6.36,0,0,0,1.64-7,8.08,8.08,0,0,0-7.17-5.36c-5.69-.63-10.74,4.14-11.4,10.34-.46,4.33,1.4,7.77,3.71,11.12.67,1,1.4,1.93,2.06,2.92.94,1.41.93,2.83-.48,3.84a2.48,2.48,0,0,1-3.79-.69,120.17,120.17,0,0,1-6.3-10.48c-2.6-5.14-7.55-7.69-13.09-6.27-4.74,1.22-7.53,6.74-5.62,11.12a6.07,6.07,0,0,0,7.85,3.3A4,4,0,0,0,97,146.31c-.38-2.08-1.88-2.66-3.83-2.44A2.52,2.52,0,0,1,90,141.6c-.22-1.7.83-2.6,2.46-3,5.87-1.51,11.39,4.52,9.81,10.74a10.12,10.12,0,0,1-9.92,7.72,11.8,11.8,0,0,1-11.25-8.47c-2.82-10.33,6.47-19.66,17.24-17.3C99.52,131.54,100.65,131.9,102,132.25Z"/><path class="cls-1" d="M163.6,112.42c.06,1.46-.42,2.4-1.68,2.46s-1.77-.84-1.87-2c-.46-5.46-4.54-9.39-9.67-9.35s-9.07,3.9-9.56,9.47c-.11,1.17-.65,2-1.8,1.94s-1.75-1-1.73-2.18a13.21,13.21,0,0,1,11.65-12.57c7.06-.58,13.16,3.84,14.37,10.41C163.44,111.25,163.53,112,163.6,112.42Z"/><path class="cls-1" d="M158.64,113.82a8.23,8.23,0,0,1-16.45.14,8.23,8.23,0,1,1,16.45-.14ZM150.52,111a2.14,2.14,0,0,0-.07,4.28,2,2,0,0,0,2.06-2.1A2,2,0,0,0,150.52,111Z"/><path class="cls-1" d="M163.1,171.38c-.67.59-2,2.67-3.48,2.81-1.33.12-2.88-1.88-4.28-3-.22-.18-.2-.7-.25-1.07-.42-2.77-2.08-4.2-4.83-4.16a4.29,4.29,0,0,0-4.54,4.05c-.46,3-1.83,5.16-5.18,4.29-3.13-.81-3.17-3.51-2.68-6.09a12.77,12.77,0,0,1,14-10.23C157.83,158.5,163.11,164.11,163.1,171.38Z"/><path class="cls-1" d="M206.19,58c-1.84-2.57-3.55-3.94-3.79-5.53a3.25,3.25,0,0,1,3.86-3.84c1.51.31,3.68,2.34,3.71,3.64C210,53.84,208,55.41,206.19,58Z"/><path class="cls-1" d="M94.41,58c-1.73-2.71-3.62-4.36-3.52-5.88.09-1.3,2.34-3.24,3.85-3.48a3.23,3.23,0,0,1,3.67,4C98.09,54.26,96.35,55.55,94.41,58Z"/><path class="cls-1" d="M238.73,131.49c-1.54,1-3.12,2.95-4.61,2.88-1.34-.06-3.59-2.28-3.6-3.55s2.06-3.7,3.39-3.83c1.49-.14,3.17,1.73,4.77,2.72Z"/><path class="cls-1" d="M63.64,128.76l6,3.86-.06,1.23c-1.59.12-3.55.87-4.66.2-1.31-.79-1.87-2.81-2.75-4.3Z"/><path class="cls-1" d="M67.64,171.7l6,3.86-.06,1.23c-1.59.12-3.56.87-4.67.2-1.3-.79-1.86-2.81-2.75-4.3Z"/><path class="cls-1" d="M228.2,175.71l6.06,3.86-.06,1.23c-1.59.12-3.56.87-4.67.2-1.3-.79-1.86-2.81-2.75-4.3Z"/><path class="cls-1" d="M236.67,30.05a11.65,11.65,0,1,1,23.3.2,11.65,11.65,0,0,1-23.3-.2Zm16,.67L252.65,29c-1.51-.9-3-2.38-4.55-2.55a2.93,2.93,0,0,0-3.26,3.85c.41,1.38,2.33,3.22,3.57,3.21C249.85,33.54,251.28,31.75,252.71,30.72Z"/><path class="cls-1" d="M52.36,243.55a11.49,11.49,0,0,1-11.49-11.7,11.64,11.64,0,1,1,23.27.3A11.47,11.47,0,0,1,52.36,243.55Zm4.42-10.69,0-1.8c-1.46-.94-3-2.66-4.35-2.58s-3.59,2.27-3.43,3.2c.25,1.5,2,3.56,3.4,3.81S55.31,233.82,56.78,232.86Z"/><path class="cls-1" d="M260,231.81a11.46,11.46,0,0,1-11.43,11.74,11.59,11.59,0,0,1-11.87-11.35,11.65,11.65,0,1,1,23.3-.39Zm-7.28.91v-1.67c-1.48-.94-3-2.64-4.44-2.57-1.24.06-3.08,2-3.42,3.35a3,3,0,0,0,3.46,3.75C249.84,235.39,251.23,233.72,252.69,232.72Z"/><path class="cls-1" d="M64.14,30.14A11.64,11.64,0,1,1,52.68,18.42,11.51,11.51,0,0,1,64.14,30.14Zm-7.36.92,0-1.82c-1.45-1-2.93-2.73-4.33-2.67s-3.19,1.9-3.54,3.28a3,3,0,0,0,3.38,3.8C53.89,33.46,55.3,32,56.78,31.06Z"/></g></g></svg>