<svg xmlns="http://www.w3.org/2000/svg" viewBox="0 0 365.57 366.09"><defs><style>.cls-1{fill:#52b963;}</style></defs><title>Asset 20</title><g id="Layer_2" data-name="Layer 2"><g id="Layer_1-2" data-name="Layer 1"><path class="cls-1" d="M362.74,179l-10.43-10.43c-12.33-12.32-25.07-25.05-37.52-37.67a11.55,11.55,0,0,1-3.13-7.52c-.13-14.76-.12-29.77-.1-44.28v-19h7.33c3.95,0,4.65-.75,4.67-4.75v-1c0-6.66,0-13.54,0-20.29,0-3.26-1.29-3.88-3.6-3.89-19.53-.05-39.33-.05-58.86,0-2.43,0-3.44.95-3.47,3.25-.12,7.92-.12,15.84,0,23.53,0,1.4.42,3,3.34,3.17,1.16.06,2.39,0,3.58,0l1.7,0h3V82.27L265,80.46a10.73,10.73,0,0,1-3.75-2.87c-.18-.2-.35-.39-.54-.57q-37-37-74-74c-4.06-4.06-4.38-4.06-8.49,0L2.51,178.88a10.67,10.67,0,0,1-.93.82l-.46.4-.33,1A11.78,11.78,0,0,0,0,183.9a11.62,11.62,0,0,0,3.09,2l.58.31c.2,0,.54,0,.78-.05a12.76,12.76,0,0,1,1.36-.09H47.3v150H41.09c-5.16,0-5.52.41-5.53,5.74v18c0,6.09.17,6.26,6.12,6.26h282.5c.68,0,1.32,0,1.93,0,3-.17,3.38-1.77,3.4-3.14.12-7.47.12-15.39,0-23.53,0-1.9-.65-3.19-3.56-3.3-1.09,0-2.22,0-3.41,0h-4.77v-150h17.29q13.37,0,26.73,0h0c2.21,0,3-.76,3.49-2,.37-.87.6-1.86-1-3.58C363.76,180,363.25,179.49,362.74,179Zm-99-125.18V36.27h53.53V53.81ZM275.58,70q0-3.36,0-6.8v-3h29.7v62.53L300,116.87c-.75-.83-1.42-1.59-2-2.31-1.2-1.36-2.24-2.54-3.31-3.62l-2.77-2.82c-4.07-4.14-8.28-8.42-12.56-12.44a11.56,11.56,0,0,1-3.84-9.46C275.63,80.86,275.61,75.57,275.58,70ZM323.4,342.34v17.53H41.75V342.34ZM53.65,189a11.48,11.48,0,0,1,3-7.6c36.15-36.31,73-73.14,108.61-108.76l13-13c.44-.44.9-.86,1.42-1.33l2.73-2.52,2,1.78.81.7c.61.52,1.24,1,1.84,1.65l1.79,1.79c39.21,39.2,79.76,79.75,119.58,119.68a10,10,0,0,1,3,6.51c.1,43.31.09,87.35.08,129.94V331.1a11.77,11.77,0,0,1-.09,1.35c0,.19,0,.39-.06.62l-.24,2.74H53.56V308.17C53.56,269.11,53.55,228.71,53.65,189Zm293.15-9.13a14.24,14.24,0,0,1-2.23.21q-3.74,0-7.49,0c-5.14,0-10.47,0-15.68.11h-.47a11.82,11.82,0,0,1-8.92-3.82c-35.07-35.16-70.79-70.87-105.32-105.4L186.91,51.15c-4.22-4.21-4.46-4.21-8.76.09L157.53,71.86C123.27,106.11,87.84,141.54,53,176.42a11.58,11.58,0,0,1-9,3.72c-6.22-.13-12.55-.1-18.67-.08H10.86L182.48,8.46l170.66,170.7Z"/><path class="cls-1" d="M241.83,262.07q-14.42-14.4-28.82-28.82c-.67-.67-1.32-1.37-2-2.08l-.88-1-1.71-1.82,1.48-2c1.6-2.18,4.28-5.83,10.09-4.8,10.91,1.92,22-2.24,29.54-11.14s10.05-20.67,6.37-31.26c-.6-1.75-1.52-2.89-2.52-3.13s-2.41.4-3.8,1.75c-.86.83-1.74,1.65-2.62,2.47a58,58,0,0,0-6.56,6.81c-4.41,5.74-10.15,5.24-14.35,4.87l-1.28-.11-2.1-.16-.57-2c-2-7.27.08-13.39,6.26-18.2a43.21,43.21,0,0,0,4.8-4.63c.7-.74,1.4-1.49,2.12-2.21,1.73-1.75,2.6-3.42,2.34-4.47s-1.77-2-4-2.71A32.74,32.74,0,0,0,192,194.14a9.16,9.16,0,0,1-1.18,6.21A39.79,39.79,0,0,1,187,205c-.52.58-1.05,1.16-1.58,1.77l-2,2.29-2.61-2.28c-6.72-5.89-7.45-6.81-7.21-15.06a8.23,8.23,0,0,0-2.77-6.71c-6-5.86-12-11.91-17.86-17.75-3-3-6-6-9-9s-3.87-3-6.91,0q-13.66,13.64-27.29,27.31c-3.09,3.09-3.09,3.87-.08,6.9l8.59,8.56c5.82,5.79,11.83,11.77,17.63,17.78,2.74,2.83,4.85,3.75,7.52,3.26,7.85-1.43,12.13,3.49,14.65,7.31l1.19,1.79-1.31,1.7c-5.54,7.19-6.84,8.17-14.4,7.31-10.87-1.24-21.64,3.42-28.82,12.49s-9.15,20.34-5.51,30.45c.59,1.65,1.51,2.74,2.52,3s2.18-.28,3.4-1.43c.7-.67,1.41-1.33,2.13-2a55.8,55.8,0,0,0,7-7.25c3.39-4.49,7.52-5.46,11.42-5.46a43.76,43.76,0,0,1,4.56.31l2.22.23.53,2c1.9,7.28-.09,13.27-5.92,17.8a53.74,53.74,0,0,0-6,5.83c-.64.68-1.28,1.37-1.93,2-1.27,1.33-1.87,2.68-1.63,3.69s1.31,1.89,3,2.48c10.53,3.78,22.24,1.5,31.33-6.09,8.92-7.46,13.17-18.33,11.37-29.08-.84-5,.7-8.37,5-10.89l1.93-1.13,1.64,1.54.89.83c.69.64,1.4,1.29,2.07,2l22.39,22.38,19.51,19.51c3.62,3.61,4.19,3.62,7.71.12q10.21-10.2,20.41-20.42c3.82-3.82,3.81-4.29-.13-8.24Zm-53.5-51.31,2.87-2.62c2-1.84,3.91-3.59,5.88-5.26s2.53-3.49,1.64-6.54a26.67,26.67,0,0,1,17.13-32.75,9.58,9.58,0,0,1,5.7-.25l5.13,1.26L223,168.36c-.57.57-1.17,1.13-1.77,1.69a20.09,20.09,0,0,0-3.1,3.31,12.4,12.4,0,0,0-2.4,5.45,119.79,119.79,0,0,0-.17,12.29c0,1.05,0,2.09.06,3.14,0,2.84.95,3.77,3.73,3.81l1.78,0c4.77.08,9.71.16,14.48-.11a7.58,7.58,0,0,0,3.89-1.68,25.75,25.75,0,0,0,3.49-3.73c.54-.67,1.09-1.33,1.66-2l4.7-5.3.53,7.06c.77,10.1-7.71,20.49-18.52,22.69a36.83,36.83,0,0,1-14-.25c-3.26-.61-4.77-.25-6.23,1.46a34.09,34.09,0,0,1-2.49,2.58l-.84.81a10.08,10.08,0,0,1-7.13,2.94,10.49,10.49,0,0,1-7.29-3c-.82-.79-1.72-1.57-2.86-2.55l-2.09-1.8L185.83,213Zm-15.18,41.1c-.06.49-.11,1-.16,1.45-.18,1.94-1.72,3.06-2.73,3.8l-.24.18c-3.69,2.75-4.56,5.69-3.22,10.84,1.8,6.91.09,14.79-4.55,21.08-4.51,6.1-10.92,9.77-17.59,10.06l-3.8.17.72-3.73c0-.1,0-.18,0-.24a3.19,3.19,0,0,1,1.37-2.36c5.68-3.83,7.6-9.22,6.62-18.61a33.1,33.1,0,0,1-.08-4.32c0-1,.05-2,0-2.93-.15-2.74-1.8-3.09-3-3.12-5.34-.13-11.62-.22-17.77.06a6.11,6.11,0,0,0-3,1.6,33.67,33.67,0,0,0-3.56,3.88c-.54.65-1.08,1.3-1.64,1.93l-1.61,1.82-5.14-2.9.44-2.14c.07-.35.13-.7.19-1.06a18.74,18.74,0,0,1,.66-2.89,26.62,26.62,0,0,1,32.72-17.21c3.12.9,4.78.5,6.59-1.6,1.64-1.91,3.4-3.76,5.26-5.71l2.77-2.92,2.22-2.37,2.18,2.4c.62.67,1.29,1.3,1.93,1.92a14.68,14.68,0,0,1,4.1,5.29C173.76,246.75,173.44,249.47,173.15,251.86ZM179,241.24l-2.12-2.12c-1.78-1.79-3.61-3.6-5.46-5.43-4.6-4.55-9.36-9.25-13.95-14.12-2.81-3-5.18-4-8.17-3.52-6.05,1-9.81-2.06-12.42-4.82-4.53-4.78-9.3-9.45-13.91-14q-2.84-2.76-5.59-5.49l-2.14-2.12,25.57-25.56,2.11,1.84.33.28c.46.38,1.15.95,1.81,1.6l6.15,6.16c4.22,4.23,8.58,8.61,12.94,12.83,1.79,1.74,4.1,4.55,3.41,8.81-.73,4.53.71,8,4.83,11.7,4.58,4.08,8.89,8.47,13.06,12.72,1.76,1.79,3.5,3.56,5.24,5.29l2.14,2.13Zm51.69,56.63L182,249.2l18.48-18.53,48.69,48.67Z"/></g></g></svg>