<svg xmlns="http://www.w3.org/2000/svg" viewBox="0 0 333.71 233.74"><defs><style>.cls-1,.cls-2{fill:#52b963;}.cls-2{font-size:33.51px;font-family:RobotoSlab-Regular, Roboto Slab;letter-spacing:-0.11em;}.cls-3{letter-spacing:-0.12em;}.cls-4{letter-spacing:0em;}</style></defs><title>Asset 26</title><g id="Layer_2" data-name="Layer 2"><g id="Layer_1-2" data-name="Layer 1"><path class="cls-1" d="M329.33,88c-7.56-15.76-14.95-31.91-22.1-47.54l-4.05-8.85c-2.73-6-6.66-8.88-12-9-14.53-.22-29.88-.23-48.31,0a12.27,12.27,0,0,0-12,9.64,23.29,23.29,0,0,0-.43,3.84c0,.76-.09,1.55-.16,2.38l-.46,5-3.71-3.35c-.2-.19-.38-.34-.53-.47a9.29,9.29,0,0,1-1-.92C214,26.43,200.9,20.65,184.59,21c-3,.07-5.91,0-9,0h-6.9v-2.5c0-.85,0-1.64,0-2.4,0-1.53,0-2.91,0-4.3C168.52,4.7,164,.08,157,.06,133.43,0,109.21,0,85,.05,78.17.07,73.42,4.8,73.22,11.82c0,1.44,0,2.9,0,4.44,0,.74,0,1.49,0,2.27V21h-2.5l-6,0H59.11c-2.58,0-5.11,0-7.64.06a98,98,0,0,0-10.56.66C19.42,24.39,1.26,43.93.42,65.26-.12,78.94,0,92.48.26,108.6c.23,12.55,5.42,23.75,15.44,33.3.68.66,1.38,1.3,2.15,2l4.78,4.42-4.79,1C5.52,151.78-.79,159.69.08,171.58c.09,1.28.1,2.55.1,3.77s0,2.27.08,3.36a20,20,0,0,0,14.9,18l2.72.73,2.65.71.26,1.59c3.72,22.27,14.54,33.37,33.08,33.93a31.67,31.67,0,0,0,20.77-6.66c8.64-6.64,13-15.48,13.27-27l.07-2.44H234l.05,2.44c.23,9.82,3.44,17.67,9.81,24A32.13,32.13,0,0,0,268,233.72c18.48-.48,29-11.36,33.21-34.25l.38-2.05h9.68c13.1,0,22.27-9.19,22.28-22.23q0-10.45,0-20.92c0-15.27-.08-31.07.16-46.61A42.36,42.36,0,0,0,329.33,88ZM80.14,7.62c2-2.2,5.39-2.2,10.07-2.2h64.06c3.45,0,6.18,0,7.92,1.76s1.73,4.48,1.7,7.94v5.66H79l-.2-2.29C78.34,12.82,78.17,9.76,80.14,7.62ZM5.73,109c-.54-13.68-.5-27.84.12-43.3.78-19.86,19.71-38.18,39.7-38.44,16.87-.22,34-.17,50.6-.12q9.66,0,19.32,0l2.47-.07,20.94,0c15.87,0,32.29,0,48.43.05,20.81.09,37.34,13.29,42.12,33.62a28,28,0,0,1,.91,6.5c0,4.27,0,8.63,0,12.84.09,10.83.19,22-.65,33-1.5,19.89-20.12,36.78-40.65,36.88-17.05.08-34.29.1-51.35.1H110.12q-16.2,0-32.39,0H69.31c-6.82,0-13.64,0-20.46,0C25.18,149.9,6.64,132.24,5.73,109Zm224.64,23.54v17.27H213.66Zm-176,96.33h-.12a28,28,0,0,1,.18-56h.08a28,28,0,0,1-.14,56Zm213,0h-.05a28,28,0,1,1,19.86-47.94,28.11,28.11,0,0,1-19.81,47.94Zm60-49.73a14.86,14.86,0,0,1-13.8,13.74c-2.1.18-4,.26-5.78.26s-3.26-.08-4.78-.23c-2.4-.25-4.39-2.66-5.14-4.21-6.55-13.61-17-20.51-31-20.51h-.08c-14,0-24.35,6.89-30.69,20.41-1.51,3.21-3.52,4.52-6.94,4.52h0c-46.66-.08-92.69-.08-136.81,0h0c-4.3,0-6-2.27-7.14-4.71C78.8,175,68.47,168.15,54.5,168.15h-.13c-14.09,0-24.42,6.9-30.69,20.39A6.87,6.87,0,0,1,20,192.46a6.48,6.48,0,0,1-5-.65c-5.86-2.83-9-7.21-9.34-13a90.45,90.45,0,0,1,0-11.17c.45-6.83,5.23-11.59,12.18-12.15.94-.07,1.84-.06,2.72-.05h307v2.5c0,2.25,0,4.45.05,6.62C327.63,169.56,327.69,174.29,327.43,179.1Zm.24-40.93v11.7H235.93v-30.4q0-40.53,0-81.07c0-7.9,1.94-9.83,9.88-9.84h13c10,0,20.32,0,30.47-.07,4.47,0,7.43,1.82,9.27,5.87Q307,53.18,315.63,72,321,83.78,326.4,95.6l.07.15a9.92,9.92,0,0,1,1.15,4C327.67,112.52,327.67,125,327.67,138.17Z"/><path class="cls-1" d="M267.48,192.55h-.07a8.21,8.21,0,0,0-8.2,8.3,8,8,0,0,0,8.19,8.23h0a8.27,8.27,0,1,0,.06-16.53Z"/><path class="cls-1" d="M54.5,192.55h-.07a8.22,8.22,0,0,0-8.21,8.3,8.06,8.06,0,0,0,8.2,8.23h0a8.18,8.18,0,0,0,8.26-8.19,8.31,8.31,0,0,0-2.41-6A8.14,8.14,0,0,0,54.5,192.55Z"/><path class="cls-1" d="M286.48,56.71l-2.62-5.89a3.25,3.25,0,0,0-3.58-2.12c-2.41.1-4.84.08-7.18.06l-6.26,0c-2.41,0-4.83,0-7.24,0-3.46,0-3.47,1.42-3.47,2.64,0,1,0,2.67,3.44,2.71l1.31,0c4.33.06,8.81.12,13.18,0h.5c3.38,0,5.53,1.47,6.93,4.72,3.78,8.78,7.92,17.64,11.57,25.46,1.17,2.51,2.29,2.3,3.44,1.85A2.58,2.58,0,0,0,298,84.75a3.22,3.22,0,0,0-.2-2.49C294.07,73.73,290.21,65.08,286.48,56.71Z"/><path class="cls-1" d="M288.76,107.82q-3.43-.18-6.75-.18c-2.3,0-4.55.07-6.73.2-.52,0-1.91.11-1.78,2.61.11,1.9,1,2.32,2.34,2.37s2.84,0,4.34,0l1.89,0h0l2.05,0c1.45,0,2.82,0,4.19,0,1.14,0,2.2-.37,2.29-2.4C290.7,107.92,289.29,107.85,288.76,107.82Z"/><text class="cls-2" transform="translate(65.23 102.41)">W<tspan class="cls-3" x="31.29" y="0">A</tspan><tspan class="cls-4" x="52.45" y="0">TER</tspan></text></g></g></svg>