<svg xmlns="http://www.w3.org/2000/svg" viewBox="0 0 383.87 368.79"><defs><style>.cls-1{fill:#52ba63;}</style></defs><title>Asset 58</title><g id="Layer_2" data-name="Layer 2"><g id="Layer_1-2" data-name="Layer 1"><path class="cls-1" d="M0,156.64c1.69-3.44,3-7.15,5.16-10.26a18.56,18.56,0,0,1,13.57-7.79c3.15-.35,4.53-1.74,5.36-4.83A173,173,0,0,1,44,88c2.48-4.06,5.39-4.93,8.61-2.66,2.85,2,3,4.75,1.17,8.56-5.43,11.2-10.83,22.41-15.91,33.77-1.86,4.16-2.79,8.74-3.94,12.5,2.93,3.19,5.36,6,8,8.59a4.11,4.11,0,0,0,3.2.82,374.67,374.67,0,0,1,65.44-7.15,5.45,5.45,0,0,0,3.74-2.14c5.67-8.08,13.19-12,23.11-10.64a4.62,4.62,0,0,0,5-2A241.84,241.84,0,0,1,178,89.07c1.64-1.44,1.81-2.58,1.32-4.73-1-4.4-1.29-9-2-14.56A240.72,240.72,0,0,0,121.09,45.6a23.33,23.33,0,0,1-15,11.77c-6.64,1.65-12.87.44-19-3.63C81.78,59.16,76.59,64.56,71.35,69.9c-3.17,3.23-8.15,2.67-9.44-1.4a7.76,7.76,0,0,1,1.35-6.33c4.51-5.17,9.44-10,14.4-14.73,1.65-1.59,2.12-2.75,1.36-5.09a22.18,22.18,0,0,1,9-25.94c8.75-5.86,19-5.33,27.34,1.63,1.6,1.33,2.74,1.54,4.61.61A179,179,0,0,1,202,0a178.79,178.79,0,0,1,76.72,17.47c1.89.91,3.22,1.44,5.3-.2,7.81-6.17,17.59-6.44,25.84-1.17a22.46,22.46,0,0,1,10.05,24.63c-.57,2.37-.19,3.78,1.66,5.08a9.53,9.53,0,0,1,1.95,1.74c4.34,5.36,9.09,7.22,16.52,5.6,8.43-1.85,15.5,2.89,20.22,10.1,5,7.63,5.54,15.84.68,23.65-2,3.14-1.51,5.11.08,8a176.33,176.33,0,0,1,22.23,73.91c4.38,60-15.59,110.52-59.09,151.87-1.53,1.45-1.68,2.57-1.09,4.51,3.06,10.08-.44,19.95-8.9,25.69a22,22,0,0,1-26.79-1c-1.81-1.43-3.09-1.38-5-.42-31.36,15.82-64.64,21.67-99.49,18.48a174,174,0,0,1-64-18.33c-2.13-1.09-3.57-1.15-5.66.32-7.9,5.53-17.67,5.32-25.6-.17a22.06,22.06,0,0,1-9.16-23.94c.66-2.59-.3-3.85-2-5.4-31.66-29.64-50.76-66-57.54-108.74-1.35-8.48-1.35-17.17-2.1-25.74-.1-1.14-.74-2.9-1.56-3.2-8.2-3-12.88-9.05-15.38-17.11ZM119.83,318.58a8.59,8.59,0,0,0,1.23-.21q89-33.09,148.52-107a4.27,4.27,0,0,0,.25-3.79,22.74,22.74,0,0,1-2.8-13.71c.37-2.8-.56-4.11-3.1-5.36A342,342,0,0,0,173.61,159c-5.72-1-11.49-1.71-17.13-2.55-4.47,14.12-13.38,19.47-29.3,17.89-.4.79-.86,1.66-1.28,2.54a245.15,245.15,0,0,0-23,128.08c.11,1.29,1.2,3.36,2.18,3.59A25,25,0,0,1,119.83,318.58Zm195.25-5.26a2.38,2.38,0,0,0,.66-.32,174.5,174.5,0,0,0,40.6-54.69c1-2.15.06-3.14-1.22-4.42A357.52,357.52,0,0,0,309,215.08c-3-2.13-5.1-2.55-7,.24,1.92,10,3.76,19.67,5.62,29.33.59,3.11-.38,5.4-3.42,6.62-4,1.59-7-.72-7.95-5.7-1.65-8.9-3.48-17.76-5.16-26.29-3.2-.54-5.83-.53-8.06-1.47-2.69-1.14-3.91-.14-5.49,1.81C238.51,267.74,190.24,303.41,132.49,326c-5.83,2.29-10.58,4.41-10.11,11.65,0,.24.05.49.07.76a2.33,2.33,0,0,0,.52.47c1.1.58,2.21,1.15,3.34,1.68,29.59,14,60.61,19.38,93.19,15.78a174.13,174.13,0,0,0,56.82-16.45c2.31-1.11,2.93-2.32,2.75-4.83a28,28,0,0,1,.69-9.23c2.55-9.08,8.95-14.34,18.1-16.56.39-5.28.86-10.37,1.12-15.47.22-4.37.22-8.74.28-13.12.06-4.83,1.85-7.07,5.72-7,3.72,0,5.59,2.23,5.49,6.85-.17,8,0,16-1,23.94-.6,4.93,1,7.36,5.2,8.86A1.15,1.15,0,0,0,315.08,313.32ZM28,183.32c3,50.9,21.21,94.54,57.27,130,5.25-1.61,6.48-4.43,6.36-9.35-.4-15.7-1-31.5.34-47.1,2.55-30.05,11-58.7,24.18-85.86a4.59,4.59,0,0,0-.35-5.39,24.63,24.63,0,0,1-3.84-8.38c-.66-3-1.94-3.46-4.59-3.2-10,1-20.15,1.56-30.19,2.7-10.5,1.19-21,2.86-31.62,4.34C45,172.57,39.08,179.64,28,183.32Zm249.65-137A247.5,247.5,0,0,0,225,69c-1.73,1-2.23,2-2.12,4.12a34.17,34.17,0,0,1-.95,10.63c-.7,2.58-.41,4,1.55,5.71a254.62,254.62,0,0,1,58.84,76.34c2.35,4.64,4.25,8.9,10.61,7.57a8.63,8.63,0,0,1,2.87.46,333.83,333.83,0,0,0,33.78-76.16c.28-.91-.72-2.66-1.63-3.4-6.1-5-9.67-11.24-9.08-19.15.32-4.33,1.88-8.58,3-13.48l-9.12-8.56C299.36,62.32,285.25,58.11,277.62,46.31Zm72.07,51.08c-8.46,1.53-8.46,1.53-10.79,9-.37,1.19-.79,2.36-1.18,3.54a357.29,357.29,0,0,1-30.36,66.93c-.66,1.14-1.11,3.36-.49,4.14a24.19,24.19,0,0,1,4.79,20.92l50.89,41.88Q388.1,167.93,349.69,97.39ZM150,135.05c1.89,3,3.53,4.83,4.31,7,1,2.66,2.81,3.06,5.13,3.38,5.92.81,11.85,1.62,17.74,2.68A348.71,348.71,0,0,1,270.51,179a4.41,4.41,0,0,0,3.8-.31c.57-.38.55-2.46.07-3.44a249.28,249.28,0,0,0-58.77-77.78c-1.61-1.44-2.8-1.71-4.85-.64-6.2,3.24-12.8,3.71-19.08.55-3.31-1.66-5.36-1.28-7.63,1.36-1.62,1.88-3.77,3.3-5.46,5.13C169,114.33,159.37,124.82,150,135.05ZM275.37,28.52c-1-.49-2.32-1.16-3.67-1.78a172.75,172.75,0,0,0-146.17,1.88c-1.08.52-2.51,2.25-2.31,3a5.63,5.63,0,0,0,2.93,3.45c8.14,3.09,16.57,5.48,24.55,8.93C162.1,49,173.19,54.6,184.6,60c10.77-8.23,19.37-8.43,31.08-.67.85.56,2.78.26,3.8-.33A247.6,247.6,0,0,1,269,37.16C273.21,35.82,276.79,34.61,275.37,28.52Zm77.27,47.19a11.33,11.33,0,1,0-11.35,11.34A11.15,11.15,0,0,0,352.64,75.71ZM33.86,161a11.05,11.05,0,0,0-11.2-11.49,11.47,11.47,0,0,0-11.44,11.4,11.58,11.58,0,0,0,11.35,11.51A11.08,11.08,0,0,0,33.86,161ZM309.19,35.21a11.26,11.26,0,0,0-11.38-11.36A11.59,11.59,0,0,0,286.48,35,11.15,11.15,0,0,0,298,46.61C304.55,46.58,309.18,41.87,309.19,35.21Zm-8.37,160.71a11.3,11.3,0,0,0-11.33-11.49c-6.06-.06-11.31,5.33-11.3,11.59s5.37,11.63,11.41,11.49A11.3,11.3,0,0,0,300.82,195.92ZM111.9,35.3a11.11,11.11,0,0,0-11.29-11.43,11.42,11.42,0,0,0,0,22.84A11.22,11.22,0,0,0,111.9,35.3ZM301.61,320.74a10.91,10.91,0,0,0-11.46,11.15,11.33,11.33,0,1,0,22.65.31A11,11,0,0,0,301.61,320.74ZM133.89,163.46A11.37,11.37,0,1,0,122.59,152,11.17,11.17,0,0,0,133.89,163.46Zm-22,167.71a11.34,11.34,0,1,0-11.38,11.45A11.45,11.45,0,0,0,111.9,331.17ZM211.76,76.4a11.06,11.06,0,0,0-11.38-11.3,11.68,11.68,0,0,0-11.32,11.58,11.48,11.48,0,0,0,11.6,11.26C207.25,87.8,211.83,83,211.76,76.4Z"/></g></g></svg>