<svg xmlns="http://www.w3.org/2000/svg" viewBox="0 0 411.16 177.45"><defs><style>.cls-1{fill:#52b963;}.cls-2{fill:none;}</style></defs><title>Asset 8</title><g id="Layer_2" data-name="Layer 2"><g id="Layer_1-2" data-name="Layer 1"><path class="cls-1" d="M410.1,88.79c-8.47-20.92-17.17-42.16-25.58-62.7L384,24.74c-1.66-4-2.15-4.38-6.56-4.39q-25.31,0-50.61,0c-5.34,0-6.35,1-6.36,6.12q0,19.19,0,38.36V88.49H300.21l-.16-3.33c0-.51-.05-1-.08-1.51-.07-1.09-.13-2.22-.13-3.37q0-21.66,0-43.33V7.1c0-6.65-.41-7-7.29-7H240C163.54.06,84.49.06,6.74,0h0C3.29,0,1.39.53,0,2V148.14c1.65,1.56,3.78,2.14,7,2,2.28-.12,4.52-.16,6.8-.16,1.68,0,3.38,0,5.12,0s3.46,0,5.22,0h3.21l.28,3.2c.73,8.64,3.81,14.69,9.67,19,7.55,5.6,15.72,6.67,24.29,3.19s13.53-9.88,14.71-19l.06-.47c.43-4,2.5-6,6.17-6h.06c9.49.06,18.81,0,28.67,0h13.77l.22,3.27c.58,8.93,4.18,15.48,11,20,4.55,3,9.8,4.29,16.06,3.88,11.41-.74,18.57-8.5,22.54-24.41l.66-2.65h8.27q6.3,0,12.66,0c5.2,0,5.61-.84,5.61-5.32,0-10.62,0-21.24,0-32v-17H223v20.63q0,13.94,0,27.87c0,5,.69,5.66,5.69,5.68h21l.63,2.72c3.58,15.7,10.91,23.69,22.4,24.45,7.48.49,13.67-1.49,18.91-6.05,5-4.32,7.59-10,8.25-17.9l.26-3.21h9.1c6.68,0,13,0,19.43.12,2.84.07,5.67,3.09,6,5.52,1.54,11.43,7.94,18.49,19,21,10.1,2.29,18.65-1,25.43-9.76a9.23,9.23,0,0,1,6.67-3.14c4.2-.11,8.44-.11,12.55-.09,2.64,0,5.28,0,7.93,0,4,0,4.88-.9,4.88-4.82,0-21.18.05-43.07,0-65.17A13.56,13.56,0,0,0,410.1,88.79ZM393.51,66.15c.42,1.3.82,2.52,1.28,3.6,1.32,3.13,2.54,6.24,3.83,9.52.56,1.43,1.14,2.87,1.72,4.35l1.92,4.8H355.67V54.64h7.68c3,0,5.92,0,8.81,0,1.21,0,2.55-.1,4-.22,4-.33,8.22-.68,11.45,1.53S392.3,62.44,393.51,66.15ZM52.35,170.61h-.08a17.37,17.37,0,0,1-17.38-16.83,16.94,16.94,0,0,1,5-12.12,17.48,17.48,0,0,1,12.54-5.24,17.1,17.1,0,1,1-.09,34.19Zm97.46,0h-.05a17.1,17.1,0,1,1-.15-34.19,17.36,17.36,0,0,1,12.53,5.21,16.89,16.89,0,0,1,5.05,12.12A17.35,17.35,0,0,1,149.81,170.61ZM195,143.42h-3.5l-4.31,0-4.07,0c-2.2,0-4.37,0-6.55-.16a10,10,0,0,1-6.77-3.45c-5.18-6.59-12.24-10.21-19.87-10.22h0c-7.66,0-14.75,3.64-20,10.26a9.22,9.22,0,0,1-6.59,3.41c-14.13.14-28.71.15-44.56,0a8.79,8.79,0,0,1-6.33-3.09c-5.58-6.9-12.83-10.72-20.36-10.64s-14.56,3.81-20,10.62a7.79,7.79,0,0,1-5.42,3.1c-4,.13-8,.11-11.91.1l-4.08,0H7.19V122.75h3.5l2.32,0c1.48,0,2.89,0,4.21,0,1.09-.07,3.62-.55,3.55-3.41-.05-2.43-1.91-3-3.46-3.14s-2.88-.06-4.43,0c-.74,0-1.49,0-2.25,0H7.13V95.83H195ZM7.25,88.39V7.06h285.1V88.39Zm268.47,82.22h-.45a17.23,17.23,0,0,1-12.09-4.92A16.85,16.85,0,0,1,258,153.59a17.26,17.26,0,0,1,17.1-17.16,17.07,17.07,0,0,1,12.25,4.92,16.84,16.84,0,0,1,5.16,11.92A17,17,0,0,1,275.72,170.61Zm83.37,0h-.2a17.1,17.1,0,1,1,0-34.19h.1c9.34.06,17.26,7.87,17.29,17.07A17.26,17.26,0,0,1,359.09,170.61ZM404,115.53l-3.07.38a36.15,36.15,0,0,1-4.28.19c-2.09,0-4.7,0-5.48.8a3.92,3.92,0,0,0-.58,2.55c0,2.85.45,3.31,6.17,3.33a36,36,0,0,1,4.15.17l3.08.38v33.42H384l-.68-4.83c-1.67-11.56-8.13-19-18.7-21.4s-18.88.75-25.79,9.66a9.25,9.25,0,0,1-6.74,3.15c-10.76.16-20.55.15-29.91,0a9.78,9.78,0,0,1-6.94-3.48c-5.07-6.48-12.32-10.19-19.88-10.19h0c-7.57,0-14.83,3.75-19.9,10.26-1.72,2.22-3.45,3.33-5.29,3.4-4.09.14-8.24.12-12.25.11l-4.1,0h-3.5v-20.1l3.21-.27c3.53-.29,7.83-.75,9.66-1.68.56-.28.69-.35.62-1.57-.19-3.27-.76-3.61-6.08-3.68a32.53,32.53,0,0,1-4.48-.27l-3-.44V95.54h91c5.62,0,6.46-.84,6.47-6.36q0-19.28,0-38.56V27.34h11.92c11.42,0,22.21,0,33.13.06,1.82,0,4.88,1.1,6,3.46,1.33,2.81,2.46,5.66,3.66,8.67.43,1.08.86,2.18,1.32,3.31l2,4.81h-13.4c-6.2,0-12.06,0-18,0-5.1,0-5.83,1.18-5.86,5.35-.09,12-.09,24.49,0,37.14,0,4.28.71,5.36,5.75,5.37q14.81,0,29.6,0H404Z"/><path class="cls-1" d="M52.21,153.23h0a.51.51,0,0,0-.36.29.4.4,0,0,0,.37.28h0a.31.31,0,0,0,.33-.27A.34.34,0,0,0,52.21,153.23Z"/><path class="cls-1" d="M149.89,153.23h0a.48.48,0,0,0-.35.29.38.38,0,0,0,.36.29.32.32,0,0,0,.33-.28A.36.36,0,0,0,149.89,153.23Z"/><path class="cls-1" d="M275.26,153.23h0a.49.49,0,0,0-.35.29.39.39,0,0,0,.36.29h0a.31.31,0,0,0,.32-.28A.36.36,0,0,0,275.26,153.23Z"/><path class="cls-1" d="M359.18,153.23h0a.48.48,0,0,0-.35.29.38.38,0,0,0,.36.29h0a.31.31,0,0,0,.33-.28A.36.36,0,0,0,359.18,153.23Z"/><rect class="cls-2" x="50.08" y="54.05" width="8.72" height="1.92"/><polygon class="cls-2" points="250.87 44.65 250.87 42.89 242.63 42.89 242.63 43.83 250.87 44.65"/><rect class="cls-2" x="179.35" y="42.89" width="8.28" height="13.08"/><polygon class="cls-2" points="242.63 53.65 242.63 55.97 250.87 55.97 250.87 54.43 242.63 53.65"/><path class="cls-1" d="M47.08,47.65V39.89H61.8v1.4h4V38.51l-1.63-2H44.73l-1.61,2v22l1.6,1.93H64.15l1.61-2V49.35l-1.63-1.7ZM61.8,59H47.08V51.05H61.8Z"/><rect class="cls-1" x="71.35" y="47.85" width="9.36" height="3.4"/><polygon class="cls-1" points="91.67 36.49 89.72 36.49 85.92 37.69 85.92 39.89 87.72 39.89 87.72 58.97 85.92 58.97 85.92 62.37 93.47 62.37 93.47 58.97 91.67 58.97 91.67 36.49"/><polygon class="cls-1" points="101.08 36.49 99.47 38.41 99.47 41.29 103.44 41.29 103.44 39.89 118.15 39.89 118.15 47.65 100.79 47.65 99.47 49.06 99.47 62.37 122 62.37 122 57.37 118.03 57.37 118.03 58.97 103.44 58.97 103.44 51.05 120.49 51.05 122.11 49.35 122.11 38.45 120.51 36.49 101.08 36.49"/><polygon class="cls-1" points="141.07 39.89 150.11 39.89 150.11 58.97 148.31 58.97 148.31 62.37 155.88 62.37 155.88 58.97 154.07 58.97 154.07 39.89 163.03 39.89 163.03 44.17 166.4 44.17 166.4 36.49 137.71 36.49 137.71 44.17 141.07 44.17 141.07 39.89"/><path class="cls-1" d="M174,36.49l-1.61,1.95v21.9l1.63,2h18.36l1.61-2v-22l-1.6-1.92ZM190.63,59H176.35V39.89h14.28Z"/><polygon class="cls-1" points="224.71 62.23 210.88 36.49 200.19 36.49 200.19 39.89 201.99 39.89 201.99 58.97 200.19 58.97 200.19 62.37 207.75 62.37 207.75 58.97 205.95 58.97 205.95 36.58 220.88 62.49 228.67 62.49 228.67 39.89 230.47 39.89 230.47 36.49 222.91 36.49 222.91 39.89 224.71 39.89 224.71 62.23"/><polygon class="cls-1" points="237.28 36.49 235.67 38.44 235.67 48.26 237.18 50.11 253.87 51.7 253.87 58.97 239.63 58.97 239.63 56.05 235.67 56.05 235.67 60.44 237.28 62.37 256.23 62.37 257.83 60.41 257.83 49.86 256.82 48.25 239.63 46.55 239.63 39.89 253.87 39.89 253.87 42.65 257.83 42.65 257.83 38.41 256.23 36.49 237.28 36.49"/><circle class="cls-1" cx="51.95" cy="153.1" r="3"/><circle class="cls-1" cx="149.95" cy="153.1" r="3"/><circle class="cls-1" cx="274.95" cy="153.1" r="3"/><circle class="cls-1" cx="358.95" cy="153.1" r="3"/></g></g></svg>