<svg xmlns="http://www.w3.org/2000/svg" viewBox="0 0 360.13 360.19"><defs><style>.cls-1{fill:#52ba63;}</style></defs><title>Asset 55</title><g id="Layer_2" data-name="Layer 2"><g id="Layer_1-2" data-name="Layer 1"><path class="cls-1" d="M43,276.65c10.62-5,21.33-5.34,30.59,1.75,8.07,6.18,15,13.9,22.15,21.21,2.09,2.13,1.74,5.13-.3,7.54-1.29,1.5-2.71,2.89-4.19,4.45l16.88,16.57-9.37,8L83.43,320.09l-8.84,9.09,16.43,16L82.38,354,65.91,337c-1.81,1.71-3.17,3.1-4.64,4.37-2.66,2.31-5.93,2.43-8.42,0-6.42-6.3-13-12.48-19-19.21-8.36-9.45-9.13-23.62-2.28-34.54,1.4-2.23,1.51-3.66,0-5.89C8.45,248-1.83,210.61.27,169.9,4,97.25,53.36,32.68,122.37,9.67,164.27-4.3,205.78-3,246.9,12.89c.34.13.67.32,1.43.69-1.46,3.62-2.92,7.22-4.47,11C201,8,158.37,7.69,116,25,83.8,38.16,58.17,59.7,39.18,88.92.25,148.83,5,224.31,43,276.65Zm14,50.8,24.5-24.73c-4.19-4.3-8.45-9.24-13.31-13.49-6.81-6-17.37-5.17-23.83,1.27S37,307.15,42.92,314C47.23,318.94,52.43,323.12,57,327.45Z"/><path class="cls-1" d="M111.75,346.73c1.55-3.77,3-7.2,4.51-11,48.39,18.38,95.83,16.68,141.88-7.09,30.35-15.67,53.54-39,69.76-69.06,32-59.31,23.87-128.69-10.76-175.94-6.38,2.93-13,4.38-20.18,2.83a29.91,29.91,0,0,1-14.95-8c-5.34-5.26-10.63-10.58-15.92-15.9-4-4-4-6.9,0-10.84,1-1,2.36-1.46,4-2.42L252,31.89l9.51-8L276.9,40.07l8.1-8.46-16.19-16,9.24-9.15,17.37,17.9c1.18-2,1.81-3.78,3-5,2.92-3,6.32-3,9.25-.17,6.07,5.94,12.22,11.83,17.95,18.09a29.36,29.36,0,0,1,2.68,35.76c-1.34,2.09-1.16,3.36.14,5.23a174.14,174.14,0,0,1,30.63,81.82A180.33,180.33,0,0,1,160.93,359.2,174,174,0,0,1,111.75,346.73ZM302.86,33,278.41,57.61c4.18,4.2,8.4,8.81,13,13A17.76,17.76,0,0,0,315,70.46c6.84-6.12,8.41-16.65,2.56-23.65C313.26,41.6,307.67,37.43,302.86,33Z"/><path class="cls-1" d="M174.09,210.11c-21.59,0-42.59-.26-63.58.15-6.54.13-10.38-4.12-6.79-11.22,23.45-46.42,46.59-93,69.95-139.46a11.18,11.18,0,0,1,4.94-5.13c3.78-1.6,7.42,1.71,7.43,6.31.05,13.75,0,27.5,0,41.25v48.13H250.2c7.24,0,9.66,3.91,6.38,10.47q-35.13,70.3-70.28,140.62c-1.6,3.21-3.64,5.43-7.51,4.76-3.27-.58-4.7-3.07-4.7-7.82V210.11Zm12,62.8.78.13c18.4-36.83,36.81-73.65,55.44-110.93H181.94c-6,0-7.85-1.84-7.85-7.77V87.24l-.77,0c-18.4,36.82-36.81,73.64-55.44,110.93h60.74c5.45,0,7.43,2,7.44,7.43q0,31.1,0,62.21Z"/></g></g></svg>