<svg xmlns="http://www.w3.org/2000/svg" viewBox="0 0 370.36 376.67"><defs><style>.cls-1{fill:#52ba63;}</style></defs><title>Asset 57</title><g id="Layer_2" data-name="Layer 2"><g id="Layer_1-2" data-name="Layer 1"><path class="cls-1" d="M195.26,104.33a48.74,48.74,0,0,1-1.13,5.14c-1.65,4.87-2.12,8.93,1.4,13.93,4.66,6.63.37,16.2-7.43,18.84-2.44.83-3.44,1.76-3.9,4.46-1.63,9.43-2.84,19.09-6,28.06-2.21,6.36-6.94,12-11.13,17.49-3.11,4.08-3.19,5.57,1.37,8.21a185.62,185.62,0,0,0,45.86,18.8c26.92,7.16,45.77,32.26,45.83,60.22.07,30.12,0,60.24,0,90.36,0,5.41-1.22,6.63-6.56,6.63H6.54c-5.31,0-6.53-1.24-6.53-6.66Q0,325,0,280.21a62.93,62.93,0,0,1,49.11-61.85c15.56-3.62,30.07-9.8,44.11-17.23,2.4-1.27,3.13-7.52.92-9.83-9.58-10-13.1-22.4-14.64-35.66-.2-1.73-.59-3.45-.75-5.18-.39-4.15-1.11-7.23-6.08-9.13-7.75-3-9.84-13-4.92-20,1.36-1.89,1.69-3.37.59-5.34a13.8,13.8,0,0,1-1.18-3.14c-1.35-5-2.64-9.35-9.28-10.44-4.75-.78-7.16-5.58-7.59-10.55-.46-5.15,1.48-9.48,5.94-12.07a6.26,6.26,0,0,0,3.42-5.53c2-19.65,9.89-36.44,24.43-49.94a64.06,64.06,0,0,1,21.84-13.47c2.32-.84,3-2,2.82-4.35-.41-5.2.91-6.51,6-6.52h30.37c5.48,0,6.47,1.18,6.44,6.61,0,1.28.82,3.32,1.8,3.72,29.09,12.09,43.8,34.54,47.45,65.14a5.28,5.28,0,0,0,2,3.43c5.37,3.5,8,8.57,7,14.19S204.36,102.91,198,104C197.12,104.12,196.26,104.2,195.26,104.33ZM177.65,216.24c0,7.64.07,15.13,0,22.62a109.48,109.48,0,0,1-.65,13.07c-2.85,21.42-21,38.62-42.49,40.44-22.28,1.89-43.2-11.87-49.57-33a62.8,62.8,0,0,1-2.27-15.47c-.36-8.9-.1-17.84-.1-26.77L54.15,227V367.28H88.51V363q0-19.87,0-39.74c0-6.61,2.65-8.19,8.73-5.35q36.66,17.18,73.35.07c6-2.8,8.58-1.17,8.58,5.57q0,19.88,0,39.75v3.93h26.95V227Zm-1.36-111.91H86.13c0,4.94.05,9.66,0,14.38-.05,4.11-1.56,5.6-5.61,5.77s-6.32,1.89-6.3,4.83,2.2,4.67,6.38,4.75c3.52.07,5.15,1.71,5.64,5.13,1.15,8,2.43,16,3.75,24,3.17,19.15,20,34.28,38.59,34.84,21.56.64,38.91-12.32,43.25-32.66,1.76-8.28,2.82-16.71,4.25-25.06,1-5.58,1.1-5.7,6.84-6.23,2.84-.26,4.88-1.56,5.17-4.45s-1.47-4.33-4.17-4.78c-.73-.12-1.45-.31-2.18-.38-4.16-.4-5.4-1.69-5.43-5.94C176.25,113.94,176.29,109.33,176.29,104.33Zm39.19,125v138H251c.07-.79.17-1.39.17-2,0-28.59.11-57.19-.07-85.78A52.63,52.63,0,0,0,237.39,244,51.27,51.27,0,0,0,215.48,229.29ZM44.8,367.39V229.19c-1.78.72-3.3,1.2-4.7,1.92-20.54,10.44-30.79,27.39-31,50.26-.23,27.47-.06,54.94-.06,82.42v3.6ZM68.59,77H191.67c-2-21.32-10.7-38.33-27.93-51-.39.7-.58.91-.6,1.13-.14,1.11-.23,2.23-.35,3.35C160.74,49,151,61.68,134.06,68.86a8.62,8.62,0,0,1-5.71.26c-16.22-5.7-26.38-17-30.16-33.79-.66-2.95-.91-6-1.44-9.54C79.24,38.89,70.37,55.88,68.59,77Zm26.67,134-1.38-.6c-.73,1.3-2.11,2.59-2.11,3.9,0,11.73-.35,23.49.44,35.18,1.26,18.76,18.62,33.93,37.91,33.92s36.58-15.11,37.86-34c.82-12.18.49-24.45.44-36.68,0-1.23-1.62-2.47-2.49-3.7l-1,.66a67,67,0,0,1-.1,9c-.3,2.18-1,4.72-2.4,6.28-15.66,17.39-43.42,18.84-61.14,3.58-4.26-3.67-7.13-7.55-6.1-13.46A25.34,25.34,0,0,0,95.26,211.05ZM169.94,328.4c-24.23,9.7-48.16,9.51-72.15-.07v39h72.15ZM118.45,9.12c-.13,7.09-.13,7.09-6.61,9.26a13.32,13.32,0,0,0-3.48,1.31,4.41,4.41,0,0,0-1.93,2.63c-1.48,15.9,7.15,30.78,21.5,36.86a7.35,7.35,0,0,0,5.55,0C146,52.69,153.19,42.4,153.7,28.21c.33-9,2.15-7.37-7.23-10.38-3.3-1-5.17-2.87-4.66-6.54a17.34,17.34,0,0,0,0-2.17ZM104.32,199.85c0,6.22-.11,11.8.08,17.37a5.77,5.77,0,0,0,1.86,3.38c12.8,12.52,35.12,12.46,47.88-.08.75-.74,1.72-1.76,1.75-2.67.16-5.44.08-10.89.08-16.79C138.46,209.74,121.49,209.33,104.32,199.85Zm25.75-105H193.8c1.24,0,2.78.35,3.67-.24,1.39-.91,3.22-2.49,3.22-3.79s-1.77-3-3.17-3.83c-1-.63-2.67-.28-4-.28q-63.36,0-126.71,0c-1.24,0-2.77-.38-3.68.19-1.49,1-3.55,2.53-3.56,3.86s2,2.94,3.51,3.91c.89.58,2.43.18,3.68.19Zm-56,9.74c.77,2.11,1.51,4.13,2.24,6.15C77.18,104.39,77.18,104.39,74,104.56Z"/><path class="cls-1" d="M319.94,102.42c1.07.06,2.82-.21,4.27.32,1.81.67,4.27,1.69,4.79,3.15s-.42,4.19-1.65,5.49q-9.12,9.69-18.79,18.84a7.36,7.36,0,0,0-2.44,7.83c1.56,7.18,2.93,14.42,4.11,21.67.34,2.08,1.36,2.66,3.09,3,7.85,1.43,15.67,3,23.55,4.25a5.6,5.6,0,0,0,4.18-1.36c7-6.79,13.72-13.84,20.73-20.6,1.22-1.18,3.91-2.35,5-1.78a7.21,7.21,0,0,1,3.44,5c1.45,21.66-9.68,40.22-29.45,49.43-1.88.87-2.55,1.82-2.55,3.88.06,36.11,0,72.22.14,108.33a7.63,7.63,0,0,0,2.27,4.65c10.42,10.57,13.85,23.08,9.41,37.13s-14.73,22.3-29.27,24.64c-15,2.42-30.33-6-37.1-19.86A35.7,35.7,0,0,1,290.92,315a8.07,8.07,0,0,0,2.65-6.51q-.1-55.11,0-110.21a7.7,7.7,0,0,0-3.28-6.82c-16.51-13.52-23.07-31-17.73-51.69S292.12,107.07,313,103A61.55,61.55,0,0,1,319.94,102.42ZM303,199.94V306.51c4.47-.64,8.76-1.74,13-1.74s8.57,1.13,13,1.78V202.36Zm10.23-87.15c-17.18.47-33.55,20.38-33.29,39.68.29,21.83,18,40,39.22,40.32,20.44.31,40.23-15.48,40.83-33.2-5.14,5.17-9.81,10.17-14.86,14.76-1.53,1.38-4.25,2.52-6.18,2.22-10.58-1.63-21.09-3.76-31.62-5.71-3-.55-4.75-2.09-5.31-5.34-1.79-10.31-3.76-20.58-5.79-30.85-.63-3.17.29-5.46,2.62-7.65C303.65,122.51,308.24,117.78,313.25,112.79Zm-24,227.58A26.73,26.73,0,1,0,316,313.93,26.45,26.45,0,0,0,289.29,340.37Z"/><path class="cls-1" d="M130,246.12a6.15,6.15,0,0,1,6.1,5.88,6,6,0,0,1-11.9.28A6.14,6.14,0,0,1,130,246.12Z"/><path class="cls-1" d="M136.06,270.64a5.95,5.95,0,1,1-6.08-5.85A6.06,6.06,0,0,1,136.06,270.64Z"/><path class="cls-1" d="M131,21c2.61,0,5.23-.07,7.85,0,2.79.09,4.47,1.6,4.53,4.4S141.84,30,139,30c-5.48.09-11,.1-16.44,0-2.63-.06-4.12-1.68-4.15-4.32,0-2.84,1.56-4.43,4.33-4.57S128.23,21,131,21Z"/><path class="cls-1" d="M130.92,45c-2.62,0-5.24.06-7.85,0-3-.08-4.71-1.61-4.64-4.64C118.49,37.46,120.2,36,123,36q7.84-.06,15.7,0c3,0,4.72,1.62,4.65,4.61-.07,2.8-1.78,4.29-4.58,4.35C136.15,45,133.54,45,130.92,45Z"/><path class="cls-1" d="M316.05,322.92c8.14-2.57,12.22,1.61,15.7,8.43,5.52,10.82,5.46,7.63-.06,18.76-3.46,7-7.88,9.29-15.48,8.86-12.77-.71-9.95,1-16.07-9.52-6-10.4-5.88-7.18-.11-17.57a2.07,2.07,0,0,0,.19-.32C303.08,324.3,307.81,320.31,316.05,322.92ZM315.73,350c2.11-.41,4.72-.13,5.74-1.27,2-2.26,4.35-5.3,4.37-8s-2.36-5.69-4.27-8.07c-.8-1-3.13-1-4.76-1-2.14,0-5.05-.3-6.25.91-2.11,2.12-4.32,5.27-4.35,8s2.22,5.77,4.18,8.07C311.38,349.75,314,349.57,315.73,350Z"/></g></g></svg>