<svg xmlns="http://www.w3.org/2000/svg" viewBox="0 0 155.89 117.03"><defs><style>.cls-1{fill:#52b963;}</style></defs><title>Asset 24</title><g id="Layer_2" data-name="Layer 2"><g id="Layer_1-2" data-name="Layer 1"><path class="cls-1" d="M26.45,104.4a2.7,2.7,0,1,0,0-5.4h0a2.86,2.86,0,0,0-2,.89,2.58,2.58,0,0,0-.81,1.83A2.84,2.84,0,0,0,26.45,104.4Z"/><path class="cls-1" d="M123.45,104.4a2.7,2.7,0,1,0,0-5.4h0a2.86,2.86,0,0,0-2,.89,2.58,2.58,0,0,0-.81,1.83A2.84,2.84,0,0,0,123.45,104.4Z"/><path class="cls-1" d="M3.9,91.64A4.63,4.63,0,0,1,2.71,88a42,42,0,0,0,0-4.77,4.82,4.82,0,0,1,1.17-3.78A4.77,4.77,0,0,1,7.61,78.2c1.74.08,3.48.06,5.31,0H29.4c18.46,0,37.54,0,56.3,0a5.34,5.34,0,0,1,4.09,1.48,5.17,5.17,0,0,1,1.08,4,17.84,17.84,0,0,0,0,3.58,4.74,4.74,0,0,1-5.29,5.66c-10.77-.06-21.73,0-32.33,0H45.72c.09.19.16.38.24.57s.18.4.26.6.14.39.21.59l.24.64a.14.14,0,0,0,0,.06H60.88l42,0s0,0,0-.06c.11-.33.23-.65.35-1,0-.09.06-.18.1-.27.16-.42.33-.83.52-1.24v0l-2.73,0-2.74,0a5.15,5.15,0,0,1-3.82-1.31,5.3,5.3,0,0,1-1.32-3.86c.06-16.08.06-30.94,0-45.45a5.17,5.17,0,0,1,1.31-3.81,5.19,5.19,0,0,1,3.84-1.29c9.65.08,19.47.05,29,0a6.17,6.17,0,0,1,4.89,2.15c6.89,7.9,13,14.86,18.76,21.26a8.05,8.05,0,0,1,2.19,5.73c-.06,6.29-.11,13.74,0,21.34a4.64,4.64,0,0,1-5.34,5.21c-1.69-.05-3.42-.05-5.12,0,.08.18.15.36.22.53s.19.43.27.64.14.38.21.57.17.44.24.67c0,0,0,0,0,0h10.39c1.57,0,1.73-.31,1.74-1.63V80.12q0-8.46,0-16.92a2.15,2.15,0,0,0-.59-1.62l-3.91-4.41c-6-6.73-12.15-13.7-18.12-20.66a5.13,5.13,0,0,0-4.57-2c-13.68.15-24.91.15-35.33,0a3.17,3.17,0,0,0-2.15.56,3.33,3.33,0,0,0-.61,2.31c.07,7.46.06,15,0,22.35,0,2.92,0,5.85,0,8.77,0,5.56-1.26,6.88-6.7,7.06h-.28a4.77,4.77,0,0,1-5.53-5.38c.07-11.86.06-23.94,0-35.61v-11a4,4,0,0,0-.1-1.3,1.41,1.41,0,0,0-1.52-.64,1.35,1.35,0,0,0-.83,1.38q0,8.07,0,16.12,0,9,0,18l0,.14a4.66,4.66,0,0,1-1.36,4.08l-2.19,2.08-4.79-5.09q-3-3.18-6-6.34L58.25,48.7c-9.13-9.62-18.56-19.57-27.88-29.32a6.09,6.09,0,0,1-1.77-6,7.3,7.3,0,0,0,0-2.5l0-.34a11.82,11.82,0,0,0-5-8.21A11.63,11.63,0,0,0,14.35.24,12.23,12.23,0,0,0,5.17,8.06,12.26,12.26,0,0,0,7.07,19.6c4.14,2.59,4,6.79,3.92,9.61,0,.39,0,.77,0,1.15V31c0,.68,0,1.36,0,2a4.31,4.31,0,0,1-3.05,4.46,12.11,12.11,0,0,0-7.64,13,12.42,12.42,0,0,0,8.65,10c4.8,1.27,10.47-.63,12.91-4.31a1,1,0,0,0,.1-1.23,1.18,1.18,0,0,0-1.17-.72c-.41,0-.73.09-1.78,1.16a9.57,9.57,0,0,1-7.56,2.83A9.26,9.26,0,0,1,4.63,54.4a9.39,9.39,0,0,1-1.38-8.53,9.79,9.79,0,0,1,6.56-6.16c3.25-1,3.82-1.75,3.82-5.08v-1.9c0-1.39,0-2.79,0-4.18a3.67,3.67,0,0,1,2.43-3.95A3.88,3.88,0,0,1,20.5,26c.28.34.56.7.82,1.06l1.51,2.09Q37.2,49.1,51.54,69l.06.07a4.37,4.37,0,0,1,1.11,4.24l-.61,2.19H2.1c-2,0-2,.91-2,1.57C0,83,0,88.48.11,93.83c0,1,0,1.51,2,1.53l3.73,0,0,0c.08-.27.18-.53.28-.8s.1-.29.16-.44.24-.58.36-.87l.14-.33A4.38,4.38,0,0,1,3.9,91.64Zm12.63-70h0a9.21,9.21,0,0,1-6.57-2.73A9.64,9.64,0,0,1,7.19,12,9.27,9.27,0,0,1,9.91,5.4a9.57,9.57,0,0,1,6.86-2.63,9.38,9.38,0,0,1,9.31,9.44A9.69,9.69,0,0,1,16.53,21.66ZM37.62,45.39,24.4,26.91a4.31,4.31,0,0,1-.84-4.3l1.31-4,3.37,2.59a25.57,25.57,0,0,1,3.51,3.44l1,1.12Q39,32.32,45.28,38.89q6.06,6.38,12.12,12.76Q65.23,59.9,73,68.22l.69.74A3.67,3.67,0,0,1,75,73.48a3.46,3.46,0,0,1-3.33,2.09,4.93,4.93,0,0,1-.65,0s0,0,0,0H67.51c-1.83,0-3.66,0-5.49,0a5.24,5.24,0,0,1-4.5-2.34Q47.58,59.29,37.62,45.39Z"/><path class="cls-1" d="M15.32,91c-.28.26-.54.53-.81.81l-.24.24c-.26.36-.5.73-.73,1.09-.11.18-.24.35-.35.53-.28.48-.54,1-.77,1.47l-.13.24q-.39.87-.69,1.77c-.06.18-.09.36-.14.54-.13.42-.25.84-.34,1.27l0,.34c0,.34-.07.68-.09,1a15.47,15.47,0,0,0,9.37,15.53,15.15,15.15,0,0,0,17.45-4.1A15.36,15.36,0,0,0,41.44,98.9l0-.1a16.61,16.61,0,0,0-.47-1.71v0c-.2-.57-.42-1.13-.67-1.68l0-.06c-.25-.54-.53-1.08-.84-1.61a.83.83,0,0,1-.07-.13c-.31-.52-.65-1-1-1.54a.83.83,0,0,0-.08-.12,18.35,18.35,0,0,0-6.52-4.58C25.57,85.23,20.21,86.42,15.32,91ZM39,101.76A12.55,12.55,0,0,1,26.3,114.29h0a12.48,12.48,0,0,1-12.64-12.52,12.78,12.78,0,0,1,3.64-9.06,12.58,12.58,0,0,1,18,0A12.83,12.83,0,0,1,39,101.76Z"/><path class="cls-1" d="M39.32,93.57a.83.83,0,0,0,.07.13A.83.83,0,0,1,39.32,93.57Z"/><path class="cls-1" d="M38.24,91.92h0a.83.83,0,0,1,.08.12Z"/><path class="cls-1" d="M14.23,92.05c-.25.35-.47.7-.69,1,.23-.36.47-.73.73-1.09Z"/><path class="cls-1" d="M11.12,98.87v0c.09-.43.21-.85.34-1.27C11.34,98.05,11.21,98.46,11.12,98.87Z"/><path class="cls-1" d="M40.23,95.31l0,.06Z"/><path class="cls-1" d="M40.93,97.05v0Z"/><path class="cls-1" d="M11.6,97.11q.3-.9.69-1.77Q11.9,96.21,11.6,97.11Z"/><path class="cls-1" d="M12.42,95.1c.23-.5.49-1,.77-1.47C12.91,94.11,12.65,94.6,12.42,95.1Z"/><path class="cls-1" d="M41.44,98.88l0-.08,0,.1Z"/><path class="cls-1" d="M112.37,91c-.28.25-.54.53-.81.8l-.24.24c-.26.37-.5.74-.74,1.11-.11.17-.23.33-.33.51a17,17,0,0,0-.8,1.52c0,.06-.07.12-.1.19a14.72,14.72,0,0,0-.69,1.77c-.06.16-.09.33-.14.49-.13.44-.25.87-.35,1.32l0,.34c0,.34-.08.68-.1,1a15.47,15.47,0,0,0,9.37,15.53,15.15,15.15,0,0,0,17.46-4.1,15.38,15.38,0,0,0,3.62-12.82.36.36,0,0,0,0-.1,16.66,16.66,0,0,0-.48-1.71.43.43,0,0,1,0,0c-.19-.56-.41-1.11-.66-1.66,0,0,0,0,0-.07a16.49,16.49,0,0,0-.84-1.61.83.83,0,0,0-.07-.13c-.31-.52-.64-1-1-1.53a.6.6,0,0,0-.09-.13c-2.28-2.23-4.19-3.77-6.53-4.58C122.63,85.23,117.28,86.42,112.37,91ZM136,101.79a12.55,12.55,0,0,1-12.72,12.5h0a12.49,12.49,0,0,1-12.64-12.54,12.78,12.78,0,0,1,3.71-9.1,12.58,12.58,0,0,1,9-3.72h0A12.84,12.84,0,0,1,136,101.79Z"/><path class="cls-1" d="M138,97a.43.43,0,0,0,0,0A.43.43,0,0,1,138,97Z"/><path class="cls-1" d="M111.28,92.05c-.25.35-.47.71-.7,1.07.24-.37.48-.74.74-1.11Z"/><path class="cls-1" d="M137.28,95.31s0,0,0,.07S137.3,95.33,137.28,95.31Z"/><path class="cls-1" d="M108.18,98.87v0c.1-.45.22-.88.35-1.32C108.4,98,108.27,98.44,108.18,98.87Z"/><path class="cls-1" d="M138.49,98.88s0,0,0-.08a.36.36,0,0,1,0,.1Z"/><path class="cls-1" d="M136.37,93.57a.83.83,0,0,1,.07.13A.83.83,0,0,0,136.37,93.57Z"/><path class="cls-1" d="M108.66,97.11a14.72,14.72,0,0,1,.69-1.77A14.72,14.72,0,0,0,108.66,97.11Z"/><path class="cls-1" d="M109.45,95.15a17,17,0,0,1,.8-1.52A17,17,0,0,0,109.45,95.15Z"/><path class="cls-1" d="M135.29,91.92h0a.6.6,0,0,1,.09.13A.75.75,0,0,0,135.29,91.92Z"/><path class="cls-1" d="M103.93,67.16h38.28c1.23,0,1.52-.41,1.76-.9.15-.33.33-.7-.34-1.48L136,56.1q-4.38-5-8.74-10a2.22,2.22,0,0,0-1.89-.82h-21.8c-1.69,0-2,.34-2,2q0,8.71,0,17.43C101.55,66.93,101.77,67.16,103.93,67.16Zm1.41-18a4.56,4.56,0,0,1,3.4-1.22c4.62,0,9.14,0,14.14,0A5.15,5.15,0,0,1,127,49.77c2,2.32,4,4.62,6.21,7.09l6.72,7.65H120.2c-3.78,0-7.56,0-11.34,0h-.16a4.59,4.59,0,0,1-3.37-1.25,4.46,4.46,0,0,1-1.15-3.42c.09-2.21.09-4.62,0-7.36A4.42,4.42,0,0,1,105.34,49.15Z"/></g></g></svg>