<svg xmlns="http://www.w3.org/2000/svg" viewBox="0 0 328.05 144.85"><defs><style>.cls-1{fill:none;}.cls-2{fill:#52b963;}</style></defs><title>Asset 16</title><g id="Layer_2" data-name="Layer 2"><g id="Layer_1-2" data-name="Layer 1"><path class="cls-1" d="M308,11a24.18,24.18,0,0,0-11.77-3.06,23.92,23.92,0,0,0-15.1,5.36c-7.66,6.2-10.81,15.92-7.86,24.17,4.88,13.67,13.35,25.11,22.32,37.22l.62.84c8-10.75,16.13-22.28,21.92-35C324.12,27.35,315.79,15.3,308,11ZM296.13,47.69H296a15.49,15.49,0,0,1-15.56-15.87,15.78,15.78,0,0,1,4.8-11.25,15.35,15.35,0,0,1,11.08-4.45,16.09,16.09,0,0,1,15.69,16A15.89,15.89,0,0,1,296.13,47.69Z"/><path class="cls-1" d="M98.24,42.81a17.2,17.2,0,0,0-3.58-.39,13.56,13.56,0,0,0-10.71,5C66.61,68.28,49.5,89.3,30.55,112.66A38.27,38.27,0,0,0,27.08,118a17.67,17.67,0,0,0,2.36-1.1c.64-.39,1.29-.76,1.95-1.14a63.5,63.5,0,0,0,9.06-6c18.93-16.1,38.11-32.63,57-49.14,3.52-3.08,5.1-7.44,4.69-12.94C101.87,44,99.79,43.15,98.24,42.81Z"/><path class="cls-1" d="M38,124.52l.6,1c1,1.82,2,3.51,2.94,5.18.86,1.49,1.73,3,2.63,4.51,1.93-4,1.35-8.12-1.83-13.61Z"/><path class="cls-1" d="M296.08,28.09a3.92,3.92,0,0,0-2.74,1.25,3.82,3.82,0,0,0-1.13,2.72,3.81,3.81,0,0,0,6.58,2.62,3.56,3.56,0,0,0,.06-5.38A4,4,0,0,0,296.08,28.09Z"/><path class="cls-1" d="M44.72,63.18c-8.22-3.07-16-6-23.84-9.06-1.73-.68-2.91-.89-3.91-.58L46,72.35l5.51-6.66Z"/><path class="cls-1" d="M79,93.37l-6.57,5.47,18.81,28.61a4.63,4.63,0,0,0-.39-3c-2.47-6.21-4.85-12.56-7.15-18.71q-1.47-3.93-3-7.86C80.17,96.4,79.6,94.93,79,93.37Z"/><path class="cls-1" d="M9.39,100.52l10.94,6.3,2.87-4.42C16,98.86,12.32,98.73,9.39,100.52Z"/><path class="cls-2" d="M109.07,40l0-.57c.08-1.71-.36-2.24-2-2.38l-.67,0a7.88,7.88,0,0,1-2.81-.5c-9.47-3.94-17.91-2-25.83,5.83-4.91,4.88-9.57,10.22-14.07,15.39-2,2.28-4.09,2.78-7,1.65-4-1.55-8.09-3.07-12-4.54-6.86-2.55-14-5.18-20.82-8.08-5.24-2.21-9.54-1.6-14.37,2.06a5.88,5.88,0,0,0-2.58,4.59,5.53,5.53,0,0,0,2.34,4.33c1.32,1,2.73,1.91,4.22,2.86.63.4,1.26.8,1.88,1.21L44.23,80.72l-1.31,1.71L41.5,84.29c-1,1.31-1.91,2.53-2.87,3.74-.54.67-1.06,1.46-1.61,2.3-1.53,2.33-3.1,4.73-5.6,5.48-2.78.84-5.92-.58-8.7-1.84-.59-.27-1.18-.54-1.74-.77-6.31-2.61-11-2.53-15.7.26C2,95.43.16,97.05,0,100s1.28,5.21,4.65,7c3.17,1.71,6.3,3.54,9.32,5.31l3.93,2.28,1.3.75-.35,1.45c-.19.79-.4,1.54-.61,2.28a25.86,25.86,0,0,0-.91,4.16,3.83,3.83,0,0,0,1,3.14,4.18,4.18,0,0,0,3.34,1.15,6.33,6.33,0,0,0,2.41-.49,6.43,6.43,0,0,1,3.06-.9,4.27,4.27,0,0,1,1.28.19c1.81.56,2.86,2.21,3.58,3.59,1.91,3.7,4.08,7.48,6.62,11.55a6.55,6.55,0,0,0,9.31,2.33c3.44-2.07,6.7-10.42,5.54-14.19-.55-1.81-1.17-3.65-1.77-5.43-.81-2.41-1.65-4.91-2.37-7.41-.43-1.52-.36-4.35,1.17-5.64,2.78-2.33,5.65-4.47,8.69-6.73L62.4,102l1.65-1.25,2,2.8c.47.67.87,1.23,1.24,1.79l6.27,9.58c4.27,6.52,8.67,13.25,13,19.85A6.77,6.77,0,0,0,91.31,138a3.9,3.9,0,0,0,3.29-1.31c4.77-4.94,6.09-9.39,4.17-14C96,116,93.37,109.1,90.88,102.4c-1.7-4.57-3.46-9.29-5.27-13.89-1.28-3.25-.68-5.63,2-8,5.51-4.8,10.45-9.16,15.08-13.84,6.91-7,9-14.6,6.55-23.37A9.58,9.58,0,0,1,109.07,40ZM10.5,54.12,12,52.38c3.44-4,7.35-3.17,10.37-2,7.82,3.08,15.57,6,23.77,9l9.38,3.5,2.63,1L46.77,77.65Zm-7.9,47.1,1.87-1.84c6.33-6.24,13.06-4.55,22.55.49l1.93,1-7.33,11.3Zm43.14,39.11-1.81,2.38-2.92-5c-1-1.71-2-3.35-2.91-5s-1.92-3.38-3-5.21l-2.43-4.3,10.87-7.18,1.1,1.7C50.45,126.73,50.77,133.69,45.74,140.33Zm41.69-36c2.3,6.13,4.67,12.46,7.13,18.63,1.48,3.71.89,6.64-1.91,9.5l-1.74,1.77L67.11,98.05l13.6-11.31,1.94,5c.64,1.63,1.24,3.17,1.82,4.71C85.47,99.08,86.45,101.71,87.43,104.34Zm12.66-40.69C81.18,80.17,62,96.71,43,112.83a65.79,65.79,0,0,1-9.64,6.4l-1.93,1.13a26.8,26.8,0,0,1-4.45,2c-.62.23-1.24.46-1.84.71l-1.31.53L21,120.39l.78-1.27c.56-.91,1.09-1.85,1.62-2.78a44.53,44.53,0,0,1,4-6.21c19-23.36,36.08-44.39,53.43-65.22,4.53-5.43,11-7.56,18.22-6,4.2.91,6.71,3.93,7,8.5C106.64,54.13,104.55,59.75,100.09,63.65Z"/><path class="cls-2" d="M297.56.08a30.68,30.68,0,0,0-22.62,8A34.05,34.05,0,0,0,263.5,31.3c.42,1.4.8,2.83,1.17,4.21a69.5,69.5,0,0,0,3,9.38c5.81,13.55,14.16,25.48,24.9,39.24,1.16,1.48,2.39,2.27,3.39,2.26,1.23,0,2.32-1.2,3-2.17,7.77-10.9,15.79-22.16,23.08-33.84a42.3,42.3,0,0,0,5.63-15.25,28.55,28.55,0,0,0-5.95-22.5A33.85,33.85,0,0,0,297.56.08Zm24.17,42.13c-6.35,13.89-15.32,26.31-24,37.84l-1.62,2.15L292.33,77c-9.14-12.35-17.78-24-22.87-38.25-3.52-9.85.14-21.36,9.11-28.63a28,28,0,0,1,31.32-2.69C320.77,13.49,328.17,28.12,321.73,42.21Z"/><path class="cls-2" d="M167.2,52.37l-1.42-1.08a2.45,2.45,0,0,0-1.45-.63,1.77,1.77,0,0,0-1.27.68c-.71.74-1.15,1.43.19,2.94a17.71,17.71,0,0,1,1.61,2.19l.23.34.44.63-.08.76c-.26,2.21.17,3,.37,3.18a2.08,2.08,0,0,0,1.63.45,8,8,0,0,0,5.81-2.39,1.72,1.72,0,0,0,.51-1.19,2.66,2.66,0,0,0-.8-1.32C171.12,55.36,169.12,53.84,167.2,52.37Z"/><path class="cls-2" d="M230.91,63.64a1.13,1.13,0,0,1-.1.13,8,8,0,0,0-1.4,2.28c.52,1.16,4.2,3.73,6.09,3.73h0a1.83,1.83,0,0,0,2.07-2C237.25,66.73,233.82,64.06,230.91,63.64Z"/><path class="cls-2" d="M254.93,76c-.44-.24-.89-.51-1.34-.8-2.15-1.34-2.74-1.47-3.53-.79a5.75,5.75,0,0,0-.77,2,27.92,27.92,0,0,0,6.63,3.45c.34-.3.83-.79,1.21-1.17l.39-.4-.26-.27A11,11,0,0,0,254.93,76Z"/><path class="cls-2" d="M137.48,105.79a2.16,2.16,0,0,0-.81.12,3.14,3.14,0,0,0-.89,1.84,11.14,11.14,0,0,0,2.29,5,3.53,3.53,0,0,0,2.46.62,9.76,9.76,0,0,0,1-1.28c.07-.11.15-.21.23-.32-.23-.45-.45-.9-.67-1.35a25,25,0,0,0-2.59-4.53A3,3,0,0,0,137.48,105.79Z"/><path class="cls-2" d="M193.11,108.74a5.4,5.4,0,0,0-2.62,1.7,4.92,4.92,0,0,0-1.11,3,7.31,7.31,0,0,0,.74,3.09,4.41,4.41,0,0,0,2.49-1,10.77,10.77,0,0,0,1.6-3.55c.16-.47.33-1,.52-1.49l-.34-.42A8.84,8.84,0,0,0,193.11,108.74Z"/><path class="cls-2" d="M189.48,86.8h0a1.89,1.89,0,0,0-2.06,2.13c-.05,3.13,2.48,6.36,3.41,6.4,1.58,0,1.9-.63,2-1.31a9.73,9.73,0,0,0-2.34-6.66A1.65,1.65,0,0,0,189.48,86.8Z"/><path class="cls-2" d="M150,44.52a4.2,4.2,0,0,0,2.14-2.11c-.24-1-3.19-3.27-6.56-3.73l-.06.08a7.35,7.35,0,0,0-1.47,2.18C144.45,42.19,148.2,44.87,150,44.52Z"/><path class="cls-2" d="M152.17,66.8a1.81,1.81,0,0,0-.64.09,15.26,15.26,0,0,0-4.43,3.78,3,3,0,0,0-.17,2.09,8.22,8.22,0,0,0,1.42,1.08l.44.29.86-.91a59.44,59.44,0,0,0,4.27-4.86,4.46,4.46,0,0,0-.91-1.43A2.23,2.23,0,0,0,152.17,66.8Z"/><path class="cls-2" d="M182.91,74.79a7.49,7.49,0,0,0,1-1.33l.23-.35c-.28-.4-.55-.79-.81-1.18a36.17,36.17,0,0,0-3.47-4.56,3.16,3.16,0,0,0-1.5.18,3.61,3.61,0,0,0-.84,1.87A15.81,15.81,0,0,0,181,74.74,3.23,3.23,0,0,0,182.91,74.79Z"/><path class="cls-2" d="M152,122.09a4.34,4.34,0,0,0-2.26,2.22c.22,1,3.15,3.18,6.61,3.54l.13-.14a8.16,8.16,0,0,0,1.53-2.09C157.46,124.37,153.65,121.74,152,122.09Z"/><path class="cls-2" d="M137,92.34c1.59.17,2.58-3,3.45-6.9l-.15-.14a6.22,6.22,0,0,0-2.17-1.47h0a1.09,1.09,0,0,0-.58.31,8.66,8.66,0,0,0-2.39,6C135.11,91.86,135.71,92.22,137,92.34Z"/><path class="cls-2" d="M210.67,55.32l-.16.15a5.73,5.73,0,0,0-1.62,2,.91.91,0,0,0,.17.84c.58.85,2.47,2,5.89,2.33a1.93,1.93,0,0,0,2.46-2,1.05,1.05,0,0,0-.31-.83C216.37,56.9,214.3,55.8,210.67,55.32Z"/><path class="cls-2" d="M276.29,83.38c-.52-.12-1-.29-1.57-.46a6,6,0,0,0-2.27-.46,6.48,6.48,0,0,0-2.58,1.15,4.72,4.72,0,0,0,1.46,2.62,7.86,7.86,0,0,0,2.82.81c.54.1,1.11.2,1.74.34l.4-.31c.72-.56,1.62-1.25,1.81-1.79a.94.94,0,0,0,0-.85A2.84,2.84,0,0,0,276.29,83.38Z"/><path class="cls-2" d="M129.72,34.87a10.87,10.87,0,0,0-5.74,0,3.9,3.9,0,0,0-1.24,1.92,8.69,8.69,0,0,0,2.08,1.71c.18,0,.54,0,.78-.06a10,10,0,0,1,1.19-.09h2v.14c1.6-1.17,2.08-1.77,2.21-2.06A3.62,3.62,0,0,0,129.72,34.87Z"/><path class="cls-2" d="M177.79,124a11.38,11.38,0,0,0-5.59,1.59,3.49,3.49,0,0,0-.7,2.18,6.69,6.69,0,0,0,1.34,1.2l.33.25,1.49-.46a17,17,0,0,0,4.16-1.63,3.18,3.18,0,0,0,.72-1.67A3.54,3.54,0,0,0,177.79,124Z"/><path class="cls-2" d="M191.79,57.1h0l-.33-4.29-.08,0a37.17,37.17,0,0,0-4.41,2,6.64,6.64,0,0,0,.14,1A33.46,33.46,0,0,0,191.79,57.1Z"/><path class="cls-2" d="M296.29,20.12h-.19a11.49,11.49,0,0,0-8,3.32,12,12,0,0,0-.27,16.86,11.63,11.63,0,0,0,8.26,3.4h.08A11.88,11.88,0,0,0,308,32.08,12.18,12.18,0,0,0,296.29,20.12Zm5.29,17.43a8,8,0,0,1-5.47,2.32h-.17a8.11,8.11,0,0,1-7.73-7.69,7.81,7.81,0,0,1,2.25-5.6,8,8,0,0,1,5.59-2.48,7.78,7.78,0,0,1,5.53,13.46Z"/></g></g></svg>