<svg xmlns="http://www.w3.org/2000/svg" viewBox="0 0 384.01 383.99"><defs><style>.cls-1{fill:#52ba63;}</style></defs><title>Asset 67</title><g id="Layer_2" data-name="Layer 2"><g id="Layer_1-2" data-name="Layer 1"><path class="cls-1" d="M341.25,0c1.56.68,3.12,1.34,4.67,2,9.95,4.44,15.83,15.47,13.74,25.77-2.33,11.45-11.51,19.28-22.88,19.46-4.1.06-8.21,0-12.57,0V96.08h25.46c1.38,0,2.75,0,4.12,0,4,.2,6.11,2.37,6.17,6.43.2,11.94-8.39,23.66-20.59,27.46-2.91.9-3.67,2.18-3.46,5,.23,3.09,0,6.21,0,9.53a52.83,52.83,0,0,1,24.15,8.89C375.57,164.21,383.91,179,384,198q.15,77.61,0,155.23c0,18-12.7,30.7-30.62,30.71q-46.87,0-93.74,0c-18.46,0-31-12.35-31.24-30.93-.16-14.62,0-29.25,0-43.87,0-34.87.3-69.75-.13-104.61-.23-19,4.85-35.43,19.71-48-.22-.32-.36-.67-.49-.67-11.43,0-23-1.66-34.13,2.4A42,42,0,0,0,185.87,196c-.08,2-.11,4-.11,6q0,66.18,0,132.36c0,14.53-9.69,25.33-22.8,25.64a23.85,23.85,0,0,1-24.79-23.24c-.05-1.25,0-2.5,0-3.75V147.74c0-.5,0-1,0-1.5,0-5.15,2.12-8.07,5.79-8.06s5.7,2.87,5.7,8.11q0,93,0,186c0,1.75,0,3.51.14,5.24A12.2,12.2,0,0,0,173.62,340a23.52,23.52,0,0,0,.55-6.29q0-67.31,0-134.61c0-25.57,16.13-46.77,40.37-53A62,62,0,0,1,229,144.22c14.37-.23,28.74-.08,43.12-.08h4.4c0-4,.2-7.66-.13-11.22-.09-.95-1.69-2.17-2.83-2.55-12.18-4.05-20.38-14.48-21-26.91-.25-5.15,1.8-7.35,7-7.37,9.48,0,19,0,28.7,0V47.28c-4,0-7.88,0-11.72,0-12-.09-22-8.26-23.77-19.3-2-12.5,4.87-23.38,17.06-27.18A12,12,0,0,0,271.5,0ZM239.87,274.87q0,39.18,0,78.37c0,11.76,7.68,19.49,19.44,19.51q46.88.06,93.74,0c11.87,0,19.64-7.88,19.69-19.8.05-10.12,0-20.25,0-30.37q0-61.68,0-123.36c0-24.33-17.45-42.69-41.73-43.4-16.49-.49-33-.12-49.49-.08a36.69,36.69,0,0,0-6.71.56c-20.84,4-34.82,20.77-34.92,42.08C239.78,223.88,239.87,249.37,239.87,274.87ZM306,36c9.87,0,19.73,0,29.6,0,7.39,0,12.91-5.19,13.1-12.11s-5.47-12.6-13-12.63q-29.42-.13-58.82,0c-7.68,0-13,5.32-13,12.53S269.38,36,277.14,36C286.76,36.05,296.37,36,306,36Zm-40.68,71.69A16.6,16.6,0,0,0,280.56,120q25.63.27,51.29,0c7.11-.07,13.89-5.76,15.24-12.29ZM312.4,95.9V47.46H300.15V95.9Zm-24.33,48h36.37V131.85H288.07Z"/><path class="cls-1" d="M0,33.75C1.71,30.9,4.18,29.94,7.52,30c19.11.12,38.22.08,57.33,0,3,0,5.59,1,6.05,3.85.33,2-.84,4.39-1.93,6.26-.49.83-2.45,1.11-3.74,1.12-19.73.06-39.46.13-59.19-.09-2,0-4-1.88-6-2.89Z"/><path class="cls-1" d="M50.25,0C56,2.49,61.8,5,67.6,7.45c3.79,1.59,7.66,3,11.45,4.6s5.21,4.51,4,7.72c-1.18,3.05-4.45,4.25-8.18,2.79q-13.76-5.4-27.45-10.94C40.77,9,40.15,4.44,45.75,0Z"/><path class="cls-1" d="M147.16,18q19.13,0,38.24,0c7.44,0,12.78,3.37,16.48,9.78A5.15,5.15,0,0,0,205.46,30c15.79.93,28.41,14.1,28.37,29.82a29.57,29.57,0,0,1-28.48,29.48c-11.61.34-23.23.1-34.85.13-13.6,0-20.82,7.23-20.87,20.8,0,3.12.11,6.25-.08,9.36-.22,3.86-2.49,6-5.88,5.88-3.12-.11-5.46-2.37-5.48-5.94,0-5.48-.15-11,.6-16.43a29.18,29.18,0,0,1,28.47-25c12-.18,24,0,36-.06,10.27,0,18.18-6.93,18.93-16.45.81-10.34-5.61-18.39-15.94-20.12-2.24-.38-3.48,0-4.65,2.29-3.17,6.12-8.4,9.49-15.39,9.51q-39,.09-78,0c-7.31,0-12-5-12.13-12.34q-.07-5.25,0-10.5c.1-7.51,5-12.4,12.47-12.42C121.42,18,134.29,18,147.16,18ZM131.77,42c18.33,0,36.31,0,54.29,0a5.93,5.93,0,0,0,6.1-5.85,6.21,6.21,0,0,0-5.6-6.76,13.9,13.9,0,0,0-2.24-.09H134.48c-.84,0-1.68.13-2.71.22ZM119.92,29.57H107.7V41.84h12.22Z"/><path class="cls-1" d="M83.31,55.14c-.73.8-1.84,3-3.58,3.8-9.85,4.21-19.81,8.14-29.8,12a5.57,5.57,0,0,1-7.46-3.11,5.46,5.46,0,0,1,3.25-7.34c10-4.12,20.06-8.19,30.18-12.05C79.73,47,83.37,49.81,83.31,55.14Z"/><path class="cls-1" d="M306.22,311.94c-12.37,0-24.75,0-37.12,0-13.61,0-20.74-12.08-14-23.87q18.58-32.49,37.43-64.84c6.74-11.56,20.61-11.46,27.47.09,1.14,1.93,2.29,3.87,3.24,5.9,1.4,3,.37,5.49-2.29,7.06a5.22,5.22,0,0,1-7.32-1.46c-1.34-1.78-2.29-3.86-3.47-5.77-2.36-3.81-5.58-3.93-7.77-.15Q283.62,261.29,265,293.74c-2.32,4-.68,6.83,4.09,6.84q37.11.07,74.23,0c5.18,0,6.59-2.72,3.94-7.34-6.9-12-13.86-24-20.77-36a17.57,17.57,0,0,1-1.76-3.69,5.08,5.08,0,0,1,2.66-6.34,5.3,5.3,0,0,1,6.83,1.12,14.05,14.05,0,0,1,1.68,2.46c7.12,12.32,14.27,24.62,21.32,37s0,24.15-14.22,24.17Q324.58,312,306.22,311.94Z"/><path class="cls-1" d="M300.66,259.52c0-2.12-.11-4.24,0-6.35.21-3.19,2.56-5.6,5.47-5.48,3.11.13,5.4,1.87,5.63,5a97.4,97.4,0,0,1,0,14.19c-.23,3-2.43,4.83-5.65,4.84s-5.24-2.07-5.45-5.43C300.54,264,300.66,261.77,300.66,259.52Z"/><path class="cls-1" d="M311.92,284.39a5.82,5.82,0,0,1-5.67,5.78,5.66,5.66,0,0,1-5.6-5.77,5.33,5.33,0,0,1,5.38-5.48A5.65,5.65,0,0,1,311.92,284.39Z"/></g></g></svg>