<svg xmlns="http://www.w3.org/2000/svg" viewBox="0 0 336.64 405.58"><defs><style>.cls-1{fill:none;}.cls-2{fill:#52b963;}</style></defs><title>Asset 32</title><g id="Layer_2" data-name="Layer 2"><g id="Layer_1-2" data-name="Layer 1"><path class="cls-1" d="M47.81,362.28c-13.83,1.65-26.8,13.57-30,27.13H213.55c0-.13-.06-.25-.1-.37-4.71-16.67-19.64-27.45-38-27.47-35.34-.05-73.26-.05-115.92,0A101.8,101.8,0,0,0,47.81,362.28Z"/><path class="cls-1" d="M132.41,296.6c-6.22-3.22-12.38-6.31-18.9-9.57l-3.16-1.59L92.86,341.25h39.93v-6.34c0-12.87,0-25-.06-37.45A1.93,1.93,0,0,0,132.41,296.6Z"/><path class="cls-1" d="M157.58,177.56c-7.18-6.44-18.26-7.1-25.23-1.81l28.48,28.71C166.51,195.68,165.27,184.46,157.58,177.56Z"/><path class="cls-1" d="M229.43,114.58h.13a7.33,7.33,0,0,0,7.62-7.41,7.65,7.65,0,0,0-7.51-7.82h-.18a7.36,7.36,0,0,0-5.12,2.06,7.84,7.84,0,0,0-2.4,5.52,7.5,7.5,0,0,0,2,5.41A7.6,7.6,0,0,0,229.43,114.58Z"/><path class="cls-1" d="M196.62,256.46c-30.2-18.9-58-43.2-85-74.29-19.44-22.4-33.06-42.42-42.85-63-3.23-6.78-5.9-13.88-8.48-20.75-.62-1.66-1.26-3.36-1.9-5-12.2,26.43-14,54.53-5.43,85.81A143.14,143.14,0,0,0,89.4,242.26c34.84,35.56,75.95,50.95,122.18,45.75a99.82,99.82,0,0,0,32.22-9.36l-4-1.43c-6.31-2.26-12.28-4.4-18.16-7.11A227.94,227.94,0,0,1,196.62,256.46Z"/><path class="cls-2" d="M271.79,185c-2.41-4-5.15-8.28-8.4-13-1.75-2.52-3.87-3.41-6.49-2.72-1.69.44-4.53,1.69-4.46,5.1,0,2,1.18,4.25,2.35,6.41,2.29,4.22,4.7,8.48,7,12.6,4.31,7.62,8.77,15.49,12.68,23.51,5.25,10.79,7.66,21.49,7.17,31.8-.46,9.62-6.63,15.9-15.71,16a69.47,69.47,0,0,1-17.87-1.93c-19.1-4.94-35.74-15-49.49-24.19-6.13-4.1-12.14-8.58-18-12.91-2.65-2-5.3-3.95-8-5.91l-1.6-1.16L172.2,217c10.38-14.64,11.19-29.15,2.46-44.34l-.76-1.33,1.08-1.09,9.86-9.83c9.44-9.41,19.21-19.14,28.67-28.79,2.72-2.77,5.24-3.33,9-2a23.73,23.73,0,0,0,30.86-23.85c-1-10.27-6.09-17.29-15.29-20.86s-18-1.77-25.18,5.29-9,15.45-5.61,25.11c1,2.91.6,4.93-1.46,7-8.9,8.82-17.9,17.82-26.61,26.54l-11.6,11.59a8.51,8.51,0,0,1-1.32,1l-.37.26-1.05.77-1.13-.64c-15-8.57-29.3-7.84-43.61,2.22l-1.27.89-1.18-1-.41-.33a5.47,5.47,0,0,1-.94-.88c-14.88-18.51-25.61-35-33.76-51.81-4.44-9.16-9.65-21.42-10.5-34.91-.44-7,1.31-12.62,5-16.23s9.05-5,15.65-4.32a94.76,94.76,0,0,1,22.14,5.1c22.73,8.21,42,21.69,57.87,33.8l.23.18a30.55,30.55,0,0,0,5,3.36,6,6,0,0,0,6.13-.5,5.07,5.07,0,0,0,2.06-4.92,9.76,9.76,0,0,0-3.62-5.68l-1.39-1c-10.1-7.38-20.54-15-31.28-21.68C131.18,52.41,114.8,45.93,98.43,43.68c-14.44-2-25.2,1.69-33.86,11.54-18.54,21.1-29,44.67-31.94,72.06a148.9,148.9,0,0,0,8.64,68.17C51.85,224,69.6,248.59,94,268.51c2.74,2.24,3.41,4.52,2.32,7.89-3.36,10.29-6.65,20.81-9.84,31l-2.43,7.78c-2.09,6.66-4.17,13.33-6.27,20.06l-3.24,10.38H73.09l-6.65,0c-4.8,0-9.34,0-13.95,0-27.32.42-50.85,23-52.45,50.3-.28,4.84.9,7.68,4.07,9.67H227c3.36-2,4.65-4.89,4.08-9-.15-1.08-.28-2.15-.41-3.22-.11-.91-.22-1.82-.34-2.73-2.92-21.69-22.42-41.44-43.48-44a184.22,184.22,0,0,0-21.53-.9c-3.21,0-6.52,0-9.79-.11-1,0-2,0-3.06,0H149V299.87l2.29.33c3.8.55,7.64,1.2,11.35,1.83a215.85,215.85,0,0,0,24.41,3.17c33.44,1.73,62.89-7.25,87.52-26.69,6.74-5.32,12-10.73,15.49-16.09,5.32-8,4.48-17.9,3-26.48C289.65,216.87,280.82,200.18,271.79,185ZM221.6,98.52a11.3,11.3,0,0,1,8.17-3.17,11.6,11.6,0,0,1,11.41,11.87,11.32,11.32,0,0,1-11.62,11.36h-.18A11.31,11.31,0,0,1,218,106.84,11.8,11.8,0,0,1,221.6,98.52ZM128,174.21c8.37-8.23,22.83-8.07,32.23.37,9.84,8.83,10.87,23.53,2.4,34.21l-1.4,1.76-34.66-34.93ZM107.94,279.76l7.36,3.69c6.57,3.29,12.78,6.4,19.06,9.66a5.2,5.2,0,0,1,2.37,4.33c.07,12.44.07,24.59.06,37.47v10.34H87.41Zm67.5,77.81c20.21,0,36.64,11.95,41.86,30.38a20.19,20.19,0,0,1,.44,2.05c.06.32.12.66.19,1l.47,2.39H13.08l.35-2.3c2.42-16.15,17.64-30.86,33.91-32.8a105.33,105.33,0,0,1,12.18-.73C102.18,357.53,140.1,357.52,175.44,357.57Zm74.29-77.45A104.27,104.27,0,0,1,212,292a158.6,158.6,0,0,1-17.8,1c-40.32,0-76.47-16.08-107.69-47.94a147.23,147.23,0,0,1-37.43-64.84C40,146.94,42.29,117.11,56,89c.3-.62.65-1.21.81-1.48l2-3.73,1.6,3.89c1.22,3.07,2.41,6.24,3.56,9.31,2.55,6.78,5.18,13.8,8.34,20.44,9.63,20.25,23.06,40,42.26,62.1,26.73,30.78,54.23,54.83,84.09,73.52a223.17,223.17,0,0,0,24.63,13.4c5.72,2.64,11.6,4.75,17.83,7,2.71,1,5.51,2,8.29,3l4.12,1.55Z"/><path class="cls-2" d="M336.37,102.88c-.61-7.15-1.24-14.55-3-21.48C321.86,34.88,281,1.41,234,0h-3.15c-4.3,0-6.85,2.08-7,5.64-.22,4.8,3.53,6.12,6.71,6.37l2.48.2c3.93.3,8,.62,12,1.3,30.63,5.27,53.84,22.1,69,50,6.47,11.93,10,25.89,10.72,42.68.21,4.55,2.36,6.78,6.35,6.59a5.72,5.72,0,0,0,4.15-1.84,7,7,0,0,0,1.43-5.39Z"/><path class="cls-2" d="M232.92,55C252.38,56.44,267,66.12,276.36,83.8a48.42,48.42,0,0,1,5.39,21.56c.1,2.76.88,4.88,2.26,6.12a5.8,5.8,0,0,0,4.52,1.3,5.3,5.3,0,0,0,3.82-1.81c1.23-1.46,1.74-3.69,1.48-6.45l-.17-1.87a67.07,67.07,0,0,0-1.41-10.07c-6.95-28.27-28.7-46.86-58.17-49.74-.84-.08-1.64-.13-2.39-.13-2.75,0-4.83.55-6.11,1.62a5.17,5.17,0,0,0-1.72,3.76,5.5,5.5,0,0,0,1.06,4.22C226.22,53.83,228.91,54.74,232.92,55Z"/><path class="cls-2" d="M242.46,147.81h-.1a6.38,6.38,0,0,0-4.44,1.81,5.57,5.57,0,0,0-1.71,4,6.57,6.57,0,0,0,6.14,6.16h0a6.12,6.12,0,0,0,5.77-6A5.78,5.78,0,0,0,242.46,147.81Z"/></g></g></svg>