<svg xmlns="http://www.w3.org/2000/svg" viewBox="0 0 274.34 124.26"><defs><style>.cls-1{fill:none;}.cls-2,.cls-3{fill:#52b963;}.cls-3{font-size:24px;font-family:RobotoSlab-Regular, Roboto Slab;}</style></defs><title>Asset 22</title><g id="Layer_2" data-name="Layer 2"><g id="Layer_1-2" data-name="Layer 1"><path class="cls-1" d="M23.68,96.37v9.24H34.14c3,0,6.62,0,10.3,0A4.5,4.5,0,0,0,48,103.43a19.86,19.86,0,0,0,1.32-3.11c.17-.46.3-.84.45-1.23l1.06-2.72Z"/><rect class="cls-1" x="43.09" y="18.93" width="115.63" height="57.33"/><path class="cls-1" d="M198.08,96.43v9.17H205c1.79,0,3.15,0,4.44-.07a4.26,4.26,0,0,0,3.32-2.11,24.36,24.36,0,0,0,1.28-3.07c.15-.41.29-.81.45-1.22h0l1.05-2.72Z"/><path class="cls-1" d="M35.74,76.36l1.89-.11v-57L35.9,19c-10.43-1.4-22.24,4.48-27.48,13.68-6,10.59-5.5,23.15,1.38,32C16.3,73,25,77,35.74,76.36Z"/><path class="cls-1" d="M108.49,98.89c1.59,6.09,2.36,6.72,8.28,6.72h42V96.38h-50.9Z"/><path class="cls-1" d="M93.5,96.25h-.09A12,12,0,0,0,85,99.94a11.63,11.63,0,0,0-3.37,8.39,12,12,0,0,0,12,11.71,11.8,11.8,0,0,0,11.81-12A11.94,11.94,0,0,0,93.5,96.25Z"/><rect class="cls-1" x="164.15" y="96.45" width="28.42" height="13.66"/><path class="cls-1" d="M161.92,81.64H33.35v9.19H168l.19-1.78c.35-3.21.53-4.82-.64-6.13S164.83,81.64,161.92,81.64Z"/><path class="cls-1" d="M64.91,96.26h-.33A11.89,11.89,0,0,0,64.11,120h.31a11.89,11.89,0,0,0,.49-23.77Z"/><path class="cls-1" d="M201.63,56.11a41.1,41.1,0,0,1-1.38,4c-4.53,10.69-12.1,17.36-23.13,20.41a4.88,4.88,0,0,0-3.36,3.25,15.48,15.48,0,0,0-.17,3.7c0,.45,0,.87,0,1.3v2h48.11V52.69h-19l-.45,1.38Q201.93,55.09,201.63,56.11Z"/><path class="cls-1" d="M168.82,76.39c9.73,0,19.76-5.63,24.38-13.68,6.2-10.82,5.84-21.78-1.06-31.7-6-8.57-14.73-12.67-26.06-12.23l-1.92.07V76l1.76.21A23,23,0,0,0,168.82,76.39Z"/><path class="cls-1" d="M217.28,108a11.9,11.9,0,0,0,11.8,12h0a12,12,0,0,0,8.46-3.39,11.73,11.73,0,0,0,3.53-8.38,11.92,11.92,0,0,0-11.75-12l-.1-.5v.5A12,12,0,0,0,217.28,108Z"/><path class="cls-1" d="M263.81,76.89c-3,0-5.87,0-8.79,0C243.9,76.76,237.29,70.74,236.4,60a153,153,0,0,1-.16-16.45l.07-2.75c.05-1.87.59-2.89,3.35-2.91,3.83,0,7.66,0,11.5,0h7.06L258,35.65c-.39-4.52-2.94-7.16-7-7.23-5.12-.08-10.13-.07-15.43-.05h-.36l-6.05,0h-2V90.71l1.81.18c8.62.82,13.87,4.71,16.53,12.22a4.06,4.06,0,0,0,3.44,2.44c3.87,0,7.72.06,11,.06h10V91.34h-3.42c-.91,0-1.75,0-2.59,0-3.15-.06-3.21-1.79-3.23-2.44-.06-1.71,1-2.63,3.21-2.74.94-.05,1.91,0,2.78,0H270V76.89h-6.15Z"/><path class="cls-1" d="M246.93,43H241.5v2c0,1.61,0,3.18,0,4.73v.14c0,3.65-.09,7.11.11,10.62.33,5.61,4.23,10.18,9.1,10.65,1.85.18,3.87.26,6.33.26,1.58,0,3.14,0,4.69-.06s3.2-.07,4.82-.07h2.69l-2.08-6.94c-1.84-6.18-3.74-12.54-5.68-18.78a4,4,0,0,0-3.43-2.5C254.25,43,250.53,43,246.93,43Z"/><rect class="cls-1" x="125.37" y="4.43" width="18.7" height="8.88"/><path class="cls-2" d="M274,72.72c-3.81-12.88-7.75-26.19-11.79-39.47-1.88-6.17-5.8-9.06-12.35-9.09-4.74,0-9.48,0-14.22,0h-6.3c-4.76-.05-5.81.27-6,.46-.45.49-.45,4.24-.45,5.84V48.13H202l-.28-2.69c-1.58-15.32-11.25-26.74-25.26-29.8a63.89,63.89,0,0,0-12.74-1c-1.9,0-3.86,0-5.81-.13-1.39-.06-2.85,0-4.27,0l-2.19,0h-3v-6c0-2.09,0-4,0-5.87,0-2.34-.32-2.64-2.7-2.65-7.21,0-14.57,0-21.87,0-2.31,0-2.76.24-2.78,2.9,0,1.9,0,3.79,0,5.77v5.84H90.65q-27.93,0-55.86,0c-16.2,0-29,9.05-33.38,23.57C1,39.33.72,40.56.39,41.87L0,43.37v8.27A5.76,5.76,0,0,1,.44,53C2.6,64.27,8.59,72.22,18.77,77.26a55.1,55.1,0,0,0,5.49,2.23c.93.34,1.84.68,2.74,1l1.9.75V92H21.63c-3.16,0-6.42,0-9.7,0-2.15,0-2.17,1.06-2.17,1.55s0,1.57,2.31,1.64c.89,0,1.78,0,2.62,0h3.19l.77,1.86a1.47,1.47,0,0,0,.12.25A3.82,3.82,0,0,1,19.19,99q0,3.58.06,7.15c0,3.4.22,3.6,3.5,3.62,6.11,0,13.6.06,20.76,0a5.72,5.72,0,0,1,6,4,16,16,0,0,0,8.37,9.1,15.55,15.55,0,0,0,12,.27,28.27,28.27,0,0,0,5.18-2.93l1.49-1,0-.46,1.8-.61a3.1,3.1,0,0,1,3,.56l3.75,2.36-.57.34a16,16,0,0,0,24.25-8.09c.77-2.38,3.74-3.5,5.51-3.51,14.38-.09,28.39-.09,41.65,0a7,7,0,0,1,3.72,1.36l.1.06c.22.13.43.27.64.37.8.39,1.54.84,2.26,1.28a8.82,8.82,0,0,0,3,1.42c8.84.36,17.72.23,25.25.05a5,5,0,0,0,2.94-1c3.07-3.59,6.78-3.86,10-3.65a33.88,33.88,0,0,0,4.28,0h.49a5.48,5.48,0,0,1,5.48,3.94,16,16,0,0,0,30.07,0,5.46,5.46,0,0,1,5.75-4h0c6.81.06,14,.06,21.3,0,2.79,0,3-.21,3-2.91,0-10,0-20.71,0-31.47A9.91,9.91,0,0,0,274,72.72ZM262.39,45.26c1.93,6.24,3.83,12.6,5.67,18.75l2.47,8.26h-4c-1.61,0-3.21,0-4.78.07s-3.15.06-4.73.06c-2.5,0-4.54-.08-6.43-.26-5.35-.52-9.65-5.5-10-11.59-.21-3.55-.16-7-.12-10.7v-.14c0-1.54,0-3.11,0-4.71V42h6.42c3.61,0,7.34,0,11.1,0A5,5,0,0,1,262.39,45.26ZM163.16,17.89l2.88-.11c11.7-.46,20.75,3.79,26.92,12.66,7.13,10.26,7.52,21.59,1.11,32.77-4.79,8.35-15.18,14.18-25.25,14.18a23.37,23.37,0,0,1-3-.19l-2.63-.32ZM124.37,3.43h20.71V14.31H124.37ZM42.09,17.93H159.72V77.26H42.09ZM9,65.27C1.88,56.1,1.31,43.1,7.55,32.15,13,22.62,25.22,16.53,36,18l2.6.35V77.19l-2.83.16c-.75.05-1.48.07-2.21.07C23.54,77.42,15.27,73.33,9,65.27Zm41.27,35.3a21.4,21.4,0,0,1-1.41,3.35,5.47,5.47,0,0,1-4.42,2.64c-3.68,0-7.28,0-10.31,0H22.68V95.37h29.6l-1.59,4.08C50.55,99.83,50.41,100.2,50.28,100.57ZM64.42,121h-.33a13,13,0,0,1-12.54-13,12.8,12.8,0,0,1,4-9.13,13,13,0,0,1,9.41-3.65A12.89,12.89,0,0,1,64.42,121Zm42-13a12.85,12.85,0,0,1-3.68,9.23,12.66,12.66,0,0,1-9,3.82h-.11a13,13,0,0,1-13-12.69,12.65,12.65,0,0,1,3.65-9.11,13.08,13.08,0,0,1,9.13-4h.1A12.94,12.94,0,0,1,106.42,108Zm53.32-1.38h-43c-6.35,0-7.56-1-9.25-7.47l-1-3.76h53.2ZM32.35,91.83V80.64H161.92c3,0,5,0,6.41,1.62s1.25,3.61.9,6.9l-.3,2.67Zm161.22,19.28H163.15V95.45h30.42ZM172.63,91.79v-3c0-.42,0-.83,0-1.24a16.2,16.2,0,0,1,.19-4,5.86,5.86,0,0,1,4.07-4c10.72-3,18.08-9.45,22.48-19.84a37.43,37.43,0,0,0,1.34-3.92c.21-.69.42-1.38.64-2.06l.68-2.07h20.75v40.1Zm42.31,8.91a24.79,24.79,0,0,1-1.33,3.21,5.22,5.22,0,0,1-4.18,2.64c-1.29,0-2.67.07-4.47.07h-7.88V95.43H217l-1.58,4.08C215.23,99.91,215.08,100.31,214.94,100.7Zm23.3,16.66a12.91,12.91,0,1,1-9-22.11h.11a12.93,12.93,0,0,1,12.74,13A12.71,12.71,0,0,1,238.24,117.36ZM271,87.14h-4.32c-.86,0-1.81,0-2.72,0-2.32.12-2.28,1.15-2.26,1.7s0,1.44,2.25,1.48c.83,0,1.67,0,2.57,0h4.42V106.6h-11c-3.26,0-7.11,0-11-.06a5,5,0,0,1-4.37-3.1c-2.52-7.11-7.5-10.79-15.68-11.57l-2.72-.26V27.39h3l6.05,0h.36c5.3,0,10.31,0,15.45.05,4.63.08,7.54,3,8,8.15l.28,3.26h-8.15c-3.84,0-7.67,0-11.5,0-2.21,0-2.32.61-2.35,1.93l-.07,2.76a153.26,153.26,0,0,0,.16,16.33c.84,10.22,7.1,15.9,17.63,16,2.91,0,5.82,0,8.78,0H271Z"/><rect class="cls-2" x="53.33" y="16.74" width="2.85" height="36.45"/><rect class="cls-2" x="69.24" y="16.74" width="3.1" height="36.45"/><rect class="cls-2" x="61.23" y="29.51" width="3" height="18.23" transform="translate(24.1 101.36) rotate(-90)"/><rect class="cls-2" x="61.23" y="36.51" width="3" height="18.23" transform="translate(17.1 108.36) rotate(-90)"/><rect class="cls-2" x="61.17" y="21.57" width="3.11" height="18.23" transform="translate(32.04 93.41) rotate(-90)"/><rect class="cls-2" x="61.33" y="13.41" width="2.79" height="18.23" transform="translate(40.21 85.25) rotate(-90)"/><circle class="cls-2" cx="93.52" cy="108.11" r="3.27"/><circle class="cls-2" cx="64.44" cy="108.15" r="3.27"/><circle class="cls-2" cx="229.18" cy="108.11" r="3.27"/><text class="cls-3" transform="translate(89.81 58.83)">GAS </text></g></g></svg>