<svg xmlns="http://www.w3.org/2000/svg" viewBox="0 0 410.16 176.44"><defs><style>.cls-1{fill:none;}.cls-2{fill:#52b963;}.cls-3{fill:#25d366;}</style></defs><title>Asset 10</title><g id="Layer_2" data-name="Layer 2"><g id="Layer_1-2" data-name="Layer 1"><path class="cls-1" d="M274.83,143.42h-.13a9.76,9.76,0,0,0-9.7,9.64,9.43,9.43,0,0,0,2.9,6.76,9.8,9.8,0,0,0,7.13,2.79,9.61,9.61,0,0,0,9.48-9.76,9.4,9.4,0,0,0-2.9-6.63A9.64,9.64,0,0,0,274.83,143.42Zm0,17.39h0a7.88,7.88,0,0,1-7.86-7.65,7.79,7.79,0,0,1,2.27-5.57,7.93,7.93,0,0,1,5.68-2.36,7.79,7.79,0,0,1-.05,15.58Z"/><rect class="cls-1" x="14.25" y="14.06" width="270.1" height="66.33"/><path class="cls-1" d="M371.58,61.65c-2.87,0-5.73,0-8.73,0h-.18V80.42h28c-1.12-2.84-2.2-5.55-3.33-8.26-.58-1.36-1.05-2.8-1.5-4.19-.84-2.56-1.79-5.47-3-6.32-1-.7-4.25-.44-6.59-.24C374.72,61.53,373.13,61.66,371.58,61.65Z"/><path class="cls-1" d="M51.85,143.42h-.12a10,10,0,0,0-7,3,9.36,9.36,0,0,0-2.84,6.68,10,10,0,0,0,9.88,9.48h0a9.67,9.67,0,0,0,9.69-9.54h0A9.75,9.75,0,0,0,51.85,143.42Zm-.09,17.38h0a7.86,7.86,0,0,1-7.86-7.65,7.7,7.7,0,0,1,2.27-5.57,7.8,7.8,0,1,1,5.63,13.22Z"/><path class="cls-1" d="M149.36,143.41h-.14a9.76,9.76,0,0,0-9.65,9.67,9.66,9.66,0,0,0,9.71,9.52h0a9.94,9.94,0,0,0,9.88-9.49,9.42,9.42,0,0,0-2.86-6.7A10,10,0,0,0,149.36,143.41Zm.08,17.4h0a7.88,7.88,0,0,1-7.86-7.65,7.74,7.74,0,0,1,2.27-5.57,8,8,0,0,1,5.68-2.36,7.79,7.79,0,0,1-.05,15.58Z"/><path class="cls-1" d="M27.77,118.65c.14,6.1-4.21,10.64-10.56,11.06-1,.07-2,.08-3,.08v5.63h.12c3.83,0,7.46,0,11.13-.08a1.85,1.85,0,0,0,.28-.28c6.85-8.64,16-13.42,25.81-13.46h.14c9.83,0,19.09,4.76,26.09,13.43a2.06,2.06,0,0,0,.65.3c15.68.13,30.18.12,44.23,0a2.33,2.33,0,0,0,.88-.58c6.59-8.32,16-13.1,25.87-13.1h0c9.83,0,19.22,4.77,25.76,13.07a2.71,2.71,0,0,0,1.29.61c3.27.19,6.6.16,10.13.12H187V102.83H14.13v5.29c1,0,2.06,0,3.11.07C23.31,108.55,27.64,112.85,27.77,118.65Z"/><path class="cls-1" d="M358.44,143.42h-.06a9.6,9.6,0,1,0,0,19.19h.12a9.86,9.86,0,0,0,9.76-9.6A10,10,0,0,0,358.44,143.42Zm.29,17.39h0a7.88,7.88,0,0,1-7.86-7.65,7.79,7.79,0,0,1,2.27-5.57,7.93,7.93,0,0,1,5.68-2.36,7.79,7.79,0,0,1,0,15.58Z"/><path class="cls-1" d="M340.42,89.71c-.09-12.64-.09-25.17,0-37.25.06-8.54,4.41-12.72,13.3-12.79,6,0,11.86,0,18.09,0h2.25c-.73-1.81-1.45-3.56-2.22-5.25-10.77-.07-21.42-.07-32.69-.06H334.7V50.82q0,18.93,0,37.87c0,9.7-4.19,13.84-14,13.85H237.19v5.55h.05c4.5.06,12.86.16,13.47,10.75.49,8.27-6.31,10-13.47,10.82v5.74h.14c3.83,0,7.47,0,11.13-.08.12-.13.27-.3.45-.53,6.5-8.35,15.91-13.15,25.81-13.16h0c9.89,0,19.28,4.76,25.78,13.07a2.62,2.62,0,0,0,1.2.6c9.25.17,19,.18,29.64,0a2.6,2.6,0,0,0,1-.35c8.63-11.07,20.15-15.31,33.32-12.27s21.68,12.25,24.18,26H396v-19c-4.48,0-13.3-.24-13.4-10.76,0-3.37.89-6,2.74-7.89,2.94-3,7.21-3,10.67-3v-5.56H383.55q-14.94,0-29.89,0C344.81,102.51,340.47,98.32,340.42,89.71Z"/><path class="cls-2" d="M409.14,88.48c-8.56-21.14-17.35-42.6-25.85-63.36l-.28-.69c-1.59-3.88-1.88-4.07-6.1-4.08q-25.31,0-50.61,0c-5,0-5.85.8-5.86,5.62q0,19.06,0,38.13V88.49H299.23l-.18-3.81c0-.51-.05-1-.08-1.5-.07-1.1-.13-2.24-.13-3.4q0-21.86,0-43.7V6.6c0-3.95-.48-5.25-.88-5.64s-1.79-.9-5.91-.9H238.2c-76,0-154.64,0-232-.06h0C3.07,0,1.28.45,0,1.66V147.41c1.53,1.35,3.51,1.85,6.49,1.69,2.29-.12,4.55-.16,6.83-.16,1.68,0,3.38,0,5.12,0s3.46,0,5.22,0h3.67l.32,3.66c.72,8.49,3.73,14.42,9.47,18.68,7.4,5.49,15.4,6.54,23.8,3.12s13.24-9.67,14.41-18.6l0-.46c.47-4.29,2.77-6.42,6.73-6.43,9.49.06,18.79,0,28.64,0H125l.25,3.73c.57,8.77,4.1,15.19,10.77,19.63,4.45,3,9.61,4.2,15.75,3.8,7-.45,17-3.44,22.08-24l.76-3h8.66c4.2,0,8.43,0,12.65,0,4.84,0,5.12-.58,5.12-4.82,0-10.62,0-21.24,0-32V94.84H223v20.7q0,14.14,0,28.3c0,4.68.49,5.16,5.19,5.18h21.4l.71,3.11c3.53,15.45,10.71,23.32,22,24.06,7.34.47,13.41-1.46,18.54-5.92,4.87-4.24,7.43-9.82,8.08-17.58l.3-3.66h9.57c6.69,0,13,0,19.44.12,2.87.07,6.08,3,6.48,6,1.53,11.35,7.62,18.08,18.62,20.58,9.89,2.24,18.28-1,24.92-9.59a9.78,9.78,0,0,1,7.06-3.33c4.2-.11,8.45-.1,12.55-.09,2.64,0,5.29,0,7.93,0,3.73,0,4.39-.68,4.39-4.31,0-20.1.05-42.88,0-65.17A13.15,13.15,0,0,0,409.14,88.48Zm-15.66-23c.42,1.29.82,2.51,1.27,3.57,1.32,3.14,2.54,6.24,3.84,9.52q.84,2.15,1.72,4.35l2.19,5.49H354.67V53.64h8.16c3,0,5.93,0,8.84,0,1.17,0,2.51-.1,3.93-.22,3.93-.32,8.39-.69,11.77,1.62S392.25,61.71,393.48,65.49ZM51.85,170.61h-.08a17.87,17.87,0,0,1-17.88-17.32,17.43,17.43,0,0,1,5.16-12.48,17.73,17.73,0,0,1,30.46,12.28A17.68,17.68,0,0,1,51.85,170.61Zm97.46,0h-.05a17.6,17.6,0,1,1-.16-35.19,18,18,0,0,1,12.9,5.35,17.45,17.45,0,0,1,5.19,12.49A17.85,17.85,0,0,1,149.31,170.61ZM195,143.42h-4l-4.3,0-4.08,0c-2.21,0-4.38,0-6.58-.16a10.51,10.51,0,0,1-7.13-3.64c-5.09-6.46-12-10-19.48-10h0c-7.5,0-14.46,3.57-19.59,10.07a9.77,9.77,0,0,1-7,3.6c-14.14.14-28.72.15-44.58,0a9.36,9.36,0,0,1-6.71-3.27C66.08,133.31,59,129.6,51.67,129.6h-.1c-7.31,0-14.27,3.74-19.58,10.44a8.32,8.32,0,0,1-5.8,3.28c-4,.13-8,.11-11.92.1l-4.08,0h-4V121.74h4c.8,0,1.57,0,2.33,0,1.47,0,2.87,0,4.17,0s3.13-.56,3.08-2.9c0-1.64-1-2.54-3-2.65-1.4-.08-2.85-.06-4.4,0l-2.25,0h-4V94.83H195ZM6.25,88.39V6.06h286.1V88.39Zm269,82.22h-.45a17.73,17.73,0,0,1-12.45-5.06A17.36,17.36,0,0,1,257,153.09a17.78,17.78,0,0,1,30.2-12.6,17.38,17.38,0,0,1,5.31,12.28A17.55,17.55,0,0,1,275.23,170.61Zm83.37,0h-.21a17.6,17.6,0,1,1,.09-35.19c9.61.06,17.76,8.1,17.79,17.56A17.76,17.76,0,0,1,358.6,170.61ZM404,115.48l-3.51.43a37.36,37.36,0,0,1-4.34.19c-1.79,0-4.49,0-5.13.65a3.68,3.68,0,0,0-.43,2.2c0,2.43,0,2.81,5.67,2.83a35.06,35.06,0,0,1,4.21.18l3.52.42v34.37H383l-.74-5.27c-1.66-11.49-7.83-18.55-18.32-21-10.24-2.36-18.51.74-25.28,9.48a9.79,9.79,0,0,1-7.13,3.35c-10.77.16-20.56.15-29.93,0a10.19,10.19,0,0,1-7.33-3.67c-5-6.36-12.07-10-19.48-10h0c-7.42,0-14.53,3.68-19.5,10.07-1.82,2.34-3.68,3.51-5.67,3.58-4.11.15-8.26.13-12.27.12l-4.1,0h-4V122.33l3.67-.31c7.54-.62,9.38-1.41,9.81-1.83,0,0,0-.27,0-.89-.17-2.83-.36-3.15-5.59-3.21a33.59,33.59,0,0,1-4.54-.27l-3.41-.51V94.54h91.54c5.35,0,6-.61,6-5.86q0-18.93,0-37.85V26.34h12.45c11.41,0,22.19,0,33.1.06,2.28,0,5.3,1.34,6.44,3.75,1.32,2.82,2.46,5.67,3.66,8.69.43,1.08.87,2.18,1.33,3.31l2.24,5.5H371.79c-6.2,0-12.07,0-18,0-4.83,0-5.33.95-5.36,4.85-.09,12-.09,24.53,0,37.13,0,4,.48,4.87,5.25,4.88q14.94,0,29.88,0H404Z"/><path class="cls-2" d="M51.72,152.8h0c-.1,0-.17.12-.17.23s0,.2.15.2l.12,0a.46.46,0,0,0,0-.22C51.85,152.86,51.81,152.8,51.72,152.8Z"/><path class="cls-2" d="M149.4,152.81h0c-.1,0-.17.11-.17.22s0,.2.16.2l.11,0a.53.53,0,0,0,0-.22C149.53,152.87,149.49,152.81,149.4,152.81Z"/><path class="cls-2" d="M274.77,152.81h0c-.1,0-.17.11-.17.22s0,.2.16.2l.11,0a.53.53,0,0,0,0-.22C274.91,152.87,274.86,152.81,274.77,152.81Z"/><path class="cls-2" d="M358.69,152.81h0c-.1,0-.17.11-.17.22s0,.2.16.2l.11,0a.53.53,0,0,0,0-.22C358.82,152.87,358.78,152.81,358.69,152.81Z"/><polygon class="cls-1" points="225.1 45.14 225.1 43.39 216.86 43.39 216.86 44.33 225.1 45.14"/><polygon class="cls-1" points="216.86 54.15 216.86 56.47 225.1 56.47 225.1 54.93 216.86 54.15"/><rect class="cls-1" x="153.58" y="43.39" width="8.28" height="13.08"/><rect class="cls-1" x="80.46" y="54.55" width="8.72" height="1.92"/><path class="cls-2" d="M75.11,37,73.5,39v22l1.6,1.93H94.53l1.61-2V49.85l-1.62-1.7H77.46V40.39H92.18v1.4h4V39l-1.62-2ZM92.18,51.55v7.92H77.46V51.55Z"/><polygon class="cls-2" points="115.3 40.39 124.34 40.39 124.34 59.47 122.54 59.47 122.54 62.87 130.1 62.87 130.1 59.47 128.3 59.47 128.3 40.39 137.26 40.39 137.26 44.67 140.62 44.67 140.62 36.99 111.94 36.99 111.94 44.67 115.3 44.67 115.3 40.39"/><path class="cls-2" d="M148.23,37l-1.61,1.95v21.9l1.62,2H166.6l1.62-2v-22L166.61,37Zm16.63,22.48H150.58V40.39h14.28Z"/><polygon class="cls-2" points="198.94 62.73 185.1 36.99 174.42 36.99 174.42 40.39 176.22 40.39 176.22 59.47 174.42 59.47 174.42 62.87 181.98 62.87 181.98 59.47 180.18 59.47 180.18 37.08 195.1 62.99 202.9 62.99 202.9 40.39 204.7 40.39 204.7 36.99 197.14 36.99 197.14 40.39 198.94 40.39 198.94 62.73"/><polygon class="cls-2" points="211.5 36.99 209.9 38.94 209.9 48.75 211.41 50.61 228.1 52.2 228.1 59.47 213.86 59.47 213.86 56.55 209.9 56.55 209.9 60.94 211.5 62.87 230.45 62.87 232.06 60.91 232.06 50.36 231.04 48.75 213.86 47.05 213.86 40.39 228.1 40.39 228.1 43.15 232.06 43.15 232.06 38.91 230.45 36.99 211.5 36.99"/><circle class="cls-3" cx="52.03" cy="153.19" r="3"/><circle class="cls-3" cx="149.03" cy="153.19" r="3"/><circle class="cls-3" cx="275.03" cy="153.19" r="3"/><circle class="cls-3" cx="359.03" cy="153.19" r="3"/></g></g></svg>