<svg xmlns="http://www.w3.org/2000/svg" viewBox="0 0 300.04 381.05"><defs><style>.cls-1{fill:none;}.cls-2{fill:#52b963;}</style></defs><title>Asset 31</title><g id="Layer_2" data-name="Layer 2"><g id="Layer_1-2" data-name="Layer 1"><path class="cls-1" d="M213.77,118.9l5.87-1.92v-9.71h-5.91v1.83c0,3.09,0,6.09,0,9.09C213.74,118.42,213.75,118.65,213.77,118.9Z"/><path class="cls-1" d="M241.55,92.37A15.57,15.57,0,0,0,254.88,81H233.1q-57.67,0-115.35,0l-.94,0a11,11,0,0,1-3.16-.19c-3.67-.92-5.71-3.52-5.59-7.15a6.7,6.7,0,0,1,6-6.8,16.21,16.21,0,0,1,3.32-.14H220.5v0c-.07-1-.14-1.86-.26-2.7q-.57-4.19-1.19-8.37c-.78-5.39-1.59-11-2.21-16.49a30.14,30.14,0,0,0-35.09-27.29l-4.43.64c-4.14.6-8.41,1.22-12.65,1.71-16.53,1.91-33-.13-47-2.39A29.66,29.66,0,0,0,83.92,35.4C83,40.22,82.36,45.18,81.73,50q-.41,3-.82,6.08c-.39,2.74-.75,5.48-1.13,8.34l-.32,2.37h1.42c2.36,0,4.58,0,6.79,0h.15a10.25,10.25,0,0,1,4.08.66,6.67,6.67,0,0,1,4,7.82C95.1,79,92.47,81,88.46,81H44.9a14.21,14.21,0,0,0,1,2.52c3.31,6.13,8.47,9,16.22,9h0c42.84-.06,86.4-.06,128.52,0h47.29C239.29,92.48,240.43,92.46,241.55,92.37Z"/><path class="cls-1" d="M240.29,331.29a42.75,42.75,0,0,1-9.91-18.62c-.67-2.76-2-3.79-4.89-3.79h0c-53.71.05-103,.05-150.67,0h0c-3,0-4.44,1.09-5.14,4-1.42,6-4.43,11.67-9.45,18a34.6,34.6,0,0,0-5.87,9.73C52,347.17,52.22,353.89,52.45,361c.1,2.83.19,5.75.11,8.65H247.44c0-1.88,0-3.75,0-5.59.05-5.3.09-10.3-.1-15.36A26.93,26.93,0,0,0,240.29,331.29ZM94.75,328.05a7.11,7.11,0,0,1-5,2h-.16a7.19,7.19,0,0,1-7.06-7.3,7.1,7.1,0,0,1,7.22-7h.12a7.17,7.17,0,0,1,4.85,12.31Zm115.5,2h0a7.14,7.14,0,1,1,0-14.28h0a7.24,7.24,0,0,1,5.1,2.06,7,7,0,0,1,2.13,5.05A7.22,7.22,0,0,1,210.25,330Z"/><path class="cls-1" d="M176.7,218.84a75.07,75.07,0,0,1-53.48,0l-.3,1.76a60.24,60.24,0,0,1-1.69,7.91c-.48,1.55-.28,2,.73,2.92,3.91,3.51,7.83,7.13,11.63,10.63l4.12,3.79L150,257.15l4.67-4.29c8.25-7.59,16-14.76,23.95-22.13a1.94,1.94,0,0,0,.45-1.14c-.58-3-1.27-6-2-9.1C177,220,176.83,219.39,176.7,218.84Z"/><polygon class="cls-1" points="82.28 237.74 71.41 239.64 71.41 294.23 82.28 294.23 82.28 237.74"/><polygon class="cls-1" points="80.28 116.99 86.26 118.88 86.26 107.34 80.28 107.34 80.28 116.99"/><path class="cls-1" d="M166.87,278A64.92,64.92,0,0,0,133.6,278c-13.28,3.47-24.87-1.37-33.53-14-.94-1.37-1.86-2.75-2.87-4.27v34.42H202.87V259.58c-1.06,1.64-2.16,3.32-3.32,4.94C191,276.55,179.65,281.23,166.87,278Z"/><path class="cls-1" d="M209.84,153.35c.33-5.13,2.86-7.49,8.2-7.65.56,0,1.12,0,1.68,0s1.36,0,2,0a4.49,4.49,0,0,0,4.63-4.28,29.68,29.68,0,0,0,0-7.82c-.18-1.37-.61-2.34-1.19-2.66a2.5,2.5,0,0,0-2,.21,64.69,64.69,0,0,0-8.65,4.45c-3.45,2.16-6.7,2.43-9.94.82a8.68,8.68,0,0,1-5.06-8.29c0-1.91,0-3.81,0-5.72V107.16h-99c0,1.67,0,3.32,0,5,0,5.1,0,9.92,0,14.81s-1.72,8-5.5,9.63c-4.24,1.87-7.68.18-10.49-1.71a37.09,37.09,0,0,0-7.87-3.59l-.88-.32h-.07a2.36,2.36,0,0,0-1.2.44c-.94,1-1.64,4.57-1.17,8.32.32,2.52,1.05,4,1.64,4.39,1.75,1.1,4.45,1.32,6.82,1.52l.24,0c5.29.45,7.58,2.6,8.13,7.67.13,1.13.25,2.26.35,3.39C92,173.52,99.67,187.08,113.22,197c18.46,13.49,36.44,13.57,48.26,11.27,16.61-3.24,31.62-13.41,40.15-27.19C206.45,173.28,209.13,164.22,209.84,153.35Z"/><path class="cls-1" d="M124.67,264a31.67,31.67,0,0,0,8.77-.41c.67-.09,1.34-.19,2-.27l-4.23-3.9c-7-6.41-14.17-13-21.3-19.51a2.77,2.77,0,0,0-1.82-.51c-1.84.22-3.67.59-5.79,1l-.61.12c1,1.52,2,3,3,4.51a155,155,0,0,0,10.47,14.52C117.39,262.15,121.67,263.57,124.67,264Z"/><path class="cls-1" d="M50.2,320.14a26,26,0,0,0,6.48-17.92c0-11.83,0-23.85,0-35.48v-18.3c-.83.17-1.51.31-2.23.4-16.75,2-40.79,19.49-42.34,47.27-.81,14.53-.73,29.37-.65,43.72,0,6.28.07,12.79,0,19.18v.75a34,34,0,0,0,.17,4.67c.4,3.19,2.32,5.15,5.13,5.24,5.32.17,10.56.14,16.1.1l5.42,0c0-1.41,0-2.81,0-4.19,0-4.06.09-7.9-.09-11.76C37.61,340.92,41.53,329.91,50.2,320.14Z"/><path class="cls-1" d="M252.12,250.34a52.22,52.22,0,0,0-6.89-1.67l-1.89-.38v1.88c0,2.47,0,4.81,0,7.11-.15,7.23-4.46,8.4-7,8.46a6.86,6.86,0,0,1-5-1.84c-1.54-1.49-2.37-3.82-2.4-6.72q0-2.9,0-5.79c0-3.38,0-6.87-.09-10.29a3.1,3.1,0,0,0-.79-1.51c-2.83-.65-5.69-1.09-8.7-1.56l-1.53-.24v56.65h11l0-2.95c0-1.84,0-3.68.06-5.52.12-5,3.18-8.4,7.39-8.3s7,3.36,7,8.15.11,9.79,0,15.42a28.8,28.8,0,0,0,7.27,19.92A43.82,43.82,0,0,1,261.76,352c-.12,4.32-.09,8.57-.06,13.08,0,1.55,0,3.11,0,4.69h18.68c6.21,0,8.11-1.87,8.12-7.93l0-10.75c0-15.76.07-32.05,0-48.08C288.36,278.23,274.41,258,252.12,250.34Z"/><path class="cls-1" d="M164.85,263.09c1.15.33,2.19.61,3.23.84,8,1.77,14.27-.39,18.76-6.43,3-4,5.68-8.22,8.53-12.67.9-1.39,1.8-2.81,2.73-4.24a16.25,16.25,0,0,1-3.24-.73c-2.8-1-4.78-.38-7.59,2.46-3.18,3.21-6.58,6.28-9.88,9.24-1.49,1.35-3,2.69-4.46,4.05-2.27,2.09-4.53,4.18-6.87,6.36Z"/><path class="cls-2" d="M299.87,324.59c0-6.95.05-14.14,0-21.21a82.52,82.52,0,0,0-.94-12.82c-5.05-31.14-32.24-52.08-54.53-53.63a6.74,6.74,0,0,1-3.7-2c-.38-.33-.74-.64-1.07-.88-.86-.61-1.68-1.3-2.48-2a15,15,0,0,0-4.79-3.14,83,83,0,0,0-15.51-2.84c-2.42-.26-4.93.21-5.84,1.08-3.72,3.57-7.47,2.81-11.09,2.09l-.15,0c-10.72-2.15-11.26-2.79-11.49-13.69v-.43c-.08-3.77,1.22-6.24,4.48-8.52,15.61-10.92,24.92-26.24,27.67-45.55.42-2.95,2.18-3.62,3.89-4.27a39.65,39.65,0,0,0,8.8-4.57c2.67-1.88,4.47-6.61,4.83-12.64.41-7-1.27-13.64-4.08-16.16-.87-.78-2.33-2.34-2.41-4.07-.16-3.28-.14-6.52-.11-9.95,0-1.25,0-2.53,0-3.83V104h3.71c1.39,0,2.59,0,3.8,0,15.18-.54,27-10.85,28.13-24.5.32-3.91-.12-6.37-1.38-7.74s-3.7-2-7.67-2H232.52l-.18-1.3c-.47-3.41-1-6.78-1.43-10.13-1.06-7.47-2.07-14.52-2.92-21.75A41.66,41.66,0,0,0,211.36,8.17,40.44,40.44,0,0,0,179.84.66c-20.63,3.74-39.44,3.82-57.5.25-25.16-5-44.71,11.35-49.09,30C72.06,36,71.37,41.32,70.7,46.47c-.29,2.29-.59,4.59-.93,6.88-.52,3.43-1,6.87-1.51,10.35l-.87,6.08H58c-6.28,0-12.22,0-18.24,0a7.11,7.11,0,0,0-5.19,1.84A7.29,7.29,0,0,0,32.81,77a27.39,27.39,0,0,0,23.95,26.56c2.29.26,4.59.41,7,.56l3.49.23,1.39.11v4.77c0,3.33,0,6.48,0,9.65A4.43,4.43,0,0,1,67.42,122c-5.12,4.71-5.4,10.89-5.23,17.89.21,9.12,4.79,14.86,13.62,17a5.34,5.34,0,0,1,3.58,3.73c2.89,19.94,12.75,35.77,29.3,47.05.65.45,2.78,2.05,2.81,3.94a107,107,0,0,1-.56,11.73c-.29,2.94-2.2,4.68-5.39,4.9a44,44,0,0,0-4.91.75,46.47,46.47,0,0,1-4.65.75,7.76,7.76,0,0,1-3.48-.72c-.34-.13-.67-.25-1-.36-1-.31-2-.71-3-1.1A14,14,0,0,0,83,226.16a66.33,66.33,0,0,0-15.44,2.76,14.92,14.92,0,0,0-4.68,3c-.77.62-1.56,1.26-2.39,1.83-.44.3-.86.64-1.29,1a11.31,11.31,0,0,1-3.73,2.25c-2,.61-4.17,1-6.22,1.46a39.65,39.65,0,0,0-9.36,2.69C13.84,253.67.44,274.51.11,303,0,317.26,0,331.75,0,345.76q0,8.24,0,16.48a28.28,28.28,0,0,0,.31,4.58c1.25,6.94,5.5,11.47,13.36,14.23h272.5c9.63-3.26,14-10.07,13.78-21.4C299.79,348,299.83,336.08,299.87,324.59ZM195.89,237a16.5,16.5,0,0,0,3,.64c.63.09,1.29.19,2,.32l2.22.42-1.25,1.88c-1.37,2.09-2.68,4.14-4,6.15-2.88,4.5-5.6,8.75-8.65,12.84a19.31,19.31,0,0,1-16.07,8.23,26.65,26.65,0,0,1-5.75-.66c-1.26-.28-2.46-.62-3.86-1l-2.1-.58-2.62-.7,5.17-4.8c2.34-2.18,4.61-4.28,6.88-6.37,1.48-1.37,3-2.72,4.49-4.07,3.26-2.93,6.63-6,9.75-9.12C187.69,237.63,191,235.24,195.89,237Zm-39.18,18-6.7,6.16L135.68,248l-4.13-3.8c-3.78-3.49-7.7-7.1-11.59-10.6-2-1.75-2.4-3.44-1.6-6a59,59,0,0,0,1.6-7.52c.2-1.17.4-2.37.63-3.59l.34-1.77,1.68.66c18.22,7.14,36.59,7.16,54.61,0l1.63-.64.39,1.71c.25,1.12.51,2.23.76,3.32.74,3.17,1.44,6.15,2,9.21a4.71,4.71,0,0,1-1.36,3.91C172.76,240.3,165,247.47,156.71,255.07ZM62.13,95.53h-.05c-8.85,0-15-3.46-18.86-10.57A17.73,17.73,0,0,1,42,81.83c-.18-.55-.37-1.15-.6-1.8l-.72-2H88.46c2.58,0,4-1.07,4.48-3.36a3.67,3.67,0,0,0-2.29-4.48,7.75,7.75,0,0,0-2.9-.39H87.6c-2.16-.05-4.37,0-6.71,0H76L76.8,64c.38-2.87.75-5.61,1.14-8.36q.42-3,.81-6c.64-4.84,1.3-9.85,2.22-14.74a32.68,32.68,0,0,1,37.19-26c13.75,2.22,30,4.24,46.17,2.37,4.19-.49,8.44-1.1,12.56-1.7l4.44-.64a33.15,33.15,0,0,1,38.49,29.92c.62,5.47,1.42,11,2.2,16.4q.61,4.2,1.2,8.4c.12.92.19,1.82.27,2.87,0,.5.08,1,.14,1.63l.14,1.63H118.43l-1.13,0a15.27,15.27,0,0,0-2.74.1,3.74,3.74,0,0,0-3.5,3.94c-.07,2.21,1,3.57,3.32,4.15a9.11,9.11,0,0,0,2.32.1l1,0q57.67,0,115.35,0h25.36l-.26,1.72a18.38,18.38,0,0,1-16.4,15.62c-1.23.1-2.43.12-3.87.12H190.64C148.52,95.47,105,95.47,62.13,95.53Zm160.51,8.74v14.88l-11.56,3.79-.14-1.91c0-.35-.06-.67-.08-1-.06-.63-.12-1.23-.12-1.85,0-3,0-6,0-9.1v-4.83Zm-133.38.07V123l-12-3.78V104.34Zm22.19,95.06C97.17,189,89.13,174.69,87.55,157c-.1-1.11-.22-2.21-.35-3.32-.39-3.61-1.56-4.68-5.41-5l-.23,0c-2.71-.23-5.79-.48-8.16-2-2-1.23-2.74-4.25-3-6.56-.46-3.7,0-8.64,2-10.76a4.77,4.77,0,0,1,4.47-1.18l.87.32a39.22,39.22,0,0,1,8.51,3.91c3.1,2.09,5.24,2.5,7.61,1.45,2.63-1.16,3.77-3.26,3.71-6.83-.08-4.92-.06-9.75,0-14.87,0-2.13,0-4.27,0-6.45v-1.5h105v18.19q0,2.87,0,5.73a5.7,5.7,0,0,0,3.39,5.6c2.29,1.13,4.46.92,7-.68a67.71,67.71,0,0,1,9-4.66,5.12,5.12,0,0,1,4.71-.08c1.44.82,2.37,2.51,2.69,4.89a32.8,32.8,0,0,1,0,8.63,7.44,7.44,0,0,1-7.44,6.86c-.74,0-1.47,0-2.2,0h-1.58c-3.79.12-5.08,1.3-5.31,4.86-.74,11.36-3.57,20.88-8.65,29.09-9,14.48-24.71,25.15-42.13,28.55a62.47,62.47,0,0,1-12,1.16A65.14,65.14,0,0,1,111.45,199.4ZM98.91,238.05l2.82-.56c2.18-.44,4.07-.83,6-1.06a5.68,5.68,0,0,1,4.18,1.27c7.14,6.47,14.35,13.11,21.32,19.52l5.94,5.47,0,3.29-1.37.11c-1.3.11-2.65.3-4,.48a50,50,0,0,1-6.71.61,20.33,20.33,0,0,1-2.91-.2c-3.68-.54-8.59-2.26-11.31-5.46a155,155,0,0,1-10.69-14.8c-1.38-2.08-2.81-4.23-4.28-6.35l-1.31-1.89ZM94.2,249.73,97,253.87,99,257c1.27,1.93,2.39,3.62,3.53,5.28,5.5,8,15.21,16.72,30.3,12.79a67.71,67.71,0,0,1,34.76.08c11.65,2.9,21.58-1.25,29.51-12.35,1.26-1.77,2.47-3.64,3.64-5.45l1.67-2.56.65-1,2.8,1v42.33H94.2ZM68.41,237.12l16.86-3v63.06H68.41ZM41.31,365.6c0,1.85-.05,3.73-.05,5.64v1.5h-1.5c-2.32,0-4.61,0-6.89,0l-6.72,0c-3.18,0-6.32,0-9.5-.13-4.27-.14-7.42-3.23-8-7.87a37.62,37.62,0,0,1-.19-5.07V359c0-6.37,0-12.87,0-19.15-.08-14.39-.17-29.28.65-43.89A53.83,53.83,0,0,1,25,261c8.31-8.32,19.18-14,29.07-15.14.63-.08,1.3-.22,2.14-.4l1.66-.34,1.78-.35v22c0,11.63,0,23.65,0,35.47a28.94,28.94,0,0,1-7.23,19.92,42.49,42.49,0,0,0-11.24,31.53C41.4,357.61,41.35,361.49,41.31,365.6Zm209.16-1.52c0,2.33,0,4.68,0,7.07v1.5h-201l.08-1.58c.18-3.29.06-6.69,0-10-.23-7.08-.47-14.4,2.06-21.52A37.56,37.56,0,0,1,57.86,329c4.74-5.93,7.56-11.27,8.88-16.79,1-4.25,3.65-6.32,8.06-6.32h0c47.67.06,97,.06,150.66,0h0c4.26,0,6.81,2,7.8,6.08a39.82,39.82,0,0,0,9.23,17.33,29.83,29.83,0,0,1,7.85,19.3C250.56,353.71,250.52,358.75,250.47,364.08Zm41.08-12.94,0,10.75c0,7.74-3.23,10.9-11.11,10.92H258.73v-1.5q0-3.12,0-6.17c0-4.53-.06-8.81.06-13.18a40.4,40.4,0,0,0-10.43-28.83,31.73,31.73,0,0,1-8-21.93c.09-5.59.08-10.6,0-15.32-.06-3.16-1.63-5.16-4.1-5.21s-4.25,2.06-4.33,5.37c0,1.82-.05,3.65-.06,5.47,0,1.3,0,2.59,0,3.88a2.35,2.35,0,0,1-.41,1.22l-.4.87-.94,0H214.76V234.27l1.74.28,3.24.51c3,.47,6.06.94,9,1.63,1.72.41,2.94,2.86,3,4.31.12,3.47.11,7,.1,10.4,0,1.92,0,3.83,0,5.75a6.39,6.39,0,0,0,1.49,4.6,3.87,3.87,0,0,0,2.87,1c1.71,0,4-.65,4.09-5.52.05-2.26,0-4.58,0-7,0-1.19,0-2.43,0-3.75v-1.88l1.83.42c1.25.28,2.47.52,3.65.75a55.85,55.85,0,0,1,7.29,1.79c23.53,8.11,38.25,29.39,38.42,55.52C291.62,319.07,291.58,335.37,291.55,351.14Z"/><path class="cls-2" d="M89.86,318.74h-.07a4.13,4.13,0,0,0-4.23,4A4.18,4.18,0,0,0,89.68,327a4.05,4.05,0,0,0,3-1.13,4.11,4.11,0,0,0-2.81-7.15Z"/><path class="cls-2" d="M210.21,318.74h0a4,4,0,0,0-4.14,4.13,4.08,4.08,0,0,0,4.15,4.15h0a4.21,4.21,0,0,0,4.21-4.17,4.05,4.05,0,0,0-1.22-2.9A4.28,4.28,0,0,0,210.21,318.74Z"/></g></g></svg>