<svg xmlns="http://www.w3.org/2000/svg" viewBox="0 0 292.11 292.05"><defs><style>.cls-1{fill:#52b963;}</style></defs><title>Asset 14</title><g id="Layer_2" data-name="Layer 2"><g id="Layer_1-2" data-name="Layer 1"><path class="cls-1" d="M220.6,264.69l-6.84-10.14-4.9,3.32,6.58,10-1.93,1a138.65,138.65,0,0,1-62.39,16.93l-2.06.06v-9.41H143V286l-2.07-.08a138.09,138.09,0,0,1-62.23-17.16l-1.91-1,6.5-9.88-4.93-3.28-6.75,10-1.66-1.08a140,140,0,0,1-41.38-41.38l-1.08-1.65,10-6.79-3.32-4.9c-1.11.74-2.14,1.42-3.18,2.09s-2.21,1.43-3.36,2.16l-3.39,2.17-1-1.9A138,138,0,0,1,6.16,151l-.06-2.07H20.59v-6H6.06l.07-2.08a138.12,138.12,0,0,1,17.14-62.2l1-1.9,9.91,6.45,3.27-4.91-10-6.8,1.08-1.65a140.15,140.15,0,0,1,41.4-41.34l1.65-1.07,6.77,10,4.91-3.31-6.52-9.89,1.92-1A138.4,138.4,0,0,1,141,6.09L143.11,6v9.43h6.06V6.06l2.07.07a138.62,138.62,0,0,1,62.28,17l1.92,1-6.6,10,4.94,3.26,6.85-10.13,1.65,1.08a142,142,0,0,1,48.53,53.76l2.68-1.34,2.61-1.32,0,0A143.46,143.46,0,0,0,243,36.63c-33.4-29-72.78-40.9-117.06-35.27C97.54,5,72,16.68,49.92,36.16c-26.51,23.43-42.74,53-48.23,87.77-.44,2.82-.82,5.71-1.18,8.51L0,136.29v19.4l.51,3.85c.36,2.79.74,5.68,1.18,8.5,5.48,34.76,21.67,64.27,48.13,87.69,21.43,19,47.06,30.75,76.17,35,2.36.35,4.79.64,7.13.92l3.23.4H156.2l.37-.12a8.68,8.68,0,0,1,1.94-.43,141.57,141.57,0,0,0,36.87-7.93A144,144,0,0,0,267,227.85c2.48-3.67,4.69-7.46,7-11.49.73-1.25,1.46-2.51,2.21-3.78l-5.45-2.71a139.38,139.38,0,0,1-48.55,53.75Z"/><path class="cls-1" d="M146.32,44.25A102.26,102.26,0,0,0,67.7,81.32C32.07,124,38.14,188.08,81.23,224.14c39.5,33.05,93.57,28,124.05,4.08l-3.37-4.48c-20.33,14.11-41.9,19.78-65.9,17.31l-1.8-.18V204.7c0-3.12-.38-3.61-3.63-4.79a127,127,0,0,1-12.12-5.1c-3.58-1.75-4-1.69-6.64.93L99.46,208.09l-9.31,9.31c-.51.51-1,1-1.59,1.52L86.4,221l-15.85-15,8.66-8.63c5.94-5.93,11.64-11.62,17.34-17.33,2.27-2.27,2.36-2.88.92-6-1.88-4-3.64-8.21-5.4-12.86-1.07-2.85-1.7-3.31-4.49-3.32H50.84v-23.7h36c3.88,0,4.07-.28,5.37-4a104,104,0,0,1,4.92-11.6c1.92-3.86,1.88-4.12-1.07-7.08l-9.92-9.93Q80.37,95.81,74.6,90c-.49-.49-1-1-1.55-1.64-.28-.32-.6-.66-1-1.06l-1.3-1.39L86.72,69.69l1.39,1.94c.41.58.74,1.08,1,1.51a11,11,0,0,0,1.11,1.51c6.2,6.24,12.88,12.92,21.65,21.67,2.47,2.46,3.07,2.55,6.43.93,3.78-1.82,7.94-3.57,12.36-5.2,3.08-1.14,3.51-1.69,3.52-4.6q0-9.2,0-18.38v-18l1.81-.18c24.2-2.35,45.78,3.32,65.89,17.36l3.49-4.66A99.61,99.61,0,0,0,146.32,44.25ZM116.41,200.88l1.23.5,1.73.7c1.94.78,4.37,1.76,6.71,2.81a4.25,4.25,0,0,1,2.21,3.55c.05,7.78.05,15.44.05,23.56v7.94l-2.41-.52A94.17,94.17,0,0,1,94.23,226.3l-2.08-1.36Zm-48-37.17h2.22c1.65,0,3.36,0,5.06,0,.83,0,1.73,0,2.68-.09,2.68-.16,5.46-.33,7.62,1.08s3,4.15,3.8,6.79c.26.84.5,1.63.77,2.33a4.46,4.46,0,0,1-.71,4.34c-5.49,5.58-10.92,11-16.66,16.73l-5.6,5.58-1.35-2a94.46,94.46,0,0,1-13.59-32.3l-.53-2.43ZM71,94.19a10.5,10.5,0,0,0,1.27,1.91C78.61,102.6,84,108,89.17,113a4.49,4.49,0,0,1,.85,6.21,10.41,10.41,0,0,0-.86,1.83c-.1.25-.2.49-.31.74-2.55,6-3.28,6.47-9.7,6.47h-27l.5-2.41c2.41-11.56,6.88-22.09,14.06-33.16l1.69-2.61,1.67,2.62C70.4,93.22,70.69,93.72,71,94.19Zm57.31-10.51c0,2-2.13,3.31-2.37,3.46a7.35,7.35,0,0,1-1.86.73,3.76,3.76,0,0,0-.87.32,9.26,9.26,0,0,1-5.66,2.22c-3.74,0-6.43-3-8-4.78-3-3.44-6.41-6.73-9.68-9.91q-2.25-2.18-4.46-4.38c-.47-.47-.92-1-1.4-1.49l-2.31-2.5,2-1.29a93.17,93.17,0,0,1,32.24-13.49l2.41-.5v8C128.34,68.16,128.34,75.84,128.27,83.68Z"/><path class="cls-1" d="M287,113.36h-6.89c-10.53,0-21.42,0-32.12,0a6,6,0,0,1-5.66-3,66.87,66.87,0,0,0-95-19.61,65.84,65.84,0,0,0-20.9,23.42,4.22,4.22,0,0,0-.44,3.55,2.34,2.34,0,0,0,1.63,1.35,13.12,13.12,0,0,0,3.24.25h17.47q13.8,0,27.59,0c1.62,0,3.43.16,4.61,1.32,6.29,6.2,12.39,12.34,18.84,18.84l6.45,6.49-1.41,1.41c-2,2-4,4-5.93,5.93-5.69,5.68-11.06,11-16.47,16.58a8.44,8.44,0,0,1-6.5,2.67c-8,0-16.21-.06-24.58-.06-6.93,0-14,0-21.08,0-1.91,0-3.31.53-3.85,1.43s-.31,2.39.6,4.06a67.05,67.05,0,0,0,115.59,3.61,6.22,6.22,0,0,1,5.88-3.14c10.68.06,21.55,0,32.06,0h6.95c4.29,0,5-.72,5-5.09V118.33C292.11,114,291.44,113.36,287,113.36Zm-.91,59-1.91.09-1,.06c-.77,0-1.57.09-2.39.09h-8.75c-9,0-18.26,0-27.4-.05-2.93,0-4.56.86-6,3.31C230.75,190,219.24,199.41,204.48,204a67.13,67.13,0,0,1-19.84,3.16c-14.45,0-27.9-5.33-40.16-15.94a54.15,54.15,0,0,1-4.63-4.69c-.82-.91-1.56-1.85-2.41-2.95l-1.33-1.68-2.6-3.25h4.17c3.78,0,7.5,0,11.18,0,9.12-.05,17.74-.1,26.49.15a13.33,13.33,0,0,0,11.14-4.63c5.52-5.85,11.32-11.59,16.93-17.14,2.53-2.5,5.05-5,7.56-7.5,2.91-2.93,2.91-4,0-7l-9.12-9.12c-5.8-5.78-11.79-11.76-17.64-17.68a7.31,7.31,0,0,0-5.72-2.41c-9,.08-18.23.06-27.12,0h-14l-2.21-2.73,1.21-1.28c.92-1,1.81-1.94,2.71-2.92a88.41,88.41,0,0,1,6.2-6.37c20.17-18.18,52.28-20.11,74.69-4.48a60.39,60.39,0,0,1,18.73,20.56c1.33,2.44,2.94,3.32,5.92,3.31,8.66-.1,17.47-.08,26-.07l9.88,0h5.59Z"/><path class="cls-1" d="M146,158.87A12.77,12.77,0,0,0,155,136.82a12.77,12.77,0,0,0-8.81-3.71H146a13.22,13.22,0,0,0-12.79,12.81,12.78,12.78,0,0,0,3.76,9A13,13,0,0,0,146,158.87Zm0-19.62h0a6.74,6.74,0,0,1,.25,13.48h-.22a6.6,6.6,0,0,1-6.76-6.78A6.61,6.61,0,0,1,146,139.25Z"/></g></g></svg>