<svg xmlns="http://www.w3.org/2000/svg" viewBox="0 0 383.53 384.13"><defs><style>.cls-1{fill:#52ba63;}</style></defs><title>Asset 59</title><g id="Layer_2" data-name="Layer 2"><g id="Layer_1-2" data-name="Layer 1"><path class="cls-1" d="M383.53,42.75c-.95,2.8-1.41,5.9-2.95,8.32-3.18,5-6.28,10.34-10.55,14.32-22.51,20.93-45.36,41.51-68.16,62.14-1.92,1.73-2.38,2.95-1.31,5.6,7.2,17.88,4.46,34.28-8.49,48.62-3,3.36-7.07,5.78-10.54,8.76a5.71,5.71,0,0,0-1.55,2.74c-3,11.31-6.1,22.62-8.93,34a12.42,12.42,0,0,1-5.44,7.65c-9.3,6.39-19.75,6.91-30.26,5.48-45-6.12-80.34-38.45-90.66-82.67-2.38-10.18-3.05-20.5-.3-30.77a35.17,35.17,0,0,1,2.78-6.91,13.87,13.87,0,0,1,9.86-7.75c11.17-2.58,22.2-5.73,33.26-8.75a5.17,5.17,0,0,0,2.82-2c6.82-10.85,16.36-18.06,28.76-21.18a42.27,42.27,0,0,1,28.87,2.71c2.28,1.06,3.44.58,5-1.16,19.37-21.41,39-42.59,58.17-64.17C321.4,9.36,329.54,2.49,340.78,0h12c.77.29,1.52.66,2.31.87q19.79,5.34,26.68,24.61c.7,2,1.18,4,1.76,6ZM227.78,226c9.14,2,17.61,3,26.15.51,2.78-.8,4.6-2.14,5.37-5.39,2.5-10.55,5.52-21,8.11-31.5a5.51,5.51,0,0,0-1.16-4.45q-33.8-34.08-67.88-67.87a5.51,5.51,0,0,0-4.45-1.13q-16.33,4-32.55,8.45a5.79,5.79,0,0,0-3.46,2.9c-3.68,9.19-2.57,18.47-.34,28.07,2-.48,3.72-.84,5.38-1.29,5.77-1.57,11.51-3.26,17.3-4.75,4.19-1.08,7.51.74,8.61,4.47,1,3.43-1,6.61-5,7.95-.94.31-1.92.53-2.88.8l-19.63,5.39A92.22,92.22,0,0,0,178.45,196c6.82-6.86,13.32-13.43,19.86-20,3.9-3.89,7.44-4.31,10.44-1.34s2.56,6.61-1.24,10.48c-2.1,2.13-4.22,4.26-6.36,6.36l-14.55,14.2L215.09,223l5.67-20.48c.27-1,.48-1.94.8-2.88,1.31-4,4.49-6,7.91-5,3.76,1.09,5.59,4.41,4.5,8.58C232,210.68,229.93,218.1,227.78,226ZM264.41,91.6,292,119.11C315.66,97.56,339.7,75.94,363.41,54c6.92-6.41,8.9-14.91,6.09-24.07-5.52-18-28-22.9-40.87-8.93C315,35.76,301.58,50.71,288.07,65.59Zm13.53,85.94c16.78-13.09,18.26-34.84,3.19-50.06-8.52-8.6-17.06-17.19-25.69-25.67C240.67,87.3,218.29,89.16,206,105.62Z"/><path class="cls-1" d="M13.37,147.08h4.91q52.13,0,104.25,0c5.43,0,8.28,2.24,8.32,6.43a6,6,0,0,1-5.21,6.3,26.69,26.69,0,0,1-4.48.24q-42.37,0-84.75,0H31.94V371H153.31v-3.88c0-17.75-.05-35.5,0-53.25.07-19.85,14.71-36.41,33.93-38.52A38.26,38.26,0,0,1,229.09,305a50.64,50.64,0,0,1,1.17,11.13c.12,16.75.05,33.5.05,50.25V371h19V261.55a22.17,22.17,0,0,1,.12-3.74,6.31,6.31,0,0,1,6.7-5.29,6.13,6.13,0,0,1,5.93,5.66,31.53,31.53,0,0,1,.1,3.37c0,35.75-.18,71.5.13,107.25.09,10-6.35,15.36-15.45,15.33-71-.26-142-.14-213-.14C23.69,384,19,379.31,19,369.1q0-101.82,0-203.62v-5.2c-2.29-.1-4.38-.14-6.46-.3-5.92-.44-10.49-3.93-12-9.11s.24-10.64,5.05-14.23c11.81-8.83,23.68-17.56,35.53-26.33l89.8-66.4c7.31-5.41,12-5.4,19.31,0q19.59,14.48,39.19,28.94c2.93,2.14,4.5,4.73,3.4,8.34-1.36,4.42-6.41,5.54-10.77,2.34-10-7.31-19.89-14.7-29.82-22.07-3-2.23-6.16-4.3-9-6.75-2.07-1.8-3.49-1.36-5.47.12Q90.22,90.11,42.59,125.27L16.08,144.88C15.43,145.36,14.81,145.9,13.37,147.08ZM217.06,371c0-20.43.53-40.54-.18-60.6-.49-14-15.19-24.48-29-22-13.43,2.41-21.7,12.48-21.77,26.74-.07,17.6,0,35.21,0,52.81,0,1,.15,1.93.24,3.06Z"/><path class="cls-1" d="M89.52,179.22c10.24,0,20.48,0,30.72,0,5.25,0,7.51,2.29,7.51,7.53q0,30.92,0,61.82c0,5-2.23,7.42-7.28,7.44q-31.09.12-62.19,0c-5,0-7.41-2.4-7.43-7.41q-.12-31.1,0-62.19c0-5,2.52-7.17,7.57-7.19C68.79,179.2,79.16,179.22,89.52,179.22Zm6.54,12.94v18.6h18.69v-18.6Zm18.76,32.17H96v18.49h18.8ZM82.67,192.27H64.16v18.55H82.67Zm-18.52,32v18.58H82.54V224.29Z"/><path class="cls-1" d="M89.36,275.22c10.24,0,20.48,0,30.72,0,5.49,0,7.67,2.22,7.67,7.74q0,30.73,0,61.45c0,5.21-2.23,7.59-7.5,7.61q-30.9.11-61.81,0c-5.23,0-7.58-2.38-7.6-7.63q-.11-30.72,0-61.44c0-5.53,2.33-7.71,7.8-7.73C68.88,275.2,79.12,275.22,89.36,275.22Zm6.69,12.92v18.61h18.69V288.14Zm18.72,32.28H96.07v18.46h18.7ZM82.56,306.88V288.24H64.13v18.64Zm0,32.05V320.36H64.22v18.57Z"/><path class="cls-1" d="M201.22,51.17A22.17,22.17,0,0,1,178.77,29,22.42,22.42,0,0,1,201.22,6.29a22.77,22.77,0,0,1,22.44,22.5A22.5,22.5,0,0,1,201.22,51.17Zm-.11-31.78a9.54,9.54,0,0,0-9.56,9.42,9.65,9.65,0,0,0,9.56,9.48,9.36,9.36,0,0,0,9.42-9.49A9.17,9.17,0,0,0,201.11,19.39Z"/><path class="cls-1" d="M287.54,246.19A22.3,22.3,0,0,1,310,224a22.44,22.44,0,1,1-22.5,22.2Zm22.36-9.25a9.45,9.45,0,1,0,0,18.89,9.45,9.45,0,1,0,0-18.89Z"/><path class="cls-1" d="M95.92,51.9c-1.13,1.46-2.11,3.88-3.81,4.62s-5.07.89-6.47-.23A88.84,88.84,0,0,1,74.27,45c-2.13-2.46-1.49-5.44.75-7.77s5.34-3.08,7.74-1A151.89,151.89,0,0,1,94.62,48C95.3,48.76,95.34,50.09,95.92,51.9Z"/><path class="cls-1" d="M49.79,58.16c-1.51-1.31-4-2.48-4.67-4.32s-.45-5,.74-6.52A95.74,95.74,0,0,1,56.32,36.65a6.22,6.22,0,0,1,8.5.25c2.36,2.26,3,5.65.85,8.11C62.05,49.11,58,52.87,54,56.63,53.23,57.39,51.77,57.48,49.79,58.16Z"/><path class="cls-1" d="M67.11,23.07C66,24.46,65,27,63.14,27.78s-5.06.72-6.52-.43a85.06,85.06,0,0,1-10.9-10.74c-2.11-2.4-1.85-5.39.25-7.88s5.33-3.34,7.7-1.4c4.41,3.6,8.25,7.9,12.21,12C66.49,20,66.52,21.2,67.11,23.07Z"/><path class="cls-1" d="M96.26,12.49c-1.18,2.13-1.76,3.83-2.87,5-2.85,3.13-5.89,6.1-9,9s-6.75,3-9.36.49c-2.77-2.65-2.7-6.47.32-9.6s5.89-6.55,9.38-9.08a9.06,9.06,0,0,1,7.1-1C93.65,8,94.76,10.64,96.26,12.49Z"/><path class="cls-1" d="M338.63,166.31c0-2.12-.13-4.25,0-6.36a6.34,6.34,0,0,1,6.55-6.28,6,6,0,0,1,6.25,6.09,129,129,0,0,1,0,13.48,6.07,6.07,0,0,1-6.4,6,6.46,6.46,0,0,1-6.35-6.15C338.49,170.82,338.64,168.56,338.63,166.31Z"/><path class="cls-1" d="M364.12,192c-2.25,0-4.5.13-6.74,0a6.49,6.49,0,0,1-5.95-6.54,6.33,6.33,0,0,1,6-6.1q6.93-.24,13.87,0a6.21,6.21,0,0,1,5.92,6.11,6.34,6.34,0,0,1-5.94,6.51C368.88,192.09,366.5,192,364.12,192Z"/><path class="cls-1" d="M326.12,179.26c2.25,0,4.5-.12,6.74,0a6.34,6.34,0,0,1,0,12.63c-4.62.18-9.25.18-13.86,0a6.33,6.33,0,0,1,0-12.63C321.36,179.14,323.75,179.26,326.12,179.26Z"/><path class="cls-1" d="M351.44,204.77a70.22,70.22,0,0,1-.05,7.11,5.94,5.94,0,0,1-6.26,5.65,6.1,6.1,0,0,1-6.38-5.61,120.47,120.47,0,0,1,0-14.22A6.18,6.18,0,0,1,345.1,192c3.49,0,6,2.26,6.35,6,.2,2.23,0,4.5,0,6.74Z"/><path class="cls-1" d="M191.63,332.64c0-2-.09-4,0-6,.23-3.94,2.73-6.51,6.28-6.62a6.17,6.17,0,0,1,6.58,6.21,122,122,0,0,1,0,13.11,6.33,6.33,0,0,1-6.55,6.32c-3.43-.11-6.1-2.85-6.32-6.66C191.53,336.9,191.63,334.77,191.63,332.64Z"/></g></g></svg>