<svg xmlns="http://www.w3.org/2000/svg" viewBox="0 0 267.49 345.35"><defs><style>.cls-1{fill:none;}.cls-2{fill:#52b963;}</style></defs><title>Asset 30</title><g id="Layer_2" data-name="Layer 2"><g id="Layer_1-2" data-name="Layer 1"><path class="cls-1" d="M107.35,213.2c5.93-.37,11.6-4.23,13.37-8.79H92.3C94.57,209.87,101.79,213.54,107.35,213.2Z"/><path class="cls-1" d="M45.77,105l.52.18c6.89,2.41,7.33,3,7.85,10.3,0,.8.17,1.61.29,2.46.08.52.16,1,.22,1.55,3.22,26.92,27.69,47.42,54.53,45.69,27.82-1.78,48.8-23.37,49.87-51.34.22-5.57,2-7.58,7.48-8.59,2.28-.42,3.55-1.31,4.05-2.93H42.49l.23.24A9.21,9.21,0,0,0,45.77,105Z"/><path class="cls-1" d="M34.86,87.22a16.35,16.35,0,0,0,1.73,0H175.74l.88,0a11.17,11.17,0,0,0,2.2-.09c2.62-.47,4-1.92,4.18-4.43.16-2.14-1.73-4.14-4.22-4.44a22.81,22.81,0,0,0-3.23-.09h-1.46c-6.29,0-8.75-2.42-9.05-8.79a47.19,47.19,0,0,0-8.68-25.76,40.17,40.17,0,0,0-11.08-10.9l-1.81,2.71c-1.94,2.92-3.77,5.67-5.68,8.45-3.15,4.56-7.26,5.63-11.29,2.92s-4.61-7-1.64-11.55c1.58-2.42,3.2-4.82,5-7.45L131.12,26l-2.24-.37c-3.15-.51-6.13-1-9.09-1.27-5.54-.52-7.59-1.71-8.74-7.71-.53-2.7-2.37-4.48-4.49-4.32-2.51.19-3.93,1.52-4.47,4.19-1.26,6.25-3,7.29-9,7.85-2.9.27-5.82.77-8.91,1.3L82,26l1.33,2c1.77,2.71,3.35,5.13,4.9,7.58a9.3,9.3,0,0,1,1.62,7.05,7.19,7.19,0,0,1-3.4,4.5c-3.78,2.32-7.84,1.06-10.87-3.37-1.91-2.8-3.8-5.63-5.66-8.42l-1.8-2.69a6.2,6.2,0,0,0-.71.46A46.21,46.21,0,0,0,48.64,64.32c-.12.83-.21,1.68-.31,2.54-.31,2.88-.63,5.86-2,8.36-2,3.56-5.6,3.28-8.48,3.06a17.6,17.6,0,0,0-3-.06c-2.73.32-4.69,2.24-4.65,4.56S32.09,87,34.86,87.22Zm60.24-18c2.71,0,5.45,0,8.1,0q3.49,0,7,0c2.57,0,5.23,0,7.85,0,4.93.08,8.08,3,8,7.58-.07,4.36-3.22,7.32-7.84,7.36-3.86,0-7.75,0-11.64,0s-7.78,0-11.64,0c-4.62,0-7.77-3-7.83-7.36C87,72.31,90.17,69.33,95.1,69.26Z"/><path class="cls-1" d="M181.55,265.15c-6.28-6-12.54-12.33-18.6-18.43q-2.87-2.9-5.77-5.81L81.41,317.73,84,320.16c2.93,2.78,6,5.67,9,8.61,3.71,3.63,4.8,3.67,9,.25a22.45,22.45,0,0,1,8.57-4.55c3.5-.8,6.38-1.61,8.88-4a15.27,15.27,0,0,1,7.6-3.56c3.08-.58,5.75-1.08,7.72-3.36,2.74-3.16,6.34-4,9.5-4.46a14.43,14.43,0,0,0,4.68-2c.7-.39,1.4-.78,2.1-1.12s1.66-.88,2.53-1.38a20.61,20.61,0,0,1,6-2.64c3-.61,5.52-1.14,7.4-3.29,2.86-3.27,6.6-4.13,9.89-4.55a10.1,10.1,0,0,0,5.36-2.35,17.12,17.12,0,0,1,11.62-5.12,5,5,0,0,0,3-.93c3.48-3.8,8-5.34,12.45-6.83,3.47-1.17,6.78-2.29,9.47-4.42l-5.65-.92c-7.59-1.22-15.43-2.48-23.11-4A17.62,17.62,0,0,1,181.55,265.15Z"/><polygon class="cls-1" points="218.22 229.41 224.68 223.09 209.98 209.71 201.33 218.37 218.22 229.41"/><path class="cls-1" d="M165.67,227.82l0,0,5.45,5.46c6.54,6.56,13.3,13.34,20,19.91a8.44,8.44,0,0,0,4.12,1.87c3.06.56,6.21,1,9.25,1.51,3.75.57,7.62,1.17,11.42,1.92,1.57.31,2.27-.07,3.48-1.29,9.09-9.18,16.59-16.68,23.61-23.6,2.29-2.26,4.63-4.4,6.9-6.48l1.74-1.59-41.87-41.93Zm74.4-10.65a13.64,13.64,0,0,1,2.27,3.5c.27.54.55,1.08.86,1.61l.45.76-.45.76c-.32.55-.59,1.09-.86,1.61a13.26,13.26,0,0,1-2.14,3.33c-4.19,4.34-8.56,8.65-12.78,12.82l-2.33,2.31a8.16,8.16,0,0,1-5.76,2.65,9.07,9.07,0,0,1-4.92-1.64q-4.71-3.09-9.43-6.17c-6.45-4.22-13.13-8.58-19.67-12.92-2.59-1.72-4-3.74-4.26-6s.76-4.61,3-6.89c6.29-6.44,12.95-13.16,19.78-20,4-4,7.89-4,11.87-.12C224.12,201.08,232.32,209.28,240.07,217.17Z"/><path class="cls-2" d="M27.39,97.6A6.07,6.07,0,0,1,30,101.8c.53,6.09,3.15,10.43,7.78,12.89,3.79,2,4.56,4.92,5,7.73,4.26,25.24,18.24,42.39,41.55,51s44.74,4.68,64.11-11.45c12.32-10.26,19.71-23.76,21.94-40.11.33-2.39,1-5.09,4.52-6.9,6-3.06,7.61-8.62,7.94-12.75a5.7,5.7,0,0,1,3.38-5.1,15.92,15.92,0,0,0,8-18.36c-2-7.63-7.17-11.81-15.75-12.75l-1.06-.12-.24-1c-.08-.39-.17-.76-.26-1.13-.19-.79-.37-1.54-.51-2.33-4.41-26-24-45.17-49.84-48.89a6.26,6.26,0,0,1-5.32-3.6C118.18,3,113.31,0,106.81,0h-.07c-6.47,0-11.33,2.92-14.86,8.92a7.73,7.73,0,0,1-4.83,3.33C64.93,16.06,49.33,28.14,40.68,48.17a76.48,76.48,0,0,0-3.51,11.21c-.39,1.52-.8,3.08-1.24,4.65l0,0-.29.92a1.76,1.76,0,0,1-1.29,1.1l-2.5,1,.2-.66C24.63,68,19.9,72.53,18.38,79.79,17,86.57,20.41,93.4,27.39,97.6Zm146.45,3.28c-.2,4.06-2.48,6.52-6.77,7.31-4.11.75-4.86,1.61-5,5.76-1.13,29.53-23.29,52.34-52.68,54.22-1.11.07-2.23.1-3.33.1-27.08,0-51.1-21.08-54.37-48.43-.06-.49-.13-1-.2-1.47-.13-.87-.26-1.77-.33-2.69-.21-3-.35-4.63-.94-5.4S48.07,109,45.3,108l-.52-.19a11.34,11.34,0,0,1-4.22-3.19c-.5-.52-1-1-1.48-1.45l-1-.9,2.15-3H173.91ZM34.4,75.25a19.13,19.13,0,0,1,3.63,0c2.92.23,4.62.26,5.64-1.55s1.4-4.63,1.68-7.21c.1-.89.2-1.78.32-2.65A49.13,49.13,0,0,1,65.59,30.75a10,10,0,0,1,1.48-.92,2.8,2.8,0,0,1,1-.28l.4-.05,1-.16,2.92,4.37c1.86,2.79,3.74,5.6,5.65,8.4,2.14,3.13,4.43,4,6.82,2.5a4.26,4.26,0,0,0,2-2.62,6.45,6.45,0,0,0-1.23-4.76c-1.54-2.44-3.12-4.85-4.88-7.55l-2.59-4-1.27-1.95,2.29-.35c1.54-.24,3-.49,4.46-.74,3.14-.54,6.11-1,9.13-1.33,5-.47,5.4-.82,6.33-5.45.8-4,3.35-6.3,7.18-6.59C110,9,113.18,11.86,114,16.05s1.46,4.85,6.08,5.28c3.06.29,6.09.78,9.29,1.3,1.47.24,3,.49,4.55.72l2.34.36-1.32,2-2.6,3.86c-1.77,2.62-3.38,5-5,7.41-1.42,2.18-2.44,5.23.81,7.42.95.64,3.87,2.61,7.14-2.14,1.89-2.75,3.72-5.49,5.65-8.4.86-1.28,1.72-2.59,2.61-3.91l.78-1.16,1.21.7a41.75,41.75,0,0,1,13.22,12.47A50.11,50.11,0,0,1,168,69.29c.23,4.74,1.42,5.9,6.08,5.93h1.39a26.47,26.47,0,0,1,3.65.11c4.06.5,7.12,3.93,6.84,7.65-.3,3.89-2.66,6.43-6.64,7.15a10.45,10.45,0,0,1-1.91.15h-.89l-.83,0H36.64a20.31,20.31,0,0,1-2,0c-4.28-.37-7.43-3.48-7.49-7.38S30.11,75.75,34.4,75.25Z"/><path class="cls-2" d="M213.65,169.45c-1.36-1.37-2.58-2-3.73-2h0c-1.18,0-2.45.72-3.88,2.15-21.63,21.55-38.23,38.15-53.81,53.83-1.14,1.14-2,2.55-1.92,3.26.25,3.69-1.78,5.71-3.57,7.5q-38,37.89-75.91,75.84l-2.34,2.33c-3.86,3.86-3.2,6.06-.76,8.54,7.15,7.27,14.86,15.06,22.82,22.73,1.16,1.11,3.11,1.88,3.64,1.73a35.54,35.54,0,0,1,5.33-1.48c3.52-.79,6.85-1.53,9.33-4.33,1.75-2,4.78-2.86,7-3.26,3.16-.57,6.45-1.47,9.1-4.23a10.41,10.41,0,0,1,6-3.17,16.57,16.57,0,0,0,10.71-4.79,10.76,10.76,0,0,1,6.13-2.76,14.64,14.64,0,0,0,9.4-4.23,12.13,12.13,0,0,1,6.71-3.22,16.05,16.05,0,0,0,9.48-4.24,14.6,14.6,0,0,1,7.32-3.28,15.24,15.24,0,0,0,8.22-3.71,16.63,16.63,0,0,1,7.86-3.74c3.4-.52,5.87-1.28,7.7-3.4,2.89-3.36,6.63-4,9.91-4.42a8.7,8.7,0,0,0,4.8-1.9,18.81,18.81,0,0,1,12.47-5.66,4.7,4.7,0,0,0,3.84-1.95,5.44,5.44,0,0,0,0-4.9l-.39-1a66.68,66.68,0,0,0-3.35-7.4c-1.87-3.37-.48-5.44,1.29-7.19,9.41-9.23,19.35-19.16,31.29-31.25a20.34,20.34,0,0,0,2.46-3.31c.25-.38.49-.76.75-1.14-.21-.4-.4-.79-.58-1.16a9.84,9.84,0,0,0-1.56-2.58C248.33,204.37,230.93,186.8,213.65,169.45Zm9.27,105.06c-.1.13-.23.3-.37.45-3.44,3.78-8,5.32-12.4,6.8-4.24,1.44-8.24,2.79-11.19,6-1.52,1.66-4.32,1.88-5.15,1.91a14.12,14.12,0,0,0-9.66,4.3,13.12,13.12,0,0,1-7.05,3.15c-3.91.49-6.23,1.52-8,3.54-2.55,2.92-5.85,3.6-9,4.26a18.21,18.21,0,0,0-5.08,2.3c-.88.51-1.79,1-2.72,1.48-.65.32-1.3.68-1.95,1a16.62,16.62,0,0,1-5.73,2.31c-3.75.51-6,1.51-7.64,3.46-2.66,3.06-6.1,3.71-9.44,4.34a12.37,12.37,0,0,0-6.08,2.79c-3,2.9-6.46,3.86-10.27,4.75a19.16,19.16,0,0,0-7.35,4c-2.61,2.12-4.61,3.2-6.52,3.2s-4-1.21-6.46-3.64c-3-2.93-6-5.8-8.92-8.58l-3.66-3.48-1.1-1.06,80-81.13,1.07,1.06,6.84,6.88C171.4,251,177.37,257,183.63,263a14.47,14.47,0,0,0,6.85,3.67c7.63,1.5,15.44,2.76,23,4l8.58,1.39,2.53.42Zm32-47.8L252,229.37c-2.25,2-4.58,4.18-6.82,6.39-7,6.92-14.51,14.41-23.59,23.58a6.31,6.31,0,0,1-4.69,2.28,7.52,7.52,0,0,1-1.5-.16c-3.73-.73-7.58-1.33-11.3-1.9-3.06-.47-6.22-1-9.33-1.52a11.49,11.49,0,0,1-5.67-2.67c-6.76-6.59-13.53-13.38-20.08-20L163.57,230a12,12,0,0,1-.91-1.05l-1.06-1.27,48.23-48.27L256,225.65Z"/><path class="cls-2" d="M59.6,336.26c-1.56,0-3.11,0-4.76,0H51.05v-20.6q0-20,0-39.93a6,6,0,0,0-1.42-4.36,4.15,4.15,0,0,0-3-1.1h0c-3,0-4.44,1.88-4.44,5.55q0,20.1,0,40.22V336h-33v-1.5c0-8.48-.07-17.08-.14-25.4-.17-19.19-.34-39.05.4-58.51C10.21,228.9,22,213,43.43,204.42c8.91-3.54,18.24-3.38,27.27-3.22,2.06,0,4.18.08,6.28.07h1.16l.29,1.12c3,11.43,9.84,18.65,20.9,22.09,1.62.51,2.48,2.54,2.71,3.15.92,2.44,2.22,3.51,4.37,3.57,2.3.07,3.71-1,4.67-3.58.23-.61,1.1-2.64,2.72-3.14,11-3.41,17.84-10.59,20.86-21.95l.29-1.11h7.72c5.12,0,10.4,0,15.58,0a5.65,5.65,0,0,0,4-1.52,4.13,4.13,0,0,0,1.15-3c-.05-2.59-2.3-4.5-5.34-4.53s-6.13-.07-9.2-.07H107c-14.85,0-29.84,0-44.68,0a84.64,84.64,0,0,0-11.36.78C23.7,196.83.46,222.9.17,250-.06,271.74,0,293.85.05,315.24q0,12.36,0,24.71c0,3.72,1.48,5.24,5.1,5.25,18.11,0,36.39,0,54.35,0a5.27,5.27,0,0,0,3.87-1.37,4.34,4.34,0,0,0,1.13-3.21C64.48,337.93,62.68,336.34,59.6,336.26Zm64.84-134.85-.28,1.73c-1.06,6.69-8.52,12.54-16.63,13.05-.3,0-.6,0-.91,0-7.37,0-16.29-5.34-17.82-13l-.35-1.79Z"/><path class="cls-2" d="M95,81.2c7.7.06,15.52.06,23.22,0,3,0,4.83-1.67,4.87-4.4s-1.81-4.49-5.07-4.54c-2.59,0-5.23,0-7.79,0q-3.5,0-7,0H99.66c-1.5,0-3,0-4.52,0-3.25,0-5.09,1.7-5,4.54S91.94,81.17,95,81.2Z"/><path class="cls-2" d="M186.18,215c-1.57,1.6-2.3,3.11-2.15,4.47s1.13,2.63,2.94,3.83c6.53,4.34,13.2,8.69,19.65,12.91l9.44,6.17c2.61,1.71,4.75,1.52,6.92-.64l2.33-2.3c4.21-4.16,8.56-8.46,12.73-12.78a10.86,10.86,0,0,0,1.63-2.61l.52-1c-.18-.33-.35-.67-.52-1a11.44,11.44,0,0,0-1.74-2.77c-7.73-7.87-15.93-16.06-24.35-24.33-1.38-1.36-2.57-2-3.76-2s-2.45.71-3.89,2.15C199.1,201.85,192.46,208.56,186.18,215Zm23.7-9.43L229.05,223,218.6,233.25l-22-14.39Z"/></g></g></svg>