<svg xmlns="http://www.w3.org/2000/svg" viewBox="0 0 376.87 267.28"><defs><style>.cls-1{fill:#52ba63;}</style></defs><title>Asset 54</title><g id="Layer_2" data-name="Layer 2"><g id="Layer_1-2" data-name="Layer 1"><path class="cls-1" d="M9.35,126.79H367.88V123q0-43.12,0-86.24c0-17.09-10.47-27.56-27.53-27.56H299.15c-.35,5.05-.33,9.8-1.07,14.42a31,31,0,0,1-29.52,26.1c-14.37.35-28.75.16-43.12.16q-56.81,0-113.61,0c-16.06,0-28.58-9.15-32.17-23.9-1.28-5.25-1.19-10.83-1.76-16.6-.94-.05-2.14-.16-3.35-.16q-19.3,0-38.62,0C20.16,9.19,9.44,20,9.35,35.8c0,1.5.5,3.34-.18,4.42-1,1.59-2.84,3.63-4.32,3.63s-4-2.08-4.27-3.6C-3.29,20.62,12.78.64,32.87.26,51.11-.08,69.36,0,87.6,0Q188.66,0,289.7,0C307.82,0,326-.06,344.06.25a33.68,33.68,0,0,1,32.76,33.37c.09,38,0,76,0,114,0,20.91-14,35.29-34.9,36-.75,0-1.5,0-2.25,0q-151.11,0-302.21,0c-13,0-23.68-4.36-31.24-15.22A32,32,0,0,1,.38,149.81q0-34.86,0-69.74C.38,76.15,2,74,4.9,74s4.44,2.16,4.44,6.12q0,21.57,0,43.12Zm.2,9.52c0,5.48-.46,10.64.09,15.68,1.54,13.93,13.49,22.51,26.76,22.47q143-.33,286-.12c7,0,14,.08,21-.05,10.65-.2,20.25-6.89,22.88-17.2,1.67-6.6,1.5-13.67,2.17-20.78ZM87.9,9.4c0,4-.36,7.78.07,11.44a22.35,22.35,0,0,0,22.52,19.9q78.16.06,156.34,0a22.15,22.15,0,0,0,17.39-8.15C290,25.85,290,17.81,289.49,9.4Z"/><path class="cls-1" d="M86.1,223.18c-1.7,4.06-2.93,8.4-5.18,12.12-6.69,11-6.6,14,2.27,23.52,1.71,1.83,2.83,3.91,1.37,6-.9,1.25-3,1.68-4.61,2.36-.36.14-1-.16-1.41-.38-8.11-4.09-13.71-18.83-10.27-27.51a44.74,44.74,0,0,1,4.17-7.49c5-7.69,4.92-12.43-.37-19.89-1.08-1.52-2.42-2.87-3.43-4.44-1.41-2.19-1.27-4.71,1-5.87,1.51-.77,4.35-.79,5.65.15,5.47,3.93,9.88,14,9.86,21.05Z"/><path class="cls-1" d="M161.1,223.18c-1.7,4.06-2.93,8.4-5.19,12.12-6.68,11-6.59,14,2.28,23.53,1.71,1.82,2.83,3.9,1.37,6-.9,1.25-3,1.68-4.62,2.36-.35.14-1-.16-1.4-.38-8.11-4.09-13.71-18.83-10.27-27.51a43.72,43.72,0,0,1,4.18-7.49c5-7.69,4.91-12.43-.38-19.89-1.08-1.52-2.42-2.87-3.43-4.44-1.41-2.19-1.27-4.71,1-5.87,1.51-.77,4.35-.79,5.65.15,5.47,3.93,9.88,14,9.86,21.05Z"/><path class="cls-1" d="M235.13,222.8c.23,4.74-1.79,9-4.41,13-6.5,10-6.12,14,2,22.63,2.76,2.92,3.16,5.42,1.18,7.47s-4.89,1.8-7.71-1.21a46.49,46.49,0,0,1-5-6.05c-5.4-8.2-5.69-16.44-.17-24.83,7-10.71,6.77-14.78-1.13-24.71-2.51-3.16-2.7-5.65-.56-7.54s4.93-1.34,7.63,1.8C232.39,209.63,235.12,216.06,235.13,222.8Z"/><path class="cls-1" d="M310.19,224.3c.14,3.56-2.06,7.83-4.77,12-6.09,9.3-5.69,13.64,1.92,21.76.68.72,1.87,1.43,1.92,2.2.13,1.92.41,4.58-.66,5.61s-4.45,1.33-5.52.42c-9.27-7.88-15.64-20.07-6.75-32.9,6.81-9.82,6.38-14.44-1.06-23.79-.46-.59-1-1.13-1.41-1.74-1.56-2.29-1.5-4.54.66-6.33a4.08,4.08,0,0,1,6.05.36C306,207.75,310.14,214.31,310.19,224.3Z"/><path class="cls-1" d="M270,68.47a14.61,14.61,0,1,1-14.6,14.7A14.46,14.46,0,0,1,270,68.47Zm5.58,15a5.59,5.59,0,1,0-5.86,5.21A5.82,5.82,0,0,0,275.56,83.45Z"/><path class="cls-1" d="M314.6,83.15A14.61,14.61,0,1,1,300,68.47,14.48,14.48,0,0,1,314.6,83.15Zm-14.53-5.67a5.59,5.59,0,1,0,5.52,5.59A5.93,5.93,0,0,0,300.07,77.48Z"/><path class="cls-1" d="M330,97.69A14.61,14.61,0,1,1,344.6,83,14.45,14.45,0,0,1,330,97.69Zm-5.6-14.52a5.6,5.6,0,0,0,11.19,0,5.6,5.6,0,1,0-11.19,0Z"/><path class="cls-1" d="M9.34,59.35c0,1.13,0,2.25,0,3.37C9.28,65.58,7.64,67.25,5,67.3S.51,65.77.41,62.91C.32,60.3.3,57.67.42,55.06a4.1,4.1,0,0,1,4.35-4.21c2.68,0,4.41,1.53,4.56,4.39C9.39,56.61,9.34,58,9.34,59.35Z"/><path class="cls-1" d="M188.62,161.44H43.87c-1.24,0-2.86.44-3.66-.17-1.51-1.14-3.54-2.92-3.51-4.4s2.17-3.08,3.66-4.29c.61-.49,1.94-.11,2.94-.11H335.79c3,0,4.91,1.39,4.95,4.38,0,3.2-2,4.64-5.13,4.59-1,0-2,0-3,0Z"/></g></g></svg>